<?xml version="1.0" encoding="UTF-8"?>
<svg id="_Слой_1" data-name="Слой 1" xmlns="http://www.w3.org/2000/svg" viewBox="0 0 1915.02 731.09">
  <defs>
    <style>
      .cls-1 {
        opacity: .08;
      }

      .cls-2 {
        fill: #8069ae;
      }

      .cls-3 {
        fill: #816baf;
      }

      .cls-4 {
        fill: #846eb1;
      }

      .cls-5 {
        fill: #856fb2;
      }

      .cls-6 {
        fill: #806aae;
      }

      .cls-7 {
        fill: #826baf;
      }

      .cls-8 {
        fill: #7f68ae;
      }

      .cls-9 {
        fill: #7f69ae;
      }

      .cls-10 {
        fill: #816aaf;
      }
    </style>
  </defs>
  <g class="cls-1">
    <g>
      <path class="cls-9" d="M324,1c3.7,2.16,7.68,3.95,11.05,6.54,10.58,8.14,13.82,19.31,11.64,32.04-1.33,7.77,1.64,13.64,7.47,17.74,5.48,3.85,11.15,1.76,16.81-1.35,20.29-11.14,40.19-22.93,60.16-34.62,3-1.76,4.2-.9,5.73,1.78,11.39,19.96,23.07,39.76,34.29,59.81,3.52,6.29,8.73,8.81,15.19,8.05,6.36-.75,11.48-4.22,13.74-10.77,3.23-9.39,8.8-16.81,18.23-20.64,15.66-6.36,34.11-.06,42.09,14.19,8.1,14.45,3.84,33.87-9.76,43.82-7.75,5.67-16.61,6.47-25.77,5.05-9.6-1.49-19.09,5.49-20.56,15.18-.31,2.04,.51,3.55,1.42,5.14,11.99,20.77,23.83,41.62,36.09,62.22,2.42,4.06,1.43,5.38-2.12,7.42-59.11,34.13-118.15,68.38-177.24,102.55-3.67,2.12-7.41,6.55-11.24,5.33-3.44-1.1-4.57-6.56-6.63-10.15-10.26-17.91-20.4-35.89-30.75-53.75-2.79-4.82-7.2-7.24-12.96-6.77-6.76,.55-11.75,3.81-14.18,10.12-2.57,6.66-5.85,12.69-11.5,17.22-11.25,9.01-28.7,9.02-40.43,.03-12.04-9.23-16.37-25.22-10.54-38.95,6.61-15.59,19.63-22.75,37.14-19.99,5.83,.92,10.56-.93,14.79-4.35,5.54-4.49,6.13-12.18,2.41-18.52-11.88-20.25-23.48-40.65-35.38-60.89-1.92-3.26,.06-3.93,2.14-5.14,18.45-10.67,36.89-21.35,55.3-32.09,3.3-1.92,6.53-3.97,9.64-6.18,7.64-5.41,6.23-18.9-2.54-24.29-1.69-1.03-3.59-1.73-5.44-2.48-13.07-5.27-21.14-16.68-21.13-29.91,0-14.62,8.39-27.04,21.73-32.24,.74-.29,1.41-.76,2.11-1.15,6.33,0,12.67,0,19,0Zm19.29,33.35c.16-15.1-8.9-26.41-22.42-29.41-14.24-3.16-26.7,2.98-32.9,16.22-5.84,12.47-2.54,27,7.92,35.12,3.48,2.71,7.59,4.07,11.5,5.92,7.02,3.31,11.02,9.19,11.69,16.81,.65,7.38-2.46,13.17-9.07,17-19.87,11.54-39.68,23.16-59.52,34.76-1.78,1.04-4.11,1.49-2.25,4.66,10.92,18.69,21.42,37.64,32.63,56.15,4.33,7.15,5.8,13.91,1.25,20.98-4.82,7.49-12.02,10.71-20.99,9.51-4.12-.55-8.17-1-12.38-.16-12.33,2.46-22.08,13.52-22.87,26.33-.94,15.16,6.64,26.18,21.03,30.55,12.96,3.94,25.99-1.04,32.66-12.64,1.56-2.72,2.47-5.81,3.88-8.63,3.57-7.13,9.43-11.01,17.37-11.63,7.19-.56,12.75,2.44,16.29,8.56,11.25,19.46,22.38,38.99,33.37,58.59,1.79,3.19,3.32,3.17,6.19,1.49,59.59-34.63,119.22-69.21,178.91-103.68,3.09-1.79,3.27-3.02,1.52-6.01-11.52-19.68-22.73-39.54-34.26-59.21-2.31-3.95-2.73-7.55-1.38-11.83,3.21-10.17,13.41-16.67,24.03-15.01,15.18,2.37,26.01-2.96,32.19-15.86,6.34-13.22,2.22-29.05-9.56-36.76-12.88-8.43-28.68-6.55-38.54,4.54-3.07,3.45-4.46,7.73-6.31,11.82-3.46,7.63-9.41,12.16-17.8,12.44-7.86,.26-13.74-3.02-17.8-10.39-10.36-18.8-21.36-37.26-31.92-55.96-1.81-3.21-3.14-3.61-6.4-1.7-19.1,11.18-38.38,22.05-57.55,33.13-6.58,3.81-13.37,4.8-19.77,.53-6.99-4.66-10.17-11.64-9.38-20.19,.23-2.48,.53-4.96,.64-6.04Z"/>
      <path class="cls-9" d="M921,1c-11.85,8.02-24.53,14.64-36.87,21.82-40.86,23.78-81.79,47.45-122.76,71.05-3.44,1.98-3.7,3.48-1.7,6.89,10.74,18.21,21.2,36.59,31.7,54.94,1.67,2.92,3.58,5.42,7.27,5.08,3.37-.31,3.62-3.45,4.57-5.86,8.03-20.42,30.99-32.54,51.46-27.19,21.64,5.66,36.09,26.86,33.23,48.74-3.13,23.91-26.02,40.7-51.11,37.4-2.54-.33-5.04-.95-6.81,1.53-1.93,2.71-1.08,5.45,.37,7.98,10.93,19.07,21.98,38.06,32.8,57.19,1.88,3.31,3.53,1.82,5.53,.66,18.14-10.53,36.29-21.04,54.43-31.59,4.76-2.77,9.45-5.68,15.32-5.1,11.17,1.11,18.76,11.05,17.47,23.18-.48,4.47-1.19,8.84-.15,13.37,3.24,14.12,16.52,23.95,31.03,22.73,14.76-1.23,25.88-12.85,26.48-27.67,.61-14.93-5.5-23.95-20.12-29.74-11.16-4.42-16.28-15.16-12.28-25.75,1.53-4.06,4.22-7.02,8.01-9.19,19.49-11.2,38.89-22.56,58.42-33.69,3.5-1.99,4.07-3.6,1.94-7.21-10.67-18.07-21.04-36.31-31.52-54.48-.92-1.59-1.82-3.2-3.38-4.27-3.54-2.42-6.59-1.26-8.29,3.43-4.68,12.87-13.67,21.46-26.2,26.45-21.49,8.54-44.05-.45-54.65-21.66-10.11-20.22-3.04-44.52,16.39-56.22,9.45-5.69,19.57-8.3,30.6-6.27,2.56,.47,5.07,.83,6.78-1.64,1.74-2.5,1.15-5.11-.24-7.55-7.18-12.58-14.42-25.13-21.59-37.72-1.8-3.16-3.4-6.43-5.1-9.65,1.33,0,2.67,0,4,0,8.3,14.44,16.61,28.88,24.89,43.33,.82,1.44,1.64,2.92,2.18,4.47,2.77,7.96-2.52,14.13-10.82,12.71-21.18-3.63-41.51,9.37-46.64,29.83-4.98,19.84,7.16,41.83,26.4,47.8,20.05,6.22,42.25-4.3,49.7-23.59,1.57-4.07,2.78-8.36,8.3-8.73,5.5-.37,8.52,2.82,10.99,7.12,11.18,19.51,22.35,39.03,33.69,58.44,1.82,3.11,1.72,4.5-1.64,6.41-20.27,11.52-40.33,23.41-60.6,34.94-5.95,3.38-9.73,8.02-9.11,14.77,.66,7.11,4.7,12.09,11.81,14.62,16.01,5.7,24.14,19.59,21.78,36.57-2.12,15.23-14.66,26.76-30.58,28.12-20.34,1.74-38.02-17.23-34.76-37.4,.85-5.26,.93-10.29-2.08-14.94-4.87-7.51-12.85-9.24-20.85-4.59-20.45,11.89-40.95,23.7-61.31,35.73-3.12,1.85-4.45,1.28-6.14-1.68-11.28-19.84-22.7-39.6-34.08-59.38-.25-.43-.46-.89-.69-1.33-1.91-3.66-2.13-7.3,.14-10.91,2.34-3.73,5.98-4.02,9.72-3.35,13.06,2.35,24.54-1.2,34.33-9.72,12.35-10.74,16.58-24.63,12.04-40.2-4.57-15.65-14.85-26.38-31.6-29.04-19.65-3.11-37.32,7.43-44.43,26-1.49,3.9-3.15,7.47-8.03,7.74-4.78,.27-7.81-2.43-10.01-6.24-11.67-20.19-23.24-40.43-35.02-60.56-1.72-2.94-.13-3.67,1.87-4.83,37.63-21.77,75.26-43.54,112.87-65.36,15.26-8.86,30.46-17.84,45.68-26.76,2.33,0,4.67,0,7,0Z"/>
      <path class="cls-9" d="M1011,731c1.62-4.37,5.24-6.72,9.02-8.91,18.86-10.94,37.67-21.98,56.63-32.74,3.35-1.9,3.53-3.27,1.66-6.45-9.8-16.65-19.34-33.44-28.98-50.18-.75-1.3-1.46-2.62-2.29-3.87-1.68-2.51-3.39-5.03-6.95-4.9-3.86,.14-3.99,3.47-5.03,5.96-12.12,28.95-47.7,37.57-70.18,16.98-14.25-13.04-18.66-34.36-10.61-51.2,8.27-17.28,27.51-27.53,46.56-24.9,2.52,.35,5.44,1.52,7.39-1.25,2.26-3.2,1.1-6.36-.62-9.36-10.61-18.48-21.31-36.91-31.79-55.47-2.02-3.58-3.85-2.41-6.33-.96-18.68,10.93-37.43,21.74-56.08,32.73-7.32,4.31-14.83,5.88-21.99,.62-7.01-5.15-10.12-12.29-8.63-21.38,3.77-22.95-16.66-40.37-38.8-33.32-9.55,3.04-17.39,14.14-17.98,25.45-.68,12.97,5.09,23.21,16.56,28.13,6.25,2.68,11.92,5.38,15.2,11.98,4.01,8.06,2.69,17.45-4.68,22.83-10.23,7.47-21.68,13-32.56,19.46-9.88,5.86-19.8,11.66-29.83,17.26-2.93,1.64-3.15,3.1-1.54,5.86,10.82,18.56,21.51,37.18,32.23,55.8,1.54,2.68,3.18,5.25,6.81,4.9,3.46-.33,3.71-3.45,4.65-5.82,7.9-19.88,29.06-31.77,49.41-27.69,20.44,4.1,35.81,23.19,35.55,44.16-.32,25.48-24.57,46.09-49.95,42.63-3.35-.46-8.07-2.71-8.87,3.66h-4c.92-6.77,4-9.14,11.56-7.81,12.58,2.21,23.4-1.51,33.08-9.18,15.4-12.2,18.65-34.56,7.73-51.85-10.56-16.73-31.36-23.06-48.99-14.99-10.48,4.8-18.09,12.24-22.14,23.17-1.34,3.61-2.66,7.37-7.45,7.69-5.15,.34-8.27-2.34-10.72-6.64-11.2-19.69-22.47-39.34-33.91-58.88-1.98-3.38-1.53-4.77,1.89-6.72,20.26-11.53,40.35-23.36,60.52-35.06,6.02-3.49,10.45-8.14,9.41-15.6-.96-6.91-4.9-11.7-11.74-14.16-26.25-9.41-27.9-39.86-12.15-55.39,9.77-9.63,21.61-10.8,33.84-6.24,11.92,4.45,19.53,13.13,21,26.2,.39,3.44,.47,7.09-.25,10.44-1.67,7.71,1.25,13.65,7.01,17.95,5.76,4.3,11.89,2.61,17.76-.85,19.94-11.76,39.99-23.33,59.88-35.15,3.01-1.79,4.27-1.5,6,1.56,11.07,19.57,22.36,39.02,33.56,58.51,.58,1.01,1.21,2.02,1.62,3.1,3.16,8.36-1.85,15-10.64,13.76-5.86-.83-11.54-.86-17.3,.68-18.27,4.89-30.62,20.65-30.48,39.12,.13,17.92,13.38,34.34,31.21,38.66,18.43,4.46,39.23-6.72,46.07-24.86,1.5-3.97,2.68-8.07,7.92-8.44,5.36-.38,8.7,2.51,11.2,6.86,10.95,19.06,21.86,38.15,32.98,57.11,1.98,3.38,1.65,4.93-1.81,6.91-19.96,11.39-39.78,23.04-59.65,34.57-2.61,1.51-5.16,3.07-7.01,5.53h-4Z"/>
      <path class="cls-9" d="M553,731c4.83-2.94,9.53-6.09,14.52-8.72,3.02-1.59,3.07-2.96,1.46-5.7-11.26-19.26-22.41-38.59-33.5-57.94-7.69-13.42,.17-28.77,15.05-29.21,5.1-.15,10.11,1.51,15.37,.77,14.55-2.05,26.16-15.74,25.81-30.89-.35-15.16-12.12-28.08-26.79-29.42-15.36-1.4-26.96,5.71-32.4,20.25-2.98,7.95-8.31,12.84-16.75,13.68-8.55,.85-14.11-3.94-18.13-10.89-10.92-18.89-21.87-37.75-32.59-56.74-1.94-3.43-3.42-3.75-6.76-1.77-18.03,10.72-36.21,21.2-54.33,31.77-1.29,.75-2.6,1.51-3.79,2.42-5.01,3.84-4.34,9.22,1.57,11.46,10.88,4.12,19.3,10.93,24.62,21.42,7.95,15.71,5.42,35.23-6.29,48-12.04,13.14-31.45,17.86-47.06,11.45-17.21-7.07-27.9-23.31-27.26-41.51,.08-2.32,.21-4.68,.65-6.95,.57-2.93-.03-5.35-2.46-7.07-2.47-1.75-4.94-1.27-7.47,.2-16.26,9.47-32.59,18.79-48.81,28.33-4.24,2.49-11.07,3.82-11.87,8.02-.7,3.64,3.93,8.35,6.33,12.52,8.79,15.3,17.59,30.59,26.47,45.84,8.26,14.18,6.75,21.44-6.59,30.67h-32c6.39-4.12,13.37-4.3,20.58-3.2,10.2,1.55,17.47-3.19,19.06-12.2,.69-3.91-.78-7.18-2.64-10.4-11.66-20.2-23.21-40.45-35.08-60.52-2.24-3.79-1.86-5.45,1.94-7.6,19.84-11.26,39.54-22.77,59.29-34.2,3.25-1.88,6.56-3.26,10.42-1.94,5.37,1.84,7.48,5.84,6.36,13.42-1.35,9.08,.09,17.54,4.57,25.52,8.41,15,25.29,22.82,41.44,19.18,17.08-3.85,29.71-17.74,31.06-34.18,1.47-17.9-8.47-34.4-24.73-40.49-4.66-1.75-8.68-3.77-9.18-9.26-.51-5.65,3.08-8.78,7.5-11.33,19.61-11.33,39.24-22.63,58.75-34.13,3.72-2.19,5.52-1.78,7.71,2.13,11.02,19.6,22.4,38.98,33.55,58.51,3.36,5.88,7.54,10.28,14.92,9.67,7.43-.61,11.26-5.26,13.72-11.96,5.82-15.91,21.52-24.68,38.28-21.79,15.4,2.66,27.32,16.49,27.75,32.21,.48,17.22-10.33,31.5-26.64,35.13-4.62,1.03-9.32,1.06-13.91,.19-6.83-1.29-12.27,.95-16.17,6.35-3.86,5.34-2.89,11.01,.26,16.46,10.33,17.88,20.66,35.77,30.99,53.66,1.17,2.02,2.24,4.09,3.46,6.08,3.9,6.34,3.31,5.05-2.48,8.7-3.23,2.03-6.51,4-9.76,6h-8Z"/>
      <path class="cls-9" d="M472,1c-7.03,5.62-15.17,9.44-22.94,13.83-3.37,1.91-3.47,3.21-1.63,6.35,10.45,17.8,20.66,35.75,30.95,53.64,.33,.58,.67,1.15,1.02,1.72,1.47,2.39,3.36,4.24,6.39,4,2.87-.23,3.58-2.73,4.38-4.88,4.3-11.52,12.29-19.5,23.21-24.92,19.2-9.53,45.51-3.54,57.63,20.95,9.55,19.3,2.49,43.91-16.55,55.28-9.88,5.9-20.12,8.41-31.5,6.29-5.39-1-8.34,2.67-6.25,7.77,1.13,2.75,2.83,5.27,4.32,7.87,9.29,16.17,18.68,32.28,27.8,48.54,1.94,3.47,3.47,3.73,6.83,1.77,51.37-29.9,102.82-59.68,154.25-89.47,8.07-4.67,16.11-9.39,24.26-13.91,2.83-1.57,3.68-2.84,1.8-6.03-10.47-17.8-20.67-35.75-31-53.63-.74-1.29-1.65-2.52-2.67-3.6-3.7-3.88-7.14-3.24-9.03,1.86-3.02,8.16-7.64,15.07-14.58,20.43-15.99,12.33-36.93,13-52.43,1.55-16.39-12.1-22.59-33.23-15.3-52.12,.41-1.07,.7-2.19,1.04-3.29,1.67,0,3.33,0,5,0-14.5,26.87,3.26,58.47,33.73,59.75,13.86,.58,33.1-8.98,39.06-28.14,2.46-7.91,11.26-7.37,15.14-3.15,1.45,1.58,2.67,3.41,3.75,5.28,7.92,13.69,15.78,27.42,23.67,41.13,2.82,4.91,5.52,9.89,8.53,14.69,1.81,2.89,1.95,4.45-1.52,6.45-43.73,25.14-87.35,50.47-131,75.75-18.15,10.51-36.34,20.97-54.4,31.63-3.14,1.86-4.64,1.7-6.51-1.61-10.89-19.28-21.98-38.46-33.07-57.63-2.44-4.22-3.29-8.37-.28-12.61,2.78-3.92,6.6-3.42,10.79-2.87,16.56,2.2,30.06-3.96,39.54-17.21,9.2-12.86,9.45-27,1.9-41.04-7.76-14.43-20-21.97-36.24-21-17.25,1.03-29.55,10.09-36.09,26.39-1.45,3.62-2.86,7.26-7.58,7.59-4.88,.33-8.18-2.01-10.54-6.13-11.33-19.8-22.65-39.61-34.14-59.32-1.52-2.61-.92-3.63,1.41-4.96,7.35-4.22,14.58-8.63,21.86-12.97,2.33,0,4.67,0,7,0Z"/>
      <path class="cls-9" d="M1279,731c-15.66-13.71-20.62-34.95-12.25-52.5,8.48-17.79,28.92-28.32,48.48-24.99,5.44,.93,8.32-2.44,6.16-7.66-1.52-3.67-3.7-7.07-5.68-10.54-9.03-15.75-18.18-31.42-27.06-47.25-1.86-3.32-3.36-3.57-6.55-1.69-18.64,11-37.41,21.78-56.12,32.65-3.64,2.11-7.42,3.78-11.71,3.92-12.4,.4-21.35-11.71-18.87-25.41,4.11-22.71-17.38-38.82-38.19-32.5-12.34,3.75-19.79,15.19-19.89,28.74-.09,11.73,7.24,22.14,19.08,26.7,3.81,1.47,7.31,3.2,9.99,6.33,8.27,9.64,6.53,22.67-4.34,29.2-15.84,9.52-31.92,18.64-47.9,27.93-3.45,2.01-6.82,4.2-10.41,5.94-3.48,1.68-3.96,3.37-1.87,6.79,5.81,9.52,11.25,19.26,16.76,28.95,.96,1.69,2.46,3.19,2.37,5.37h-4c-6.62-11.73-13.04-23.58-19.98-35.11-2.45-4.07-1.65-5.65,2.22-7.84,19.69-11.17,39.19-22.69,58.82-33.96,5.95-3.41,10.2-8.04,9.51-15.09-.72-7.32-5-12.25-12.25-14.86-14.21-5.12-22.27-17.11-21.64-31.3,.71-16.07,9.66-28.13,23.79-32.06,23.33-6.49,45.83,13.22,41.72,37.01-2.27,13.17,6.85,22.04,15.5,21.28,3.61-.32,6.69-1.86,9.72-3.61,19.74-11.42,39.51-22.8,59.16-34.38,3.1-1.83,4.49-1.87,6.41,1.55,10.78,19.14,21.85,38.11,32.79,57.17,1.07,1.87,2.14,3.8,2.77,5.84,2.21,7.15-3.1,13.09-10.43,11.82-21.67-3.74-42.1,9.02-47.26,30.3-3.84,15.83,1.64,29.12,13.37,40.03,1.21,1.13,2.53,2.15,3.8,3.23h-6Z"/>
      <path class="cls-2" d="M1594,1c1.45,5.78,4.7,10.91,5.4,17.02,1.98,17.17-4.11,30.75-17.89,40.76-9.93,7.21-21.1,10.39-33.49,8.28-2.2-.37-4.67-1.16-6.34,1.41-1.64,2.52-1.46,5.09-.05,7.56,11.09,19.36,22.26,38.68,33.3,58.07,1.71,3,3.32,1.65,5.26,.52,18.86-10.98,37.82-21.79,56.57-32.95,7.37-4.39,14.63-5.89,21.92-.75,7.31,5.15,9.96,12.39,8.54,21.38-1.93,12.18,1.41,22.64,12.13,29.56,10.53,6.8,21.69,7.54,32.48,.67,9.48-6.04,13.59-15.28,13.27-26.38-.31-10.64-5.01-18.83-14.55-23.9-2.49-1.32-5.24-2.15-7.77-3.41-7.19-3.56-11.15-9.55-11.59-17.42-.42-7.65,3.23-13.2,9.99-17.07,19.51-11.18,38.84-22.67,58.36-33.83,3.09-1.76,3.42-3.08,1.65-6.06-4.58-7.71-8.82-15.62-13.2-23.45,1.33,0,2.67,0,4,0,4.76,8.22,9.37,16.52,14.34,24.6,1.94,3.15,1.61,4.6-1.69,6.48-20.53,11.73-40.87,23.78-61.39,35.53-5.49,3.14-8.57,7.45-8.11,13.72,.49,6.64,3.78,11.7,10.14,14.22,4.68,1.85,9.22,3.85,12.99,7.26,12.05,10.89,14.31,28.21,5.58,42.77-7.91,13.19-24.55,18.85-39.24,13.36-15.71-5.87-24.17-20.46-21.37-36.87,2.09-12.24-6.15-21.92-17.2-20.29-2.23,.33-4.07,1.35-5.95,2.44-20.44,11.89-40.94,23.68-61.28,35.73-3.21,1.9-4.39,1.16-6.03-1.72-11.1-19.55-22.36-39.02-33.52-58.54-.98-1.71-1.86-3.58-2.31-5.49-1.54-6.54,2.67-11.6,9.32-11.28,4.47,.22,8.87,1.4,13.42,.67,29.45-4.72,45.68-33.96,30.45-60.39-.41-.71-.76-1.47-1.14-2.2,1.67,0,3.33,0,5,0Z"/>
      <path class="cls-2" d="M170,1c2.09,13.14-9.27,23.83-22.83,21.47-17.66-3.07-32.18,6.91-35.67,24.52-2.8,14.15,6.03,29.4,19.57,33.78,15.12,4.89,30.74-1.48,37.2-15.2,1.9-4.04,3.03-8.44,6.32-11.8,5.87-5.99,16.56-7.51,23.53-3.11,1.77,1.12,2.58,2.99,3.58,4.72,12.07,20.92,24.19,41.81,36.2,62.76,1.43,2.49,2.36,3.84,5.57,1.94,18.93-11.18,37.99-22.14,57.02-33.15,2.21-1.28,4.51-2.56,5.03-5.22,.8-4.12-1.32-6.34-5.16-7.81-19.73-7.54-30.29-24.47-28.35-45.46,1.01-10.95,6.59-19.71,14-27.46h7c-12.48,8.72-18.69,20.73-17.2,35.87,1.63,16.55,10.62,27.97,26.42,33.67,4.15,1.5,6.88,4.07,7.27,8.55,.38,4.4-1.54,7.69-5.37,9.9-20.87,12.08-41.76,24.14-62.58,36.32-2.51,1.47-3.47,.96-4.84-1.45-12.21-21.39-24.75-42.59-36.77-64.08-3.09-5.53-7.09-8.4-13.06-7.69-6.33,.75-11.02,4.14-13.24,10.55-4.17,12.04-12.36,19.9-24.87,22.89-13.13,3.14-27.62-2.57-35.57-13.85-7.75-11-8.08-26.41-.82-37.7,7.85-12.21,21-18.38,34.67-15.35,9.05,2.01,21.29-4.62,18.96-17.64h4Z"/>
      <path class="cls-2" d="M843,731c2.25-13.35,14.9-21.21,26.63-18.48,11.75,2.72,22.9-2.93,28.96-13.1,6.37-10.7,5.88-24.25-1.21-33.41-7.36-9.52-20.53-13.7-32.32-10.3-9.43,2.72-15.21,9.25-18.5,18.13-4.69,12.67-16.55,17.9-28.86,12.71-2.67-1.13-4.27-2.89-5.65-5.29-11.33-19.8-22.83-39.5-34.01-59.37-2.23-3.96-3.81-5.02-8.15-2.41-17.98,10.81-36.2,21.21-54.35,31.74-2.58,1.49-4.61,3.24-4.54,6.57,.06,3.07,2.5,3.84,4.63,4.51,25.21,7.96,39.64,42.66,21.03,67.39-.29,.39-.45,.88-.66,1.33h-5c9.77-12.17,13.19-25.65,7.64-40.58-4.32-11.62-12.19-20.09-24.09-24.41-3.7-1.34-7.31-2.86-7.47-7.6-.16-4.59,1.99-7.76,6.01-10.08,19.9-11.46,39.73-23.03,59.54-34.63,2.42-1.41,3.93-2.2,5.8,1.12,11.69,20.73,23.78,41.23,35.39,62,3.06,5.48,7.32,8.14,13.16,8.02,6.4-.13,11.43-3.2,14.53-9,.55-1.02,.94-2.13,1.35-3.22,5.55-14.55,16.9-22.38,31.72-21.86,14.73,.51,26.72,9.34,30.8,22.66,4.24,13.86-.79,29.59-12.41,37.81-6.94,4.91-14.86,6.59-23.27,5.37-12.52-1.82-18.94,2.18-22.72,14.39h-4Z"/>
      <path class="cls-9" d="M1837,1c-14.3,8.47-28.6,16.94-42.9,25.41-1.29,.76-2.56,1.56-3.85,2.31-7.97,4.68-8.02,4.7-3.54,12.51,9.6,16.75,19.24,33.48,28.88,50.21,.99,1.72,1.88,3.5,3.82,4.47,3.84,1.93,5.96,.93,7.74-3.89,5.49-14.92,16.28-24.01,31.33-28.21,19.08-5.32,40.08,5.57,47.82,20.96,10.05,20,7.1,41.07-10.13,55.27-10.26,8.45-22.25,11.7-35.49,9.7-2.57-.39-4.97-.9-6.65,1.77-1.65,2.62-.98,5.1,.41,7.53,8.77,15.31,17.54,30.61,26.32,45.91,2.07,3.61,4.3,7.13,6.2,10.83,1.31,2.55,2.49,3.43,5.3,1.69,7.49-4.65,15.16-9,22.76-13.48v5c-8.2,3.72-15.65,8.78-23.43,13.24-2.9,1.66-4.41,1.66-6.21-1.53-11.29-20.02-22.78-39.93-34.24-59.85-2.25-3.91-2.84-7.75-.25-11.74,2.52-3.88,6.11-3.81,10.14-3.26,21.1,2.87,39.44-8.06,45.68-27.89,3.42-10.88,1.87-21.34-4.11-31.6-6.58-11.29-15.78-17.64-28.39-19.58-17.84-2.74-36.57,8.29-43.02,25.46-1.52,4.06-3.01,8.13-8.02,8.41-5,.29-8.24-2.61-10.66-6.87-11.12-19.54-22.28-39.05-33.65-58.44-1.85-3.16-.68-4.2,1.83-5.64,15.02-8.61,30-17.3,44.96-26.02,1.23-.71,2.89-.99,3.37-2.68,2.67,0,5.33,0,8,0Z"/>
      <path class="cls-2" d="M254,731c6.37-7.75,15.14-11.09,24.57-12.88,4.74-.9,9.64-.6,14.45,.03,2.14,.28,4.26,1.08,5.83-1.29,1.69-2.56,1.32-5-.13-7.49-4.09-7.05-8.16-14.13-12.23-21.19-6.9-11.97-13.88-23.9-20.64-35.94-1.47-2.61-2.57-3.1-5.28-1.5-18.78,11.09-37.75,21.86-56.48,33.05-7.39,4.42-14.77,5.7-22.02,.89-7.62-5.06-10.33-12.67-8.92-21.78,2.26-14.67-3.83-26.34-16.49-31.86-15.99-6.98-32.06-.69-38.88,15.22-6.63,15.46,.3,32.19,16.17,38.68,4.2,1.72,8.24,3.32,11.04,7.25,7.8,10.95,5.62,22.27-5.83,29.43-5.04,3.16-10.65,5.39-15.17,9.38h-8c6.08-4.97,13.25-8.17,19.95-12.13,6.07-3.58,10.54-8.15,9.68-15.48-.86-7.31-5.18-12.12-12.49-14.67-13.6-4.74-22.26-17.63-21.56-31.03,.87-16.58,9.88-28.56,24.25-32.24,14.04-3.59,30.22,2.55,37.41,14.78,3.67,6.25,5.24,13.28,4.1,20.67-.85,5.52-1.15,10.9,2.23,15.88,4.93,7.25,12.74,9.2,20.52,4.72,15.15-8.73,30.22-17.6,45.32-26.4,5.32-3.1,10.74-6.06,15.95-9.34,2.84-1.79,4.27-1.68,6.08,1.52,11.49,20.28,23.22,40.43,34.88,60.62,2.08,3.6,2.28,7.15,0,10.83-2.23,3.61-5.55,4.03-9.17,3.38-12.78-2.31-24.03,1.1-34.15,8.89h-5Z"/>
      <path class="cls-2" d="M1915,471c-6.53-5.71-9.13-12.67-7.49-21.37,2.38-12.61-3.07-24-13.91-29.98-11.69-6.44-25.11-5.19-34.41,3.21-16.05,14.49-11.57,40.93,8.43,49.12,4.71,1.93,9.11,4.01,12.05,8.38,7.44,11.05,3.97,22.58-9.34,30.36-18.39,10.75-36.78,21.51-55.32,32.01-3.31,1.88-3.57,3.13-1.69,6.34,10.77,18.37,21.29,36.89,31.89,55.36,.33,.58,.64,1.18,1.02,1.72,1.55,2.2,3.57,3.38,6.37,3.11,2.62-.26,2.86-2.41,3.61-4.21,8-19.38,25.4-30.84,45.16-29.89,4.73,.23,9.02,2.2,13.63,2.86v5c-17.65-8.94-40.92-1.82-51.26,15.77-1.6,2.72-2.95,5.6-4.17,8.51-2.78,6.6-9.52,8.07-14.74,3.14-2.61-2.47-3.94-5.75-5.68-8.76-10.49-18.15-20.82-36.4-31.44-54.48-1.86-3.16-.71-4.14,1.82-5.6,19.62-11.29,39.16-22.7,58.76-34.03,2.49-1.44,4.66-3.17,6.53-5.33,8.29-9.55,5.47-20.94-6.35-25.62-22.35-8.83-29.68-31.87-16.34-51.34,8.6-12.55,24.58-16.97,39.53-10.93,14.23,5.75,22.63,20.51,19.81,35.35-1.09,5.76-.53,10.88,3.54,15.32v6Z"/>
      <path class="cls-2" d="M1233,1c9.34,16.51,18.74,32.98,27.96,49.56,1.74,3.12,3.24,2.16,5.5,.84,18.69-10.91,37.54-21.54,56.1-32.65,7.29-4.36,14.5-6.6,21.87-1.5,7.77,5.37,10.69,12.97,8.92,22.64-2.99,16.41,8.08,31.11,24.91,33.8,15.68,2.51,30.65-8.87,32.84-24.97,2.05-15.05-4.72-26.53-19.27-32.15-7.39-2.86-12.38-7.57-13.83-15.57h4c1.5,6.49,5.82,10,11.91,12.21,14.27,5.19,21.91,17.08,21.34,32.59-.51,14.13-10.05,26.79-23.14,30.6-22.37,6.52-47.44-11.28-42.47-37.86,1.39-7.45-.98-13.5-7.13-17.88-5.88-4.19-11.5-2.52-17.22,.84-19.81,11.64-39.76,23.02-59.53,34.72-3.6,2.13-5.18,1.69-7.22-1.95-10.03-17.84-20.33-35.53-30.54-53.27,1.67,0,3.33,0,5,0Z"/>
      <path class="cls-2" d="M1635,731c-10.44-18.35-20.85-36.7-31.32-55.03-4.13-7.23-4.19-7.2-11.27-3.09-16.83,9.76-33.66,19.51-50.49,29.27-1.15,.67-2.29,1.36-3.42,2.06-2.25,1.39-2.87,3.52-2.72,6.01,.14,2.49,1.96,3.13,3.9,3.9,8.77,3.5,16.77,8.03,21.32,16.88h-4c-4.62-5.94-10.54-10.14-17.55-12.77-3.68-1.38-7.23-2.61-7.62-7.42-.42-5.17,1.99-8.39,6.32-10.87,15.47-8.85,30.85-17.85,46.27-26.79,4.61-2.67,9.26-5.28,13.81-8.05,1.74-1.06,2.96-1.22,4.07,.75,12.24,21.56,24.51,43.1,36.76,64.66,.07,.11-.04,.32-.06,.49h-4Z"/>
      <path class="cls-6" d="M343,1c6.46,7.28,11.74,15.17,13.35,25.07,.81,4.97,1,9.9-.04,14.84-.67,3.16-.39,6.04,2.48,8,2.67,1.81,5.32,1.17,7.96-.36,19.37-11.29,38.72-22.61,58.17-33.75,2.88-1.65,2.62-3.06,1.23-5.45-1.56-2.67-3.77-5.07-4.14-8.34,1.33,0,2.67,0,4,0,1.91,3.49,3.72,7.04,5.77,10.44,1.22,2.03,.88,3.14-1.17,4.32-21.05,12.12-42.06,24.33-63.09,36.47-3.78,2.18-7.63,2.38-11.23-.37-3.31-2.53-4.75-5.96-3.99-10.11,2.85-15.62-1.77-28.55-13.81-38.87-.6-.51-.99-1.25-1.48-1.89,2,0,4,0,6,0Z"/>
      <path class="cls-10" d="M1,153c6.01-2.45,12.07-2.03,18.47-1.52,15.66,1.25,28.34-9.67,30.46-25.34,1.67-12.33-2.54-22.51-13.53-28.8-11.17-6.39-22.48-6.19-33.23,1.53-.66,.47-1.45,.76-2.17,1.14v-5c10.65-6.12,21.61-7.98,33.37-3.09,15.09,6.27,22.82,21.96,18.73,38.58-3.93,15.96-18.49,26.6-34.46,24.71-6.27-.74-12.21-1.02-17.64,2.8v-5Z"/>
      <path class="cls-10" d="M666,731c-4.97-8.7-9.51-17.55-9.02-28.01,.1-2.15,.32-4.3,.6-6.44,.32-2.46,1.22-5.08-1.36-6.84-2.71-1.86-5.36-.91-7.93,.59-6.75,3.93-13.53,7.81-20.28,11.74-11.06,6.43-22.11,12.88-33.15,19.34-6.14,3.6-6.12,3.62-2.85,9.61h-5c.24-2.96-4.09-5.18-2.47-7.53,1.63-2.37,5.09-3.52,7.81-5.1,18.11-10.52,36.27-20.97,54.35-31.54,3.92-2.29,7.79-3.03,11.71-.51,4.02,2.59,3.78,6.49,3.04,10.68-1.92,10.88,.8,20.76,6.95,29.81,.92,1.36,1.74,2.79,2.61,4.19h-5Z"/>
      <path class="cls-10" d="M518,1c2.64,17.66,14.96,31.27,31.34,34.63,16.55,3.39,33.99-4.52,42.94-19.61,2.73-4.61,4.62-9.55,4.73-15.02h4c-1.71,19.22-16.75,35.05-36.76,38.69-18.25,3.32-37.19-6.56-45.47-23.56-2.36-4.84-4.09-9.8-4.77-15.13h4Z"/>
      <path class="cls-3" d="M1915,661c-8.72,3.08-17.52,5.2-26.86,2.99-1.72-.41-3.85-.53-4.9,1.45-1.12,2.1-.48,4.23,.62,6.18,3.86,6.8,7.66,13.64,11.66,20.35,6.55,10.98,12.25,22.45,19.47,33.04,0,1.67-.06,3.34,.02,5,.09,1.97-1.39,.59-2.02,1-8-14.17-16-28.35-24.02-42.52-2.79-4.92-5.67-9.79-8.44-14.73-1.97-3.51-2.83-7.22-.47-10.85,2.43-3.75,6.26-3.33,9.92-2.67,8.87,1.6,17.19,.25,25.01-4.22v5Z"/>
      <path class="cls-10" d="M1105,731c-4.73-10.42-11.29-19.83-16.66-29.89-.72-1.36-1.61-1.92-3.19-.96-17.29,10.45-35.24,19.78-52.15,30.86h-8c14.46-9.43,29.75-17.46,44.58-26.27,5.28-3.14,10.75-5.98,15.93-9.28,2.56-1.63,3.58-.99,4.93,1.4,6.43,11.43,13.03,22.77,19.57,34.15h-5Z"/>
      <path class="cls-3" d="M494,731c-3.21-14.85-16.85-26.61-33.28-28.67-14.82-1.87-31.2,7.07-38.3,20.97-1.28,2.5-2.29,5.13-3.42,7.7h-4c4.22-12.67,11.63-22.6,23.93-28.58,23.73-11.54,54.17,3.12,59.07,28.58h-4Z"/>
      <path class="cls-10" d="M1,259c8.47-4.97,16.93-9.96,25.41-14.91,1.84-1.07,3.34-1.91,1.78-4.55-9.14-15.47-18.14-31.02-27.19-46.54,0-2.33,0-4.67,0-7,5.18,6.08,8.34,13.41,12.37,20.18,6.62,11.11,12.88,22.44,19.49,33.55,1.75,2.94,1.49,4.39-1.6,6.09-10.17,5.57-20.19,11.43-30.26,17.18,0-1.33,0-2.67,0-4Z"/>
      <path class="cls-10" d="M1727,731c-.77-11.42-10.42-21.71-22.45-23.92-15.64-2.88-27.82,4-33.46,18.88-.65,1.7-1.39,3.36-2.09,5.05h-4c2.72-8.27,5.92-16.31,13.18-21.77,10.38-7.81,21.88-8.82,33.52-3.83,11.04,4.73,18.55,12.79,19.3,25.6h-4Z"/>
      <path class="cls-7" d="M1764,1c3.34,5.95,6.72,11.87,9.99,17.86,.98,1.8,1.94,2.46,3.89,1.25,10.61-6.53,21.8-12.08,32.12-19.11,2.67,0,5.33,0,8,0-13.72,8.04-27.45,16.07-41.15,24.13-1.6,.94-2.97,1.52-4.07-.64-4.06-7.94-9.33-15.22-12.78-23.5,1.33,0,2.67,0,4,0Z"/>
      <path class="cls-3" d="M1370,731c-3.1-7.92-7.59-15.1-12.42-22.01-2.47-3.52-5.99-3.07-7.25,.81-2.77,8.51-7.93,15.23-14.33,21.2h-6c3.74-3.92,8.36-6.97,11.33-11.66,2.06-3.25,3.75-6.65,5.06-10.28,1.11-3.09,2.82-5.78,6.49-6.17,3.94-.42,6.85,1.56,8.73,4.72,4.59,7.72,8.94,15.59,13.39,23.39h-5Z"/>
      <path class="cls-5" d="M1162,731c12.94-11.5,35.87-11.5,50,0h-8c-11.67-6.91-23.33-5.86-35,0h-7Z"/>
      <path class="cls-4" d="M1499,1c1.85,3.33,3.41,6.86,5.6,9.94,3.33,4.69,7.43,4.04,9.67-1.23,1.24-2.91,2.48-5.81,3.72-8.71,1.67,0,3.33,0,5,0-1.85,3.33-3.95,6.51-5.06,10.23-1.04,3.53-3.03,6.35-7.13,6.67-4.19,.32-7.5-1.49-9.73-4.9-2.54-3.89-4.73-8-7.08-12.01,1.67,0,3.33,0,5,0Z"/>
      <path class="cls-9" d="M855.63,469.55c-14.99,.62-27.06,6.86-34.79,19.83-7.87,13.21-7.66,26.74,.16,40.27,4.99,8.63,11.83,14.66,21.14,18.04,3.52,1.28,6.79,2.85,7.03,7.42,.25,4.71-1.8,7.86-5.8,10.17-20.05,11.57-40.08,23.17-60.02,34.92-2.79,1.64-3.97,1.45-5.63-1.48-11.51-20.27-22.48-40.92-35.2-60.42-7.09-10.87-18.12-12.27-26.81-2.84-1.63,1.77-2.35,3.99-3.21,6.16-4.63,11.66-12.53,19.51-25.36,21.43-14.07,2.11-25.17-3.24-33.56-14.27-7.04-9.25-6.64-25.55,.4-36.89,6.49-10.44,19.3-16.35,31.31-14.34,3.48,.58,6.96,1.1,10.4,.12,10.26-2.92,15.23-15.08,9.94-24.32-11.43-19.93-22.83-39.88-34.46-59.7-1.95-3.33-1.31-4.6,1.84-6.4,19.67-11.23,39.25-22.62,58.79-34.08,4.05-2.37,7.85-2.47,11.7,.05,3.88,2.54,3.51,6.22,2.9,10.24-3.78,25.05,15.48,47.84,39.9,47.4,19.08-.35,35.52-14.49,39.16-33.7,3.53-18.6-6.94-38.15-24.26-45.29-.77-.32-1.56-.58-2.35-.85-3.47-1.21-6.45-2.94-6.8-7.08-.35-4.2,1.97-6.78,5.4-8.76,14.72-8.48,29.41-17.01,44.11-25.53,5.62-3.26,11.36-6.33,16.81-9.84,3.07-1.98,4.31-1.27,6,1.72,11.08,19.57,22.44,38.97,33.54,58.52,3.47,6.12,8,10.62,15.38,9.82,7.38-.79,12.17-5.16,14.75-12.39,5.73-16.02,20.46-24.41,36.75-21.37,15.8,2.95,27,15.79,27.27,31.25,.3,17-10.42,30.96-26.32,34.15-4.28,.86-8.62,.82-12.91-.05-7.15-1.46-12.91,1.05-17.14,6.63-4.36,5.75-3.37,11.76,.1,17.75,11.45,19.74,22.69,39.6,34.25,59.26,2.27,3.85,1.99,5.66-2.04,7.94-18.99,10.73-37.79,21.78-56.66,32.72-1.01,.58-2.04,1.13-3.05,1.7-3.69,2.09-7.32,2.09-10.78-.44-3.4-2.49-3.79-5.94-3.11-9.84,3.64-20.76-8.73-40.56-28.83-46.4-3.26-.94-6.57-.95-9.95-1.23Zm-.65-3.78c26.66-.28,47.91,24.4,43.63,50.69-.46,2.8-1.5,5.71,1.64,7.63,3.03,1.86,5.68,.49,8.38-1.08,18.13-10.57,36.24-21.19,54.49-31.54,3.57-2.02,4.13-3.57,2.01-7.18-11.05-18.8-21.84-37.76-32.73-56.66-4.03-7-5.34-14.25-.33-21.13,5.29-7.27,12.51-10.42,21.8-8.86,9.46,1.59,18.25-.19,25.35-7.31,8.62-8.64,11.42-22.41,6.78-33.3-4.51-10.57-16.6-18.23-27.95-17.69-12.82,.6-22.17,7.54-26.53,19.93-3.01,8.56-9.03,13.59-17.88,14.56-8.64,.94-14.4-3.73-18.54-10.99-10.56-18.51-21.35-36.89-31.79-55.46-1.98-3.53-3.3-4.29-7.02-2.08-18.45,10.99-37.09,21.68-55.68,32.45-2.35,1.36-4.88,2.67-4.53,5.91,.31,2.9,3.03,3.23,5.14,4.06,12.35,4.83,20.77,13.61,25.62,25.81,6.93,17.45,2.28,37.45-11.29,49.41-14.81,13.04-34.67,15.36-51.51,6.01-14.64-8.14-24.33-28.23-21.69-45.15,.43-2.77,1.69-5.57-1.55-7.59-2.91-1.82-5.34-.59-7.89,.9-17.97,10.52-35.88,21.13-54.01,31.37-4.04,2.28-3.98,4.03-1.86,7.65,11.06,18.81,21.88,37.76,32.75,56.68,1.15,1.99,2.72,3.91,2.45,6.42-1.65,15.19-9.88,25.36-26.82,22.25-11.19-2.05-22.49,3.26-28.62,13.18-6.41,10.36-6.13,23.98,.89,32.9,7.69,9.79,17.91,13.48,30.07,11.46,11.23-1.87,17.64-9.37,21.32-19.53,3.15-8.7,9.82-13.76,18.37-13.84,7.37-.07,14.58,3.43,18.7,10.5,11.07,19,21.99,38.08,32.97,57.13,1.04,1.81,1.52,4.12,4.68,2.26,19.11-11.22,38.31-22.27,57.45-33.41,2.39-1.39,4.14-3.23,4.04-6.37-.11-3.43-2.9-3.78-5.1-4.63-9.85-3.8-17.22-10.15-22.54-19.43-16.96-29.58,3.29-65.56,37.33-65.91Z"/>
      <path class="cls-9" d="M1624.07,539.1c-.25-21.44-13.3-37.34-31.12-40.89-18.2-3.62-36.81,6.46-43.8,23.73-.19,.46-.34,.94-.49,1.42-1.46,4.35-3.81,7.99-8.8,8.45-5.25,.49-8.75-2.33-11.27-6.76-6.57-11.59-13.21-23.14-19.85-34.69-4.81-8.37-9.58-16.77-14.55-25.06-1.66-2.76-1.34-4.2,1.55-5.86,19.64-11.28,39.18-22.73,58.75-34.13,1.58-.92,3.14-1.9,4.74-2.77,5.59-3.04,8.91-7.18,7.88-14.07-.96-6.46-4.41-10.59-10.42-12.77-11.99-4.35-19.82-12.49-22.79-25.05-3.16-13.39,2.5-27.9,13.99-35.99,10.92-7.69,26.31-7.68,38.14,0,11,7.15,16.96,21.23,14.54,34.35-2.04,11.04,4.02,18.92,14.53,19.09,3.03,.05,5.46-1.26,7.91-2.68,19.74-11.44,39.53-22.8,59.18-34.4,3.41-2.01,5.07-2.2,7.24,1.66,11.01,19.6,22.33,39.03,33.54,58.51,2.09,3.63,4.52,7.22,1.63,11.55-3.09,4.65-7.64,4.76-12.47,4-16.4-2.57-32.45,5.29-40.39,19.76-8.17,14.9-6.49,33.57,4.12,45.84,11.17,12.93,27.88,17.14,44,10.69,10.56-4.22,17.99-11.87,21.96-22.58,1.67-4.51,3.78-8.17,9.12-8.63,5.44-.47,8.46,2.54,10.98,6.98,11.34,19.99,22.78,39.93,34.38,59.77,1.98,3.38,1.62,4.84-1.86,6.82-19.98,11.37-39.72,23.13-59.7,34.49-5.86,3.33-10.08,7.54-9.45,14.48,.64,7.07,4.85,11.46,11.78,13.94,15.72,5.63,24.14,20.42,21.86,37.32-2.12,15.74-15.48,27.82-32.2,29.12-14.69,1.14-29.51-9.01-34.13-23.39-1.81-5.65-2.3-11.43-1.09-17.25,1.41-6.79-.73-12.34-6.19-16.24-5.28-3.77-10.73-3.06-16.33,.23-20.24,11.91-40.66,23.51-60.89,35.42-3.45,2.03-4.97,1.44-6.88-1.94-11.14-19.72-22.5-39.32-33.78-58.96-.5-.87-.95-1.76-1.42-2.64-3.4-6.34,.37-16.74,10.4-15.18,8.97,1.39,17.62,.87,25.76-3.36,14.3-7.43,21.48-19.34,21.87-32.38Zm38.71-72.23c-.12-9.82,2.57-18.88,8.54-26.6,10.35-13.37,23.94-19.63,41.06-17.43,3.03,.39,6.4,1.43,8.71-1.88,2.31-3.31-.33-5.68-1.73-8.15-10.47-18.37-21.13-36.64-31.46-55.09-1.89-3.38-3.25-3.49-6.37-1.65-18.79,11.08-37.73,21.91-56.57,32.91-6.83,3.99-13.83,4.32-20.28,0-6.93-4.63-9.75-11.48-8.05-19.98,.85-4.26,.87-8.61-.22-12.89-3.83-15-16-23.88-31.81-23.24-13.41,.54-25.11,11.45-27.4,25.52-2.32,14.3,5.73,28.3,19.69,33.28,8.04,2.87,12.84,7.95,14.06,16.39,1.33,9.21-3.69,14.54-11.04,18.76-19.49,11.19-38.86,22.6-58.37,33.75-3.04,1.74-4.06,2.93-1.99,6.36,6.54,10.83,12.7,21.88,19.02,32.85,4.65,8.08,9.29,16.17,13.99,24.22,1.52,2.6,3.68,4.27,6.94,3.98,3.25-.29,4.27-2.8,5.33-5.27,.33-.76,.54-1.57,.84-2.34,8.39-21.13,32.83-31.89,54.62-24.05,20.42,7.35,32.25,31.15,25.92,52.15-6.44,21.39-26.34,33.59-49.38,30.14-2.72-.41-5.03-.23-6.76,1.96-1.83,2.32-1.66,4.95-.55,7.55,.39,.92,.89,1.79,1.39,2.65,10.7,18.62,21.48,37.2,32.03,55.9,1.85,3.28,3.31,3.56,6.49,1.69,19.5-11.5,39.14-22.77,58.7-34.16,2.2-1.28,4.43-2.21,6.99-2.43,12.93-1.14,22.44,9.16,20.25,22-2.93,17.23,6.35,32.43,22.14,36.25,16.47,3.99,32-5.15,36.87-21.69,4.55-15.44-3.8-31-19.91-36.95-8.05-2.97-12.55-8.83-13.04-17.21-.44-7.46,3.34-12.91,9.85-16.66,19.48-11.21,38.86-22.59,58.37-33.74,2.95-1.69,3.54-2.99,1.74-6.06-11.11-18.97-22.06-38.03-32.96-57.12-1.69-2.96-3.49-5.18-7.3-4.9-3.87,.29-4.53,3.25-5.64,6.07-7.62,19.3-27.88,31.17-46.96,27.6-21.25-3.97-35.42-20.84-35.75-42.52Z"/>
      <path class="cls-9" d="M999.19,369c.02-19.22-13.92-36-32.99-39.7-17.56-3.41-37.1,7.44-44.18,24.52-.76,1.84-1.34,3.8-2.38,5.47-3.63,5.86-11.55,5.07-15.45-1.63-8.47-14.53-16.81-29.14-25.2-43.72-3.32-5.77-6.53-11.62-10-17.3-1.5-2.45-1.08-3.65,1.38-5.07,20.07-11.53,40.07-23.18,60.08-34.8,4-2.32,7.84-2.29,11.71,.37,4.38,3.02,3.19,7.32,2.66,11.37-2.56,19.44,8.4,37.52,26.82,44.09,15.2,5.42,32.93-.12,44.27-13.84,9.86-11.92,10.88-29.8,3.06-43.57-5.09-8.96-12.03-15.33-21.71-18.76-3.6-1.27-6.83-3.02-7.1-7.41-.3-4.86,2.17-8.2,6.22-10.55,13.4-7.75,26.81-15.51,40.21-23.26,6.77-3.92,13.62-7.72,20.28-11.82,2.87-1.77,4.18-1.15,5.78,1.66,11.19,19.69,22.52,39.3,33.87,58.9,2.52,4.36,3.54,8.65,.43,13.09-2.95,4.2-7.19,3.4-11.35,2.8-28.76-4.18-52.65,22.94-44.5,50.5,5.08,17.17,20.02,28.84,37.53,29.31,16.01,.43,32.53-10.93,38.36-26.42,1.44-3.83,2.9-7.71,7.78-8.03,4.82-.32,8.14,2.08,10.51,6.22,11.58,20.24,23.14,40.48,34.94,60.58,2.02,3.45-.29,3.89-2.21,5-19.85,11.56-39.67,23.17-59.6,34.61-6.05,3.47-10.7,7.88-10.07,15.27,.66,7.72,5.4,12.35,12.73,15.03,15.25,5.58,22.85,18.85,20.97,35.66-1.6,14.23-13.03,26.18-27.04,28.27-14.95,2.23-30.29-5.67-35.95-18.73-2.7-6.22-3.78-12.77-2.38-19.52,1.53-7.42-.66-13.64-6.58-18.11-6.05-4.57-12.17-2.72-18.17,.79-19.69,11.53-39.47,22.9-59.12,34.49-3,1.77-4.42,1.99-6.39-1.5-11.47-20.29-23.24-40.42-34.9-60.6-2.22-3.84-2.01-7.53,.43-11.27,2.63-4.01,6.32-3.57,10.22-2.9,24.43,4.18,47.01-14.8,47.04-39.51Zm28.88-94.61c.07,18.96-11.45,35.1-29.61,41.47-31.43,11.02-62.08-15.11-57.34-48.92,.36-2.54,1.07-4.99-1.53-6.74-2.68-1.8-5.21-1.33-7.92,.26-18.68,10.95-37.4,21.84-56.15,32.68-2.06,1.19-2.91,2.05-1.44,4.57,11.16,19.14,22.14,38.38,33.18,57.58,1.32,2.29,3.06,3.94,5.97,3.77,3.01-.18,3.67-2.63,4.41-4.77,2.25-6.44,6.05-11.8,10.86-16.56,14.71-14.55,37.53-16.97,54.66-5.73,17.31,11.36,24.48,34.07,16.85,53.34-7.41,18.7-28.19,30.43-48.01,27.09-2.65-.45-5.42-1.22-7.2,1.66-1.59,2.57-.82,5.05,.61,7.51,10.69,18.44,21.46,36.84,31.89,55.43,2.15,3.83,3.66,4.39,7.5,2.11,18.75-11.15,37.69-22,56.57-32.94,10.71-6.2,20.97-3.3,27.13,7.4,2.76,4.79,2.86,9.8,2.07,14.99-2.16,14.26,4.57,26.19,17.85,31.63,12.52,5.13,26.31,1.29,34.29-9.56,8.21-11.16,7.85-26.75-.99-37.03-3.79-4.4-8.8-6.97-14.2-8.98-9.58-3.56-14.96-13.68-12.52-23.27,1.56-6.12,5.97-9.8,11.16-12.8,18.6-10.76,37.12-21.67,55.83-32.23,3.93-2.22,4.21-3.94,1.93-7.61-5.18-8.35-9.92-16.97-14.82-25.48-5.82-10.1-11.63-20.21-17.45-30.31-1.43-2.49-3.42-4.11-6.46-3.84-2.93,.26-3.56,2.67-4.28,4.87-1.26,3.84-3.33,7.24-5.6,10.55-11.53,16.82-34.44,23.4-53.33,15.29-18.46-7.93-29.4-29.8-25.49-49.41,4.02-20.13,25.41-38.09,50.16-34.45,2.55,.37,5.39,1.25,7.32-1.56,2.06-3.01,.69-5.73-.83-8.39-10.77-18.78-21.58-37.54-32.3-56.36-1.37-2.4-2.65-2.87-5.11-1.43-19.1,11.22-38.25,22.35-57.4,33.48-2.66,1.54-4.44,3.65-4.22,6.8,.22,3.12,3,3.65,5.31,4.54,16.99,6.55,28.58,23.26,28.65,41.35Z"/>
      <path class="cls-8" d="M1359.74,384c.14-21.7,18.01-36.62,39.44-32.76,7.04,1.27,12.83-1.12,16.64-6.53,3.91-5.56,5.19-11.98,1.32-18.64-11.56-19.85-22.88-39.84-34.45-59.68-1.88-3.22-1.91-4.78,1.7-6.83,19.98-11.36,39.79-23.01,59.64-34.58,3.99-2.32,7.9-2.35,11.74,.23,3.63,2.44,3.64,6.02,3.02,9.82-3.81,23.38,10.88,44.24,34.18,47.34,15.49,2.06,28.2-4.36,37.37-16.65,9.23-12.36,10.28-26.05,3.55-40.06-4.9-10.2-12.47-17.53-23.41-21.17-3.47-1.15-6.19-3.23-6.57-7.34-.44-4.77,1.95-7.99,5.75-10.26,7.86-4.68,15.82-9.22,23.74-13.81,12.24-7.09,24.54-14.09,36.68-21.35,2.7-1.62,3.7-1.28,5.23,1.41,11.76,20.7,23.8,41.25,35.54,61.97,3.23,5.7,7.76,8.78,14.16,8.22,6.38-.56,11.27-3.84,13.81-9.98,1.66-4,3.12-8.07,5.87-11.53,11.21-14.11,30.55-16.92,45.61-6.6,14.01,9.6,17.95,28.54,9.17,44.02-6.92,12.2-19.21,18.14-33.25,16.07-4.49-.66-8.83-.98-13.07,1.53-8.5,5.04-10.78,13.05-5.85,21.65,11.78,20.5,23.48,41.05,35.44,61.45,1.86,3.18,1.23,4.35-1.66,6.01-19.63,11.28-39.18,22.69-58.72,34.14-4.36,2.56-8.76,3.48-13.12,.47-4.12-2.84-3.48-7-2.71-11.3,2.73-15.25-5.63-32.55-19.49-40.82-13.62-8.13-31.01-6.9-44.11,3.12-24.29,18.57-19.99,55.65,7.94,68.3,1.36,.62,2.78,1.11,4.17,1.69,7.06,2.94,8.5,10.57,2.54,15.5-3.55,2.94-7.78,5.08-11.8,7.42-16.69,9.72-33.46,19.29-50.07,29.14-3.27,1.94-4.65,1.42-6.47-1.79-11.48-20.28-23.24-40.4-34.74-60.67-3.71-6.54-9.61-8.53-16.34-8.16-6.44,.35-11.28,3.86-13.66,10.07-1.86,4.85-3.93,9.56-7.48,13.44-9.36,10.26-23.33,13.35-36.59,8.12-13.14-5.19-20.81-16.51-20.72-30.58Zm182.26-139.07c-.67,15.78-9.15,29.09-25.33,37.03-15.72,7.71-31.24,6.6-45.05-4.37-13.15-10.45-19.16-24.37-16.92-41.41,.36-2.74,1.52-5.77-1.31-7.87-3.09-2.3-5.89-.75-8.75,.93-18.26,10.66-36.52,21.33-54.92,31.76-3.42,1.94-3.84,3.4-1.86,6.79,10.96,18.67,21.57,37.55,32.52,56.23,4.53,7.72,3.56,15.22-.87,22.09-4.93,7.66-12.5,10.26-21.67,8.91-13.92-2.04-23.99,2.8-30.41,14.06-6.97,12.22-4.59,27.91,5.53,36.5,11.25,9.54,27.38,10.1,38.17,1.3,4.82-3.93,7.35-9.27,9.6-14.93,3.08-7.76,8.97-12.59,17.38-12.91,8.13-.31,15.16,2.05,19.62,10.03,10.82,19.33,22.12,38.38,33,57.68,1.9,3.37,3.36,3.53,6.48,1.67,12.72-7.61,25.58-14.98,38.4-22.43,5.91-3.43,11.85-6.79,17.73-10.26,2.43-1.43,3.96-3.45,3.79-6.52-.15-2.77-2.26-3.42-4.22-4.32-2.72-1.25-5.6-2.24-8.12-3.81-29.49-18.41-28.75-58.8,1.34-76.09,21.88-12.57,49.37-3.8,60.05,19.02,4.08,8.71,5.69,17.6,3.91,27.16-1.05,5.64,2.44,8.8,7.31,7.04,1.55-.56,2.99-1.45,4.43-2.29,17.84-10.41,35.63-20.9,53.53-31.2,3.27-1.88,3.9-3.37,1.86-6.84-11.14-18.95-21.96-38.09-33-57.1-3.89-6.7-5.16-13.47-.59-20.19,4.87-7.16,11.76-10.59,20.58-9.51,2.31,.28,4.62,.79,6.93,.81,14.78,.12,26.88-10.84,28.77-25.95,1.96-15.62-6.88-28.17-22.71-32.24-14.1-3.63-28.51,3.96-33.59,18.19-3.12,8.73-8.77,14.06-17.91,15.2-9.54,1.19-14.96-4.36-19.3-12.08-10.6-18.87-21.59-37.53-32.24-56.37-1.74-3.09-3.14-3.45-6.05-1.52-4.43,2.94-9.15,5.45-13.76,8.13-14.1,8.22-28.21,16.42-42.31,24.65-2.57,1.5-4.56,3.36-4.19,6.74,.35,3.2,2.96,3.65,5.27,4.51,16.7,6.27,28.37,23.06,28.84,43.75Z"/>
      <path class="cls-9" d="M1378.72,557.04c.27-2.31,.43-4.64,.84-6.93,1.15-6.39-1.03-11.61-5.94-15.47-4.94-3.89-10.64-3.94-15.99-.92-16.52,9.35-32.91,18.92-49.35,28.41-4.62,2.66-9.28,5.25-13.8,8.06-2.1,1.31-3.31,1.41-4.69-1-11.87-20.83-23.88-41.58-35.77-62.41-2.16-3.78-1.95-7.8,.52-11.36,2.65-3.81,6.67-3.92,10.82-3.27,21.94,3.44,41.63-10.2,45.9-31.77,3.77-19.05-7.98-38.71-26.75-44.76-18.39-5.92-39.84,3.61-47.67,21.19-.61,1.37-1.24,2.74-1.71,4.16-1.3,3.96-3.69,6.71-8.04,7.12-4.44,.42-7.74-1.54-9.94-5.35-6.91-11.97-13.8-23.95-20.7-35.93-4.74-8.23-9.38-16.51-14.28-24.64-1.86-3.08-2.04-4.7,1.61-6.78,20.68-11.81,41.15-23.98,61.73-35.96,5.66-3.29,7.97-8.32,7.7-14.55-.27-6.26-3.68-10.55-9.4-12.96-4.45-1.87-8.88-3.64-12.62-6.9-11.54-10.04-15.03-25.69-8.7-39.95,6.24-14.05,20.1-21.43,35.95-19.13,14.23,2.06,25.39,13.59,27.82,28.25,.71,4.26,.07,8.31-.44,12.4-1.22,9.92,5.92,18.86,15.68,19.4,1.67,.09,2.8-.91,4.07-1.65,21.18-12.27,42.41-24.46,63.49-36.91,3.59-2.12,5.08-1.73,7.13,1.92,11.09,19.75,22.38,39.37,33.79,58.94,2.55,4.37,3.87,8.5,.87,13.03-3.03,4.57-7.55,4.08-12.13,3.43-24.05-3.41-45.78,15.43-45.54,39.47,.18,18.24,14.13,35.06,31.89,38.45,18.64,3.55,37.7-7.4,44.72-25.69,2.91-7.58,7.53-9.9,13.73-7,2.09,.98,3.38,2.61,4.48,4.52,11.87,20.64,23.69,41.32,35.69,61.89,1.84,3.16,0,3.97-2.11,5.19-19.46,11.25-38.9,22.53-58.34,33.81-2.88,1.67-5.88,3.19-7.95,5.93-6.61,8.75-2.78,19.77,8.3,23.94,16.53,6.22,25.1,21.35,21.81,38.48-3.42,17.79-18.54,28.95-36.78,27.14-16.94-1.68-29.89-16.42-29.89-33.85Zm13.45-129.97c-26.66,.19-45.44-24.54-42.46-48.55,2.76-22.24,24.19-41.4,49.7-37.61,3.15,.47,6.34,1.02,8.54-2.31,2.11-3.21,.18-5.71-1.3-8.28-10.76-18.79-21.6-37.53-32.25-56.38-1.66-2.93-2.92-3.16-5.76-1.5-20.39,11.97-40.9,23.76-61.35,35.63-2.05,1.19-4.01,2.29-6.54,1.79-13.97-2.73-20.44-12.34-18.42-26.46,1.77-12.32-2.61-22.37-13.16-29.14-10.45-6.69-21.68-7.19-32.08-.5-10.66,6.86-15.35,17.38-13.48,30.11,1.79,12.19,9.18,19.84,20.65,24.06,7.46,2.74,12.25,8.2,12.76,16.32,.51,8.03-2.55,14.53-9.83,18.74-19.19,11.07-38.26,22.33-57.54,33.23-4.07,2.3-4.4,4.17-1.95,7.9,3.47,5.28,6.39,10.92,9.55,16.4,7.48,12.99,14.98,25.96,22.41,38.98,1.59,2.78,3.43,4.96,6.97,4.69,3.56-.27,4.34-3.16,5.36-5.81,.12-.31,.21-.63,.33-.94,6.56-16.61,22.95-27.57,41.02-27.44,17.5,.13,33.25,11.23,39.57,27.89,11.66,30.73-13.98,62.81-46.55,58.32-3.21-.44-6.73-1.51-9.06,2.13-2.26,3.53-.12,6.34,1.53,9.22,10.44,18.2,21,36.34,31.26,54.64,2.18,3.89,3.9,4.13,7.63,1.92,18.9-11.22,37.97-22.14,56.98-33.18,2.92-1.7,5.98-2.92,9.4-3.04,12.34-.43,21.23,10.23,19.15,22.95-2.55,15.61,4.3,28.67,17.93,34.16,13.18,5.31,28.04,.92,35.88-10.61,11.14-16.38,4.21-38.58-14.44-45.31-6.85-2.47-11.39-6.83-13.52-13.54-2.87-9.01,.83-16.83,10.38-22.42,18.83-11.02,37.67-22.02,56.62-32.83,3.24-1.85,3.54-3.2,1.64-6.44-10.87-18.53-21.47-37.21-32.16-55.85-1.52-2.64-2.98-5.32-6.67-5.12-3.8,.2-4.7,3.15-5.78,5.98-6.49,17.03-22.77,28.23-40.96,28.2Z"/>
      <path class="cls-8" d="M1277.48,226.22c16.81,.22,31.7-9.84,38.42-26.09,1.63-3.94,2.96-7.94,8.23-8.11,5.03-.16,7.82,2.79,10.12,6.82,11.06,19.38,22.16,38.74,33.41,58.01,1.58,2.71,1.15,3.9-1.45,5.4-19.92,11.45-39.77,23.02-59.62,34.58-3.8,2.21-7.56,2.53-11.24-.06-3.67-2.6-3.74-6.3-3.02-10.32,3.25-18.26-6.92-36.95-24.06-44.37-15.98-6.92-36.24-1.33-47.04,12.98-11.44,15.14-10.94,34.94,1.14,49.88,4.63,5.72,10.33,9.87,17.25,12.31,3.82,1.34,7.05,3.17,7.39,7.75,.34,4.52-1.9,7.63-5.63,9.8-20.15,11.72-40.36,23.35-60.44,35.2-3.29,1.94-4.26,.33-5.63-2.07-11.25-19.65-22.69-39.19-33.8-58.92-3.64-6.47-8.22-11.17-16.01-10.5-7.71,.65-12.39,5.28-15.13,12.59-5.4,14.44-17.73,22.58-31.89,21.7-15.2-.95-27.32-10.98-30.81-25.51-5.52-22.94,13.94-44.19,37.14-40.54,8.77,1.38,15.58-1.17,19.22-7.36,3.42-5.82,2.36-11.4-.88-17-10.84-18.73-21.56-37.54-32.36-56.3-4.25-7.37-4.32-7.4,3.22-11.8,18.84-10.99,37.74-21.9,56.55-32.94,3.85-2.26,7.46-2.65,11.15,.04,3.48,2.54,3.58,6.08,2.94,9.89-2.77,16.54,2.85,30.01,15.93,39.98,12.53,9.54,26.43,10.32,40.44,3.29,15.23-7.64,23.73-20.22,22.72-37.32-1.03-17.35-10.14-29.96-26.65-36.53-3.77-1.5-6.93-3.13-7.21-7.81-.28-4.65,2.08-7.26,5.91-9.46,19.06-10.96,38.01-22.09,57-33.17q5.62-3.28,8.77,2.16c11.31,19.62,22.57,39.27,33.93,58.86,2.35,4.05,3.32,8.04,.53,12.17-2.81,4.15-6.83,3.88-11.19,3.07-15.07-2.8-31.65,5.02-40.59,18.96-8.12,12.65-7.7,30.33,1.01,42.92,8.21,11.87,18.65,17.64,32.23,17.82Zm.06,3.9c-25.8-.07-45.19-22.62-42.66-49.63,2.19-23.37,27.09-41.93,50.72-37.83,2.6,.45,5.35,1.32,7.24-1.53,1.87-2.81,.8-5.35-.69-7.92-10.97-19.04-21.95-38.08-32.8-57.19-1.7-2.99-3.06-3.36-6.12-1.55-18.34,10.84-36.82,21.46-55.29,32.08-2.48,1.42-4.41,2.9-4.11,6.14,.3,3.25,2.89,3.69,5.2,4.58,16.91,6.51,28.79,23.21,28.74,41.35-.05,17.81-8.58,30.76-24.23,38.94-15.39,8.05-30.71,7.57-44.73-2.78-14.2-10.47-20.59-24.89-18.27-42.73,.36-2.78,1.42-5.75-1.51-7.77-2.8-1.94-5.28-.5-7.83,.99-18.26,10.67-36.5,21.36-54.89,31.8-3.64,2.07-4.48,3.5-2.16,7.42,11,18.65,21.65,37.5,32.4,56.29,2.71,4.74,4.36,9.69,2.94,15.26-2.72,10.68-12.78,16.59-24.92,14.6-21.2-3.48-38.59,16.11-32.85,36.98,3.42,12.44,14.08,20.59,27.75,21.22,12.4,.57,22.85-6.78,27.56-19.8,3.18-8.8,9.3-13.7,18.46-14.41,8.62-.67,14.36,3.87,18.5,11.14,10.88,19.1,21.96,38.09,32.81,57.21,1.6,2.82,2.86,3.28,5.73,1.59,18.64-11.01,37.38-21.86,56.12-32.7,2.6-1.5,4.78-3.09,4.38-6.53-.37-3.14-2.88-3.65-5.25-4.55-20.08-7.62-32.31-29.85-27.75-50.29,5.39-24.17,28.49-39.22,52.73-34.36,21.74,4.36,37.14,27.82,33.43,50.84-.39,2.44-1.01,5.07,1.7,6.75,2.59,1.61,4.99,.97,7.49-.48,18.55-10.84,37.12-21.65,55.75-32.35,2.66-1.53,2.88-2.8,1.33-5.45-10.65-18.27-21.16-36.62-31.62-54.99-1.52-2.67-3.32-4.59-6.56-4.51-3.34,.08-3.62,2.88-4.51,5.16-6.8,17.45-23.72,29.06-42.22,29.02Z"/>
      <path class="cls-8" d="M288.09,519.91c-.11-22.45-13.83-38.71-33.28-42.51-17.62-3.44-36.88,7.59-44.04,25.37-1.59,3.94-2.8,7.98-8.02,8.36-5.51,.4-8.36-2.87-10.85-7.23-11.14-19.53-22.36-39.02-33.75-58.41-1.99-3.39-1.54-4.73,1.9-6.72,61.26-35.45,122.47-71,183.56-106.75,4.26-2.49,5.64-1.46,7.75,2.29,10.88,19.29,21.99,38.45,33.11,57.6,2.46,4.24,4.24,8.43,1.21,13.02-3.02,4.57-7.55,3.17-11.82,2.72-15.55-1.66-28.34,3.93-37.57,16.15-9.28,12.29-11.18,26.19-4.62,40.53,7.09,15.49,19.22,24.51,36.4,24.09,18.16-.45,31.05-9.85,37.74-26.98,1.5-3.84,3.25-7.09,7.8-7.24,4.57-.15,7.93,2.15,10.18,6.05,8.48,14.72,16.94,29.45,25.4,44.17,2.74,4.76,5.28,9.66,8.31,14.24,2.2,3.34,2.04,5.01-1.74,7.15-19.98,11.35-39.74,23.12-59.67,34.55-5.55,3.19-9.34,7.51-8.73,13.93,.64,6.78,4.08,12.3,10.91,14.78,4.92,1.78,9.27,4.33,13.26,7.75,13.3,11.41,12.51,34.44,1.14,46.91-11.44,12.55-32.21,13.94-45.72,2.69-9.72-8.09-13.15-18.45-11.23-30.79,1.86-11.92-5.5-21.45-15.99-20.87-2.98,.17-5.38,1.55-7.84,2.98-20.3,11.81-40.64,23.56-60.88,35.46-2.71,1.59-3.96,1.71-5.7-1.35-11.24-19.86-22.7-39.59-34.11-59.35-1.36-2.35-2.35-4.75-2.25-7.54,.23-6.56,4.5-9.98,11.63-8.72,12.1,2.14,22.77-.93,32.32-8.31,10.16-7.85,15.03-18.35,15.21-28.04Zm79.35-27.4c-2.97-.35-5.99-.44-8.89-1.09-18.62-4.12-31.88-19.44-34.32-39.5-2.05-16.81,8.21-35.19,24.04-43.23,9.03-4.58,18.4-6.39,28.52-4.7,5.79,.97,8.01-2.33,5.67-7.75-.33-.76-.83-1.44-1.25-2.16-10.46-18.19-21.06-36.3-31.25-54.64-2.29-4.13-3.99-4.19-7.77-1.98-35.06,20.51-70.24,40.83-105.38,61.2-23.62,13.7-47.18,27.5-70.91,41-4.14,2.35-4.48,4.31-1.98,8.02,2.78,4.13,5.03,8.63,7.53,12.95,8.17,14.12,16.37,28.23,24.53,42.36,1.42,2.45,3.16,4.29,6.24,4.23,3.34-.06,3.79-2.77,4.63-5.07,3.82-10.48,10.81-18.09,20.5-23.53,19.91-11.18,45.34-5,57.04,14.06,13.33,21.71,8.62,46.54-11.36,59.91-9.93,6.65-20.66,9.8-32.66,7.62-2.27-.41-4.73-.96-6.39,1.43-1.7,2.46-1.35,5.07-.14,7.59,.79,1.65,1.75,3.22,2.66,4.8,9.88,17.17,19.88,34.26,29.56,51.54,2.1,3.75,3.77,3.88,7.25,1.8,18.58-11.1,37.33-21.92,55.98-32.91,7.14-4.21,14.44-5.61,21.52-.47,7.33,5.31,10.47,12.64,8.79,21.82-1.99,10.86,.87,20.3,9.47,27.34,8.74,7.15,18.89,8.99,29.61,5.35,11.23-3.81,18.97-15.6,18.97-27.97,0-12.95-7-22.72-20.03-27.46-8.88-3.23-13.32-9.92-14.11-18.76-.73-8.14,3.93-13.61,10.87-17.57,19.08-10.9,38.04-22.01,57.07-32.98,2.05-1.18,3.44-1.86,1.75-4.76-10.93-18.68-21.63-37.51-32.44-56.26-1.47-2.55-3.47-4.57-6.66-4.59-3.6-.02-3.9,3.14-4.88,5.49-7.52,18.02-23.2,28.81-41.78,28.88Z"/>
      <path class="cls-8" d="M500.93,425.39c.35,19.58,10.8,34.66,26.11,40.53,3.78,1.45,7.68,2.61,8.03,7.68,.38,5.46-2.76,8.72-6.97,11.19-14.94,8.77-29.93,17.45-44.9,26.15-4.9,2.85-9.86,5.57-14.69,8.53-2.09,1.28-3.32,1.36-4.68-1.03-11.79-20.69-23.87-41.22-35.44-62.03-3.19-5.73-7.35-9.31-13.68-9.04-6.51,.28-11.73,3.61-14.56,9.79-1.52,3.32-2.6,6.84-4.61,9.94-9.66,14.93-29.22,19.14-44.94,9.66-15.09-9.09-20.21-28.46-11.68-44.15,7.02-12.9,19.02-18.98,33.75-16.8,6.68,.99,12.59-.08,17.44-5.02,4.65-4.74,5.28-11.84,1.98-17.49-12.36-21.13-24.55-42.36-36.99-63.45-2.06-3.49-.33-4.57,2.26-6.06,26.83-15.5,53.61-31.08,80.41-46.61,35.02-20.29,70.08-40.51,105.04-60.91,3.01-1.76,4.28-1.59,6.02,1.47,11.58,20.43,23.48,40.68,34.96,61.17,3.59,6.4,9.47,8.61,15.66,8.68,6.87,.09,12.26-3.92,14.8-10.73,3.99-10.69,10.41-18.85,21.92-22.08,13.03-3.66,27.87,1.01,35.95,11.44,8.37,10.8,9.07,25.8,1.77,38.04-7.12,11.95-19.34,17.41-33.75,14.96-11.02-1.87-20.18,4.44-21.8,18.32-.21,1.8,1.07,3.12,1.88,4.53,11.79,20.51,23.47,41.07,35.55,61.41,2.64,4.44,1.95,6.12-2.42,8.57-19.02,10.69-37.79,21.81-56.65,32.78-2.74,1.6-5.46,3.17-8.88,2.56-6.09-1.09-8.83-4.72-7.62-11.17,2.6-13.88-1.7-25.63-10.72-35.94-11.16-12.77-31.85-15.59-46.66-7.36-14.15,7.86-21.34,19.46-21.9,32.45Zm-162.06,23.43c-.02,16.06,12.05,28.54,28.14,29.1,13.53,.47,23.51-6.62,28.74-20.32,3.14-8.23,9.17-12.98,17.9-13.79,8.92-.83,14.33,3.8,18.55,11.46,10.68,19.4,21.97,38.46,33,57.67,.93,1.62,1.55,3.18,4.09,1.67,19.46-11.57,38.99-23.03,58.53-34.47,2.45-1.44,3.56-3.45,3.35-6.18-.21-2.7-2.47-3.28-4.5-4.04-10.39-3.89-18.15-10.65-23.7-20.35-11.12-19.41-5.45-44.8,12.43-56.88,23.05-15.56,48.04-7.88,60.37,9.23,7.29,10.12,10.57,21.38,8.48,33.95-.39,2.32-1.35,4.99,1.57,6.71,2.64,1.56,5.09,1.08,7.53-.37,.43-.25,.87-.49,1.31-.74,18.29-10.6,36.53-21.3,54.92-31.73,3.32-1.89,3.52-3.21,1.64-6.42-11.54-19.67-22.84-39.48-34.18-59.26-1.06-1.86-2.42-3.63-2.32-5.96,.71-17.57,14.29-25.15,26.36-22.67,13.47,2.77,25.71-3.94,31.32-16.59,5.62-12.69,2.24-26.96-8.34-35.11-10.99-8.47-26.19-8.51-36.55-.14-4.71,3.8-7.4,8.87-9.49,14.4-3.16,8.33-9.59,13.36-18.12,13.47-7.82,.1-15.03-2.69-19.43-10.62-10.59-19.06-21.77-37.8-32.43-56.82-2.3-4.1-4.04-4.2-7.9-1.93-30.73,18.03-61.59,35.82-92.42,53.68-28.52,16.53-57.04,33.05-85.57,49.56-2.09,1.21-4.09,1.99-2.2,5.21,11.35,19.4,22.21,39.1,33.91,58.29,4.59,7.53,6.03,14.59,1.16,21.85-5.05,7.53-12.57,10.63-21.71,9.04-18.95-3.28-34.41,9.78-34.44,29.12Z"/>
      <path class="cls-9" d="M214.95,249.27c-.09,19.85,13.87,37.28,31.52,40.65,18.86,3.61,38.76-7.04,45.51-24.46,1.58-4.08,2.64-8.6,8.05-9,5.82-.42,9.05,3.35,11.67,7.9,9.29,16.17,18.69,32.29,27.86,48.52,2.17,3.83,6.95,7.88,5.57,11.58-1.18,3.17-6.83,4.72-10.56,6.89-59.06,34.25-118.14,68.47-177.15,102.79-2.91,1.69-4.25,1.74-6.05-1.49-11.31-20.19-22.8-40.29-34.4-60.32-2.79-4.81-7.59-7.29-13.01-7-6.77,.37-12.12,3.83-14.73,10.3-2.01,4.99-4.19,9.79-7.9,13.77-11.97,12.83-32.66,13.74-45.5,2.01-13.36-12.2-14.2-33-1.94-46.73,8.31-9.3,18.71-12.13,30.74-10.13,12.44,2.07,23.21-8.8,19.06-19.52-1.66-4.3-4.52-8.13-6.85-12.16-10.43-18.02-20.82-36.06-31.36-54.01-1.53-2.61-1.33-3.86,1.39-5.42,20.08-11.53,40.07-23.21,60.06-34.89,3.95-2.31,7.88-2.7,11.75-.12,3.77,2.51,3.76,6.34,3.15,10.31-3.56,22.9,11.24,43.45,33.75,46.89,20.73,3.17,41.45-12.51,45.06-34.09,2.92-17.41-8.4-36.76-25.34-43.22-3.92-1.5-8.11-2.59-8.36-7.93-.25-5.18,2.53-8.24,6.78-10.68,19.5-11.19,38.99-22.42,58.34-33.87,3.51-2.08,4.96-1.31,6.79,1.92,10.75,18.98,21.68,37.86,32.53,56.79,.82,1.43,1.58,2.94,2.09,4.51,2.52,7.8-2.61,13.71-10.66,12.34-22.37-3.79-43.32,10.66-47.34,32.7-.39,2.12-.41,4.3-.48,5.16Zm-10.08-23.55c.36,24.85-22.33,45.92-47.44,44.06-24.59-1.83-43.58-26.03-39.72-50.56,.43-2.72,1.44-5.67-1.61-7.72-3.12-2.1-5.65-.38-8.28,1.15-18.43,10.7-36.85,21.42-55.36,32-2.71,1.55-3.33,2.64-1.59,5.59,11.93,20.22,23.64,40.56,35.41,60.87,1.01,1.74,1.59,3.63,1.82,5.66,1.48,13.29-9.92,23.97-23.21,21.69-11.5-1.97-21.46,.53-29.04,9.97-9.61,11.97-8.83,29.46,1.77,39.59,10.51,10.04,28.08,10.27,39.2,.5,4.68-4.11,6.74-9.76,9.19-15.25,3.48-7.8,10.18-11.47,18.3-11.79,6.92-.27,12.69,3.11,16.19,9.14,10.69,18.43,21.23,36.95,31.56,55.58,2.26,4.08,3.92,4.74,8.18,2.24,31.87-18.73,63.93-37.14,95.92-55.67,26.94-15.61,53.88-31.23,80.79-46.9,1.87-1.09,4.89-1.43,2.61-5.3-10.74-18.22-21.15-36.63-31.73-54.95-1.61-2.79-3.56-5.5-7.27-5.25-3.75,.25-3.74,3.77-4.75,6.26-7.88,19.5-30.02,31.48-50.37,27.22-19.91-4.18-34.95-23.69-34.37-44.61,.71-25.88,25.69-46.15,51.53-41.77,2.33,.39,4.6,1.12,6.36-1.26,1.71-2.31,1.38-4.67,.3-7.09-.27-.61-.49-1.24-.82-1.82-10.63-18.48-21.31-36.93-31.87-55.45-1.31-2.29-2.39-2.52-4.64-1.21-19.11,11.19-38.28,22.28-57.46,33.35-2.37,1.37-3.83,3.07-3.63,5.97,.21,3.01,2.54,3.6,4.73,4.41,17.46,6.45,29.02,22.78,29.29,41.37Z"/>
    </g>
  </g>
</svg>