<?xml version="1.0" encoding="UTF-8"?>
<svg id="_Слой_1" data-name=" Слой 1" xmlns="http://www.w3.org/2000/svg" viewBox="0 0 1911.53 574.37">
  <defs>
    <style>
      .cls-1 {
        fill: #a1909e;
      }

      .cls-1, .cls-2 {
        stroke-width: 0px;
      }

      .cls-2 {
        fill: #f6e5ff;
      }
    </style>
  </defs>
  <path class="cls-2" d="M1911.52,388.36c-35.06,0-70.11-.06-105.17.05-3.33.01-5.21-.88-6.95-3.86-36.67-62.84-73.47-125.61-110.26-188.39-.55-.94-.78-2.16-2.4-2.83v190.32c0,3.11-1.6,4.67-4.8,4.68h-95.96c-2.91,0-4.37-1.44-4.38-4.33V5.63c0-4.18.01-4.2,4.15-4.2h96.72q4.26,0,4.27,4.44v181.95c1.85-1.38,2.42-2.94,3.21-4.28,35.22-59.69,70.43-119.39,105.6-179.11,1.11-1.89,2.15-3.07,4.67-3.06,36.72.09,73.44.07,110.16.08.38,0,.76.05,1.15.08v1.54c-.6.09-.73.62-1,1.03-38.04,58.97-76.04,117.97-114.23,176.85-2.49,3.84-2.7,6.36-.17,10.37,32.3,51.11,64.36,102.37,96.5,153.58,6.23,9.93,12.59,19.77,18.89,29.66v13.82-.02Z"/>
  <path class="cls-2" d="M.02,194.44V5.64C.02.38-.52.82,4.66.82c42.6,0,85.21-.03,127.81.02,8.21,0,14.61,3.58,18.53,10.87,3.82,7.1,3.43,14.27-.67,21.19-.84,1.41-2.01,2.64-3.07,3.91-30.41,36.1-12.63,90.29,33.13,100.93,37.5,8.72,74.48-20,75.36-58.48.37-16.35-4.76-30.66-15.54-42.92-6.14-6.98-8.19-14.81-4.25-23.4,3.93-8.56,11.12-12.17,20.45-12.15,42.22.06,84.44.03,126.66.03,2.99,0,4.49,1.53,4.5,4.6,0,42.47-.01,84.93.01,127.4,0,10.7,6.12,18.67,16.12,20.97,6.83,1.57,12.97-.14,18.18-4.77,8.39-7.46,17.93-12.61,28.92-15.09,34.4-7.78,69.64,16.56,74.34,51.38,4.57,33.83-17.36,64.32-50.84,69.99-19.41,3.29-36.71-1.94-51.62-14.9-10.31-8.95-25.4-6.82-32.21,4.48-2.25,3.73-2.93,7.8-2.93,12.13.05,41.96.03,83.91.03,125.87,0,1.02-.07,2.05.01,3.07.14,1.84-.69,2.58-2.47,2.41-.51-.05-1.02,0-1.53,0-42.6,0-85.21.01-127.81,0-10.83,0-19.09-6.29-21.23-16.35-1.5-7.07.26-13.39,5.09-18.87,10.7-12.12,16.03-26.32,15.86-42.47-.34-32.69-27.13-59.76-59.8-60.6-38.01-.98-67.58,30.92-63.54,68.78,1.38,12.94,6.62,24.31,15.29,34.1,7.64,8.63,8.24,19.24,1.56,27.63-4.36,5.47-10.22,7.81-17.16,7.8-34.67-.03-69.34-.01-104.02-.01H4.02c-3.97,0-3.99-.02-3.99-3.94v-189.99Z"/>
  <path class="cls-2" d="M818.17,194.95V6.16c0-3.15,1.59-4.72,4.76-4.72,44.65,0,89.3-.03,133.95.03,26.41.04,52.64,1.91,78.32,8.56,18.05,4.68,34.78,11.96,48.48,25.14,14.25,13.71,22.05,30.5,24.14,50.03,1.85,17.27.84,34.29-6.05,50.46-9.72,22.81-26.58,38.08-50,46.15-.97.33-2.05.45-2.9.97-1.43.86-1.46,2.04-.02,2.94.73.46,1.68.58,2.54.82,11.01,3.16,21.48,7.65,30.96,14.06,14.85,10.05,25.04,23.82,29.71,41.1,5.84,21.64,5.91,43.53-.11,65.18-7.47,26.87-24.78,46.01-48.44,59.84-18.5,10.82-38.71,16.45-59.8,19.35-13.84,1.9-27.76,2.31-41.71,2.29-46.44-.06-92.88-.02-139.32-.02-2.99,0-4.49-1.53-4.5-4.59v-188.79h0ZM922.71,266.8v36.8c0,4.01.02,4.03,3.92,4.03,9.97.01,19.94-.03,29.91.02,6.53.03,13.02-.35,19.47-1.43,12.77-2.14,22.64-8.27,28.28-20.36,3.74-8.02,4.87-16.52,3.55-25.08-2.35-15.28-10.11-26.56-25.57-31.34-6.26-1.94-12.7-2.93-19.24-3-12.27-.13-24.54.02-36.81-.18-2.99-.05-3.6.98-3.57,3.73.14,12.27.06,24.53.06,36.8h0ZM922.71,115.13v31.46c0,1.74-.14,3.29,2.45,3.22,14.3-.42,28.65.82,42.92-.9,17.81-2.15,29.75-12.51,32.54-29.14,2.67-15.93-2.63-28.05-18.06-34.45-5.22-2.17-10.71-3.36-16.33-3.99-13.27-1.49-26.58-.39-39.86-.86-3.26-.11-3.74,1.17-3.71,3.97.14,10.23.05,20.46.05,30.69h0Z"/>
  <path class="cls-2" d="M604.02.09c21.62,0,43.24.09,64.86-.09,3.39-.03,4.85.92,5.92,4.17,32.91,100.29,65.94,200.55,98.94,300.81,8.59,26.1,17.18,52.19,25.77,78.29.36,1.09.74,2.18,1.05,3.28.34,1.2.04,2.02-1.39,2.03-.9,0-1.79.03-2.69.03-35.18,0-70.36-.05-105.54.08-3.2.01-4.38-1-5.15-4.01-5.49-21.54-11.23-43.02-16.72-64.56-.76-2.97-1.8-4.07-5.07-4.06-39.27.14-78.55.14-117.82,0-3.26-.01-4.31,1.08-5.09,4.02-5.69,21.62-11.62,43.18-17.29,64.81-.76,2.91-1.97,3.8-4.94,3.79-35.56-.1-71.13-.06-106.69-.07-4.3,0-4.33-.03-2.95-4.26,10.9-33.54,21.84-67.07,32.64-100.65.91-2.82,1.99-3.34,4.82-2.74,48.39,10.32,95.53-20.18,105.77-68.32,8.69-40.81-12.31-82.11-50.79-99.52-2.99-1.35-3.61-2.47-2.59-5.59,11.41-34.72,22.7-69.48,33.92-104.26.82-2.54,2.02-3.26,4.63-3.25,22.13.11,44.26.06,66.4.06h0ZM604.79,66.08c.1-.39.11-.94-.27-.94s-.36.57-.24.95c-2.77,14.95-6.35,29.72-9.81,44.51-9.08,38.8-19.17,77.35-29.48,115.84-1.05,3.9-1,3.93,3.05,3.94h74.04c2.76,0,3.77-1.4,3.04-4.19-9.81-37.3-20-74.5-29.03-112-3.86-16.01-7.54-32.07-11.3-48.11h0Z"/>
  <path class="cls-2" d="M1137.68,194.54V6.14c0-5.18-.48-4.7,4.77-4.7,31.85-.01,63.71,0,95.56,0,4.16,0,4.18.01,4.18,4.15v125.86c0,4.39,2.26,6.58,6.77,6.58,13.56.04,27.13-.24,40.68.22,22.48.76,44.61,3.91,65.46,12.88,36.61,15.73,58.19,43.61,65.09,82.66,4.28,24.22,2.54,48.24-5.87,71.43-11.64,32.13-34.43,53.87-65.14,67.75-17.64,7.98-36.32,12.01-55.52,13.98-11.35,1.16-22.71,1.42-34.1,1.41-39.02-.04-78.04,0-117.06-.02-5.42,0-4.83.57-4.83-5.01-.01-62.93,0-125.86,0-188.78h.01ZM1242.21,263.13v34.5c0,7.8,0,7.87,7.82,7.78,11.48-.13,23.02.77,34.41-1.5,15.12-3.01,26.47-10.57,31.13-26.05,2.28-7.59,2.53-15.41,1.53-23.18-1.42-10.99-6.9-19.59-16.34-25.61-7.97-5.07-16.71-7.7-26.06-7.99-9.71-.31-19.43-.04-29.14-.22-2.78-.05-3.41.94-3.39,3.53.11,12.91.05,25.81.05,38.72v.02Z"/>
  <path class="cls-2" d="M1554.49,194.94v188.77c0,3.08-1.49,4.62-4.46,4.63h-96.33c-2.91,0-4.36-1.44-4.37-4.33V5.7q0-4.25,4.45-4.26h96.33c2.91,0,4.36,1.45,4.37,4.34v189.15h.01Z"/>
  <path class="cls-2" d="M698.95,557.85c-13.05,0-26.09.01-39.14,0-4.01,0-4.21-.19-4.21-4.04-.02-17.9-.02-35.81,0-53.71,0-3.9.24-4.11,4.12-4.16,1.92-.03,3.85.13,5.75-.03,3.1-.26,3.94,1.16,3.92,4.08-.11,13.94.02,27.88-.11,41.82-.03,2.77.58,3.89,3.58,3.75,5.23-.24,10.49-.21,15.73,0,2.87.11,3.73-.83,3.71-3.7-.13-13.68-.07-27.37-.06-41.05,0-4.84.02-4.88,4.95-4.84,9.83.07,8.49-1.17,8.54,8.56.06,12.28,0,24.55.02,36.83,0,4.12.02,4.13,4.29,4.14,5.12,0,10.24-.12,15.35.05,2.57.08,3.23-.85,3.21-3.32-.1-13.81-.05-27.62-.05-41.43,0-4.82.02-4.87,4.99-4.83,10.19.07,8.7-1.19,8.74,8.74.07,16.11.02,32.23.02,48.34q0,4.82-4.96,4.83h-38.37l-.02-.03Z"/>
  <path class="cls-2" d="M387.85,507.83c1.55-1.09,2.65-1.9,3.77-2.66,16.44-11.13,39.83-3.46,45.37,14.89,5.4,17.87-5.32,35.01-23.72,37.95-3.94.63-7.88,1-11.84.45-14.3-1.97-22.8-9.69-26.09-23.79-2.27-9.73-2.22-19.51-.1-29.28,3.22-14.89,12.47-24.03,26.98-27.83,9.14-2.39,18.44-4.17,27.65-6.32,2.54-.59,3.95-.13,4.06,2.76.05,1.52.46,3.03.69,4.54.75,4.81.74,4.78-4.22,5.85-8.24,1.78-16.52,3.43-24.7,5.44-9.27,2.28-15.54,7.81-17.84,17.99h0ZM406.69,546.61c10.31.03,17.65-7.03,17.73-17.04.08-9.87-7.32-16.86-17.84-16.86s-17.65,6.51-17.63,16.44c.02,10.25,7.32,17.43,17.75,17.45h-.01Z"/>
  <path class="cls-2" d="M1034.03,519.96v33.07c0,4.81-.01,4.83-4.97,4.82-8.67-.02-7.92.83-7.93-7.72v-49.47c0-4.48.25-4.78,4.81-4.71,10.48.16,7.51-1.62,12.91,7.46,5.23,8.78,10.27,17.68,15.44,26.5.7,1.19,1.18,2.57,2.39,3.43,1.27-.42,1.54-1.64,2.11-2.58,6.25-10.41,12.55-20.78,18.63-31.29,1.56-2.69,3.35-3.68,6.43-3.59,9.1.26,7.94-.9,7.96,8.04.04,16.49.02,32.98,0,49.47,0,4.4-.08,4.5-4.53,4.47-9.36-.05-7.96.98-8.02-7.85-.07-9.83-.02-19.66-.02-29.59-1.49,0-1.65,1.21-2.12,1.97-5.07,8.28-10.1,16.59-15.13,24.9-3.43,5.68-7.65,5.62-11.1-.16-4.78-8.01-9.57-16.02-14.36-24.02-.58-.97-.99-2.06-2.54-3.15h.04Z"/>
  <path class="cls-2" d="M1430.15,535.08c9.79-11.64,19.6-23.27,29.38-34.92,3.19-3.8,9.04-5.58,13.62-4.13,1.82.58,1.69,2.01,1.7,3.41.01,4.99,0,9.98,0,14.97,0,13.05.01,26.1,0,39.14,0,4.14-.15,4.25-4.36,4.29-1.79.02-3.59-.11-5.37.03-3.03.23-4.05-1.13-4.02-4.07.1-10.36.04-20.72.04-31.08v-3.75c-1.96.68-2.67,2.07-3.59,3.17-8.98,10.66-18.04,21.26-26.83,32.08-2.27,2.8-4.66,3.78-8.16,3.71-7.99-.15-6.92-.15-6.93-6.85-.02-16.89-.01-33.77,0-50.66,0-4.38.11-4.51,4.57-4.47,10.74.09,9.07-1.37,9.16,9.09.08,9.94.02,19.87.02,29.81.27.08.53.15.8.23h-.03Z"/>
  <path class="cls-2" d="M791.56,531.94c-6.65,0-13.3-.02-19.95,0-3.37.01-3.56.31-2.16,3.43,1.45,3.24,3.7,5.79,6.73,7.66,7.63,4.71,19.13,3.91,25.78-2.11,2.31-2.09,3.79-2.08,5.51.39.8,1.15,1.82,2.14,2.71,3.23,2.41,2.95,2.48,3.46-.38,5.89-10.2,8.67-21.93,9.86-34.24,6.1-11.34-3.47-18.17-11.41-20.59-23.07-2.63-12.68,2.12-25.84,12.32-32.49,11.29-7.35,23.26-7.72,34.78-.84,10.58,6.32,14,16.73,13.83,28.57-.03,2.42-1.22,3.31-3.63,3.27-6.9-.11-13.81-.04-20.71-.04h0ZM785.32,521.2c4.84,0,9.69-.06,14.53.03,2.26.04,2.54-.74,1.84-2.74-2.33-6.62-8.75-11.04-16.32-11.05-7.52,0-13.92,4.42-16.36,11.02-.92,2.5.03,2.8,2.16,2.76,4.72-.08,9.43-.03,14.15-.03h0Z"/>
  <path class="cls-2" d="M983.65,531.94c-6.78,0-13.55-.02-20.33.01-3.12.02-3.31.33-2.02,3.26,1.65,3.77,4.33,6.57,7.99,8.48,7.74,4.03,18.26,2.95,24.75-2.9,2.21-1.99,3.64-1.89,5.22.4.29.42.67.77,1,1.16,4.77,5.49,4.75,5.95-1.08,10.17-15.71,11.37-47.3,7.29-52.37-19.25-2.49-13.01,2.64-26.08,13.17-32.89,10.44-6.75,25.54-6.57,35.49.67,9.43,6.87,12.59,16.65,12.33,27.87-.05,2.22-1.19,3.09-3.44,3.06-6.9-.09-13.81-.03-20.71-.03h0ZM977.52,521.2c4.72,0,9.43-.05,14.15.02,2.04.03,2.75-.43,2-2.64-2.29-6.7-8.94-11.25-16.64-11.15-7.53.1-14.02,4.71-16.17,11.28-.62,1.89-.25,2.53,1.75,2.5,4.97-.07,9.94-.02,14.92-.02h-.01Z"/>
  <path class="cls-2" d="M1310.6,553.37c-6.83,4.62-14.34,5.82-22.31,4.65-4.11-.6-7.92-1.96-11.26-4.51-10.17-7.78-8.83-23.6,2.52-29.5,3.58-1.86,7.44-2.75,11.43-2.86,5.5-.15,11-.25,16.49-.08,2.78.09,3.24-1.09,2.94-3.43-.63-4.95-4.39-8.84-9.62-9.51-7.34-.95-14.35.11-20.47,4.5-2.54,1.82-3.85,1.21-4.95-1.32-.2-.47-.51-.89-.76-1.33-3.59-6.36-3.55-6.72,2.95-9.95,9.02-4.48,18.59-5.63,28.38-3.63,11.52,2.35,17.84,9.74,18.18,21.47.35,12.26.09,24.55.16,36.82.01,2.3-.92,3.29-3.19,3.19-1.53-.07-3.07,0-4.6,0-3.21,0-5.18-1.5-5.91-4.49l.02-.02ZM1299.63,531.74c-2.91.12-6.51-.35-10.02.5-3.47.83-5.5,3.08-5.86,6.24-.34,3.02,1.35,5.8,4.46,7.33,5.55,2.73,14.51,1.38,19.04-2.86,2.48-2.32,3.59-5.08,3.33-8.55-.14-1.91-.62-2.78-2.65-2.68-2.54.12-5.1.03-8.3.03h0Z"/>
  <path class="cls-2" d="M1500.76,537.04c-3.22-1.71-6.13-3.29-8.31-5.92-8.28-10-4.53-26.42,7.34-31.98,4.6-2.16,9.51-3.04,14.52-3.14,8.18-.16,16.38.04,24.56-.11,3.08-.05,3.99,1.24,3.98,4.13-.07,17.91-.02,35.81-.05,53.72,0,3.72-.42,4.1-4.27,4.1-9.92,0-8.34.7-8.46-8.32-.03-2.56-.09-5.12.02-7.67.08-1.95-.61-2.81-2.62-2.77-3.71.07-7.42.08-11.13-.01-1.81-.04-2.78.94-3.68,2.28-3.02,4.44-6.2,8.78-9.07,13.31-1.56,2.47-3.45,3.51-6.33,3.24-2.16-.2-4.35.04-6.52-.06-3.11-.15-3.67-1.2-1.89-3.77,3.48-5.05,7.08-10.03,10.62-15.04.36-.51.7-1.05,1.3-1.97v-.02ZM1530.05,518.46c0-2.68-.03-5.37.01-8.05.02-1.44-.57-2.12-2.04-2.09-6,.13-12.03-.49-17.98.62-5.55,1.03-7.99,4.23-7.85,10.01.12,5.22,3.01,8.37,8.47,9.11,5.6.75,11.23.4,16.85.5,2.05.03,2.65-.91,2.57-2.81-.11-2.42-.03-4.86-.03-7.28h0Z"/>
  <path class="cls-2" d="M477.23,495.57c18.75.07,31.84,13.05,31.78,31.52-.06,18.22-13.78,31.64-32.11,31.42-18.55-.22-31.87-13.51-31.82-31.74.04-18.24,13.47-31.27,32.15-31.2h0ZM458.9,526.62c-.61,14.79,13.22,23.56,26.56,17.53,9.99-4.52,13.15-19.83,6.3-29.17-4.55-6.2-12.87-8.72-20.58-6.24-7.68,2.48-12.22,9.09-12.28,17.88h0Z"/>
  <path class="cls-2" d="M1199.77,526.9c0-9.08.08-18.16-.05-27.23-.04-2.88,1.03-3.82,3.82-3.77,11.54.22,9.83-1.41,9.95,9.59.05,4.22.09,8.44-.03,12.66-.06,2.15.68,2.92,2.86,2.89,8.18-.09,16.37-.09,24.55,0,2.16.02,2.91-.69,2.87-2.87-.11-6.14.06-12.28-.08-18.41-.06-2.82,1-4,3.81-3.85,2.17.12,4.35.12,6.52,0,2.72-.15,3.51,1.13,3.5,3.7-.07,18.16-.08,36.31,0,54.47.01,2.83-.94,4-3.77,3.8-2.04-.14-4.1-.15-6.13,0-3.07.22-4.01-1.18-3.93-4.1.16-5.88-.03-11.76.08-17.64.04-2.13-.64-2.92-2.83-2.89-8.18.1-16.37.12-24.55-.01-2.55-.04-2.93,1.09-2.9,3.23.1,5.88-.06,11.76.07,17.64.06,2.85-1.09,3.84-3.87,3.78-11.93-.26-9.7,1.55-9.87-9.5-.11-7.16-.02-14.32-.02-21.48h0Z"/>
  <path class="cls-2" d="M1340.25,526.92c0-9.08.08-18.16-.05-27.23-.04-2.85.98-3.85,3.79-3.8,11.57.22,9.85-1.41,9.98,9.56.05,4.22.09,8.44-.02,12.66-.06,2.11.6,2.95,2.83,2.93,8.18-.1,16.37-.12,24.55.01,2.54.04,2.94-1.06,2.91-3.23-.1-6.01.06-12.02-.08-18.02-.06-2.79.92-4.04,3.77-3.89,2.3.12,4.6.08,6.9.01,2.3-.06,3.15,1,3.14,3.26-.04,18.54-.04,37.08,0,55.61,0,2.11-.87,3.07-2.95,3.05-2.43-.02-4.86-.07-7.29.02-2.64.1-3.61-1.08-3.56-3.7.12-5.88-.06-11.76.08-17.64.06-2.46-.66-3.35-3.22-3.3-7.93.14-15.86.13-23.78,0-2.45-.04-3.38.65-3.31,3.22.16,5.88-.04,11.76.09,17.64.06,2.83-1.06,3.86-3.86,3.8-11.94-.26-9.72,1.55-9.89-9.49-.11-7.16-.02-14.32-.02-21.48h0Z"/>
  <path class="cls-2" d="M574.42,527.12c0,8.95-.1,17.9.06,26.85.05,3.08-1.07,3.94-4.03,3.95-9.53.02-9.53.12-9.53-9.53,0-12.15-.08-24.29.06-36.44.03-2.86-.82-3.82-3.7-3.7-4.98.21-9.98.26-14.96-.01-3.33-.18-4.07,1.17-4.11,4.19-.16,10.35-.62,20.69-3.16,30.81-.75,2.99-1.83,5.85-3.46,8.48-4.43,7.15-11.3,7.99-18.46,5.98-.75-.21-1.57-.59-1.64-1.43-.26-3.2.24-6.37.85-9.49.24-1.22,1.58-.98,2.6-1.01,4.75-.13,6.22-1.19,7.83-5.7,1.56-4.38,1.92-8.99,2.21-13.58.57-8.93,1.06-17.86,1.34-26.8.1-3.15,1.46-3.82,4.28-3.79,13.3.1,26.6.11,39.9,0,3.02-.03,4.04,1,3.99,4.01-.14,9.07-.05,18.15-.05,27.23l-.02-.02Z"/>
  <path class="cls-2" d="M591.87,526.7c0-8.94.1-17.88-.05-26.82-.05-3.03,1-4.06,4-3.99,11.67.27,9.59-1.48,9.79,9.64.04,2.43.14,4.86-.03,7.28-.17,2.35.68,3.06,3.03,3.08,5.99.03,11.99-.35,17.97.56,14.23,2.16,21.44,13.21,17.45,27.02-1.72,5.96-5.74,9.83-11.38,12.11-3.95,1.59-8.11,2.31-12.35,2.33-8.17.04-16.35-.13-24.52.01-3.03.05-4.02-1.01-3.97-4.01.15-9.06.05-18.13.05-27.2h.01ZM614.52,546.42c2.67,0,5.38.26,8.01-.05,5.61-.68,8.52-4.23,8.5-9.89-.02-5.31-2.67-8.32-8.27-9.15-4.93-.73-9.91-.6-14.87-.7-1.62-.03-2.31.56-2.28,2.21.06,2.93-.1,5.86.04,8.79.15,2.87-1.33,6.51.72,8.41,1.84,1.69,5.37.34,8.14.39h.01Z"/>
  <path class="cls-2" d="M1177.55,525.33c.48.43.73.75,1.06.92,10.79,5.6,10.36,19.67.35,26.52-5.47,3.75-11.61,5.35-18.05,5.71-9.1.5-17.77-1.33-25.91-5.59-2.4-1.26-2.93-2.61-1.88-5.19,2.86-7,2.73-7,9.48-4.3,6.91,2.77,14.02,3.84,21.4,2.34,2.3-.47,4.43-1.3,6.2-2.84,3.48-3.03,2.98-7.64-1.06-9.86-2.53-1.39-5.35-1.7-8.17-1.79-3.2-.09-6.4-.12-9.59,0-2.25.08-3.16-.7-3.26-3.06-.33-7.7-.42-7.69,7.17-7.7,2.3,0,4.6-.05,6.91-.07,1.82-.02,3.58-.42,5.17-1.27,1.87-.99,3.34-2.33,3.43-4.7.09-2.38-1.23-3.86-3.11-4.88-4.47-2.43-9.3-2.53-14.19-1.91-4.34.55-8.54,1.67-12.47,3.59-2.16,1.06-3.34.49-4.01-1.73-2.75-9.14-4.92-7.76,5.49-11.54,9.53-3.46,19.23-3.93,28.95-.72,4.33,1.43,8.2,3.61,10.89,7.44,3.83,5.46,3.35,12.41-1.2,17.27-1.04,1.11-2.23,2.09-3.6,3.35h0Z"/>
  <path class="cls-2" d="M920.27,535.26c-4.83,1.41-9.47,2.81-14.33,3.16-5.32.39-10.49-.21-15.41-2.24-7.05-2.91-11.03-8.35-11.49-15.87-.44-7.14-.15-14.32-.24-21.48-.03-2.19,1.08-2.94,3.09-2.9,2.3.04,4.61.11,6.91-.02,2.64-.15,3.74,1.02,3.72,3.6-.04,5.12-.03,10.23,0,15.35.06,7.85,3.57,11.41,11.39,11.74,4.8.2,9.39-.66,13.94-2.15,2.07-.68,2.75-1.74,2.71-3.88-.12-6.9.04-13.81-.09-20.72-.05-2.75.85-4.09,3.73-3.93,2.17.12,4.35.12,6.52,0,2.66-.15,3.61.99,3.57,3.63-.11,7.54-.04,15.09-.04,22.64,0,10.62-.07,21.23.04,31.85.03,2.77-.82,4.06-3.72,3.86-2.16-.15-4.35-.11-6.52-.01-2.65.12-3.64-1.04-3.58-3.67.12-5.5.04-11,.02-16.5,0-.74-.14-1.47-.24-2.45h.02Z"/>
  <path class="cls-2" d="M830.5,574.14c-5.86,0-5.97-.13-4.74-5.1.49-1.98.92-3.99,1.48-5.95.91-3.21,1.76-6.04-1.42-8.98-2.53-2.34-1.9-7.51.25-10.37,2.38-3.15,6.51-4.34,10.33-2.96,3.47,1.26,5.68,4.64,5.62,8.76-.04,2.46-.81,4.78-1.58,7.08-1.46,4.36-3.15,8.66-4.4,13.08-.93,3.3-2.32,5.39-5.54,4.43h0Z"/>
  <path class="cls-1" d="M604.79,66.08l-.26.02h-.26c-.11-.38-.13-.95.24-.95s.38.55.27.94h.01Z"/>
</svg>