<?xml version="1.0" encoding="UTF-8"?>
<svg id="_Слой_1" data-name="Слой 1" xmlns="http://www.w3.org/2000/svg" viewBox="0 0 150 150">
  <path d="M41.87,137.13c3.53-7.16,7.07-14.32,10.85-21.98-14.21-5.87-27.65-11.42-41.64-17.19-2.38,3.02-5,6.37-7.63,9.71-.34-.06-.67-.12-1.01-.18,.28-1.77,.66-3.54,.81-5.33,.18-2.13,.44-4.3,.18-6.4-.43-3.49,1.41-5.2,4.93-4.6,1.34,.23,3.11-.09,4.23-.84,4.83-3.24,9.56-6.65,14.16-10.2,1.08-.84,2.04-2.42,2.2-3.77,.5-4.17,2.47-5.28,6.4-3.74,1.55,.61,3.6,.51,5.27,.1,2.24-.55,4.26-2.16,6.49-2.51,6.64-1.06,8.39-4.98,7.93-11.19-.28-3.76,.64-7.6,.97-10.97-1.64-1.62-3.89-2.87-4.31-4.57-.36-1.45,1.31-4.88,2.23-4.93,9.51-.58,7.71-9.37,10.98-14.42,1.35-2.07,2.94-4.33,4.99-5.45,.98-.54,3.25,1.5,5.02,2.13,2.05,.73,4.2,1.18,6.64,1.85-.17,.38-.47,1.02-.87,1.9,13.26,3.76,26.49,7.47,39.69,11.3,4.15,1.2,8.14,3.04,12.34,3.95,1.58,.34,4.38-.61,5.21-1.89,3.08-4.77,5.57-9.93,9.03-14.92-.5,4.81-.99,9.62-1.54,14.89,3.68,1.64,3.14,4.77,1.35,8-1.84,3.32-4.69,4.33-8.44,3.6-1.33-.26-3.08,.14-4.26,.86-3.96,2.42-7.85,4.98-11.55,7.77-1.3,.98-1.87,2.87-2.99,4.15-1.46,1.67-2.91,3.88-4.79,4.44-1.24,.37-3.22-1.77-5.65-3.27-13.95,2.07-29.06,4.32-44.18,6.54-3.06,.45-4.57,1.66-4.35,5.19,.36,5.8,.1,11.64,.1,16.26,2.03,2.26,3.87,3.66,4.63,5.5,.24,.59-2.43,2.27-3.6,3.61-.78,.89-1.55,1.97-1.8,3.09-.46,2.1-.83,4.3-.69,6.42,.11,1.67,.68,3.59,1.7,4.87,2.55,3.22,1.95,5.73-1.61,7.35-1.84,.84-3.66,2.51-4.63,4.28-2.79,5.09-6.13,9.39-11.63,11.52-.4-.31-.8-.62-1.19-.93ZM133.18,43.34c-3.22-.96-5.56-1.72-7.93-2.36-15.08-4.1-30.2-8.06-45.23-12.32-7.6-2.15-10.66-1.06-14.29,6.16-.22,.45-.39,.93-.66,1.34-2.36,3.5-1.48,5.7,2.53,6.97,12.35,3.9,24.68,7.86,37,11.85,1.95,.63,4.08,2.5,5.68,2.08,8.47-2.23,15.88-6.53,22.91-13.71ZM52.65,111.51c.5-4.43,.76-7.91,1.32-11.34,.6-3.69-.47-6.21-3.81-8.23-4.55-2.74-8.72-6.09-13.18-9-1.09-.71-3.08-1.43-3.9-.92-6.09,3.75-11.99,7.81-18.94,12.44,13.52,5.98,25.62,11.34,38.52,17.05Zm51.55-52.4c-14.76-4.27-28.37-8.21-42.56-12.32-.47,6.09-.94,12.22-1.44,18.75,15.18-2.22,29.22-4.27,44.01-6.43Zm-50.1,13.48c-5.16,2.09-9.87,4.01-15.47,6.28,5.61,4.42,10.19,8.03,15.47,12.19v-18.47Z"/>
</svg>