<?xml version="1.0" encoding="UTF-8"?>
<svg id="_Слой_1" data-name="Слой 1" xmlns="http://www.w3.org/2000/svg" viewBox="0 0 150 150">
  <path d="M18.51,90.98c7.32-.52,13.77-1.22,20.23-1.38,11.65-.29,23.32-.36,34.97-.3,3.92,.02,6.04-1.14,5.67-5.38-.09-.97-.05-2.09,.35-2.94,.45-.93,1.37-2.23,2.12-2.26,.8-.03,2.03,1.09,2.41,1.98,2.93,7-1.23,14.55-8.76,14.78-19.8,.61-39.62,.78-59.44,.89-1.88,.01-4.66-1.2-5.39-2.67-.64-1.28,.52-4.12,1.73-5.56,9.9-11.9,19.98-23.64,30.02-35.41,.85-.99,1.76-1.93,2.76-3.03-9.44-7.43-18.74-14.62-27.88-22.01-3.21-2.6-6.3-5.47-8.9-8.67-1.27-1.57-2.41-4.89-1.61-6.13,1.21-1.88,4.06-3.39,6.4-3.71,4.59-.63,9.3-.36,13.97-.4,16.64-.15,33.27-.3,49.91-.35,.98,0,2.68,.75,2.84,1.42,.99,4.4,1.93,8.89-.02,13.2-.56,.17-1.12,.34-1.68,.52-.98-2.19-1.75-4.5-3-6.53-.78-1.26-2.24-2.97-3.42-2.99-20.32-.29-40.64-.35-60.96-.44-.28,0-.55,.29-1.78,.97,5.51,4.44,10.64,8.72,15.92,12.8,8.16,6.31,16.33,12.61,24.7,18.63,2.97,2.14,2.48,3.44,.43,5.86-10.25,12.04-20.33,24.22-30.44,36.38-.38,.46-.49,1.14-1.15,2.74Z"/>
  <path d="M98,123.04c6,6.92,13.21,12.54,16.07,21.03-.6,.49-1.2,.97-1.8,1.46-1.4-1.2-2.87-2.33-4.19-3.62-4.29-4.18-8.55-8.39-12.76-12.65-1.89-1.92-3.37-1.92-5.46-.01-3.69,3.35-7.69,6.37-11.64,9.42-1.23,.95-2.72,1.55-5.38,3.03,3.05-8.7,8.66-13.56,14.3-18.62-6.1-6.8-14.47-11.23-17.21-20.11,.3-.41,.6-.81,.9-1.22,1.61,.81,3.44,1.35,4.8,2.46,4.88,4.02,9.49,8.38,14.48,12.26,1.09,.85,3.87,1.01,4.89,.22,5.65-4.37,10.97-9.17,16.49-13.71,1.14-.94,2.67-1.4,4.01-2.08-.2,1.77,.26,4.16-.72,5.22-4.83,5.25-10.04,10.14-15.11,15.17-.46,.46-.9,.94-1.69,1.77Z"/>
  <path d="M124.66,87.08c3.58-5.36,10.11-6.78,13.78-4.12,4.45,3.23,4.51,10.68,.11,18.16,2.89,1.12,5.81,2.25,8.73,3.38-.11,.64-.22,1.28-.33,1.91-2.17,.3-4.33,.71-6.5,.87-3.97,.28-7.95,.53-11.93,.52-1.12,0-2.24-.97-3.36-1.5,.81-1.09,1.5-2.3,2.46-3.22,.54-.51,1.74-.31,2.3-.81,2.65-2.38,5.96-4.5,7.51-7.5,1.12-2.17,.69-6.09-.64-8.24-.81-1.3-4.67-.96-7.14-.88-1.67,.05-3.31,.92-4.97,1.43Z"/>
</svg>