<?xml version="1.0" encoding="UTF-8"?>
<svg id="_Слой_1" data-name="Слой 1" xmlns="http://www.w3.org/2000/svg" viewBox="0 0 150 150">
  <defs>
    <style>
      .cls-1 {
        fill: #ebebeb;
      }

      .cls-2 {
        fill: #ccc;
      }
    </style>
  </defs>
  <path class="cls-2" d="M92.88,17.02c7.76-.21,14.74,.29,20.92,4.82,5.36,3.93,7.3,9.2,8.33,15.56,2.46,15.23-6.88,24.01-16.95,32.39-8.79,7.32-17.93,14.21-26.88,21.35-.97,.78-3.91,1.63-.31,3.09,1.05,.42,.63,1.26,.02,1.99-2.17,2.6-8.83,3.75-11.08,1.87-2.79-2.33-2.52-6.52,.71-10.19,5.08-5.78,11.17-10.4,17.35-14.89,8.21-5.96,16.21-12.12,23.16-19.59,7.49-8.05,6.76-21.88-1.64-26.07-6.04-3.01-12.64-2.9-19.06-2.15-12.65,1.47-24.57,5.29-35.42,12.19-4.99,3.17-9.14,7.18-12.56,11.89-3.72,5.11-1.47,10.17,5.27,12.53,1.16,.41,3.14-.05,3.02,1.83-.12,1.87-2.03,1.19-3.23,1.45-9.65,2.11-15.92-5.59-13.15-15.94,1.69-6.34,6.02-10.75,10.79-14.61,10.93-8.83,23.73-13.71,37.39-16.51,4.57-.94,9.19-1.32,13.32-1Z"/>
  <path class="cls-2" d="M76.28,119.99c5.87,.02,7.88,1.79,7.72,6.95-.21,6.42-4.99,8.97-13.65,9.73-3.11,.27-6.46-4.53-6.38-8.77,.09-4.53,5.37-7.93,12.31-7.91Zm.56,6.6c-.18-1.06-.78-1.47-1.71-1.07-1.29,.55-3.22,.32-3.62,2.06-.32,1.41,1.05,1.47,1.97,1.31,1.42-.25,2.9-.61,3.36-2.3Z"/>
  <path class="cls-1" d="M76.84,126.6c-.46,1.69-1.94,2.04-3.36,2.3-.92,.16-2.29,.11-1.97-1.31,.4-1.75,2.32-1.51,3.62-2.06,.94-.4,1.54,.01,1.71,1.07Z"/>
</svg>