<?xml version="1.0" encoding="UTF-8"?>
<svg id="_Слой_1" data-name="Слой 1" xmlns="http://www.w3.org/2000/svg" viewBox="0 0 134.74 134.74">
  <path d="M14.72,67.28c1.47-1.24,2.83-2.68,4.44-3.7,16.7-10.54,33.43-21.03,50.19-31.48,6.51-4.05,8.07-3.11,8.31,4.58,.13,4.07,.46,8.14,.79,13.77,13.9-9.48,25.02-19.77,36.35-29.8-.21-.35-.42-.71-.63-1.06-3.92,1.24-7.84,2.48-11.76,3.72-.18-.35-.35-.71-.53-1.06,.44-.65,.74-1.65,1.34-1.89,5.78-2.31,11.56-4.65,17.45-6.63,2.62-.88,4.7,.38,3.9,3.43-1.49,5.69-3.39,11.27-5.12,16.9-.51,0-1.02-.02-1.53-.02-.46-2.55-.93-5.1-1.56-8.57-2.63,2.21-4.91,4.17-7.23,6.07-7.8,6.4-15.48,12.98-23.48,19.12-7.04,5.4-11.03,3.45-11.87-5.44-.32-3.35-.37-6.73-.61-11.49-19.81,11.86-38.75,23.21-57.69,34.55l-.77-1Z"/>
  <path d="M122.98,115.58c-.49-3.18-1.32-6.35-1.41-9.54-.52-18.26-.94-36.52-1.21-54.78-.04-2.67-.67-3.97-3.43-3.75-.15,.01-.3,0-.45,0-10.74-.1-10.57-.11-10.48,10.49,.1,11.44-.1,22.87-.29,34.31-.03,1.92-.69,3.84-1.06,5.75-.6,.05-1.21,.09-1.81,.14-.49-1.6-1.45-3.22-1.4-4.81,.41-14.7,.94-29.4,1.65-44.09,.06-1.18,1.58-3.13,2.64-3.28,5.11-.74,10.29-1.21,15.45-1.23,1.17,0,3.35,2.17,3.37,3.36,.29,17.66,.31,35.32,.38,52.98,.02,4.8,0,9.6,0,14.39-.65,.01-1.31,.03-1.96,.04Z"/>
  <path d="M35.27,124.08c-.36-1.96-1.01-3.91-1.02-5.87-.07-15.32,.07-30.63-.05-45.95-.03-4.14,1.59-5.82,5.67-6.09,5.33-.35,10.62-1.4,15.95-1.66,1.2-.06,3.59,1.92,3.59,2.96,0,13.22-.27,26.44-.65,39.66-.05,1.75-1.05,3.48-1.61,5.22-.45-.04-.9-.07-1.34-.11-.21-1.94-.61-3.88-.6-5.82,.08-11.74,.15-23.49,.44-35.23,.09-3.76-1.41-4.51-4.84-4.1-13.55,1.62-13.42,1.54-13.08,15,.29,11.74,.28,23.49,.27,35.24,0,2.25-.61,4.51-.94,6.76-.59,0-1.19,0-1.78-.01Z"/>
  <path d="M70.44,119.33c-.27-1.65-.75-3.31-.77-4.96-.09-6.68,.1-13.36-.09-20.04-.08-3-.8-5.98-1.31-9.58,.76-.12,2.12-.49,3.48-.52,3.41-.09,6.83,.12,10.24-.05,6.55-.33,6.78-.27,6.86,6.18,.1,8.01,.17,16.03-.07,24.04-.05,1.53-1.59,3.01-2.45,4.51-.7-1.48-1.96-2.94-2-4.44-.21-7.71-.17-15.43-.08-23.15,.07-6.76-5-3.63-8.02-4.19-3.55-.65-3.52,1.6-3.41,4.36,.32,7.71,.34,15.43,.34,23.14,0,1.59-.63,3.18-.96,4.77-.59-.02-1.17-.05-1.76-.07Z"/>
  <path d="M24.02,117.72c-.31-2.27-.82-4.54-.89-6.82-.23-6.97-.34-13.95-.39-20.93-.02-2.68-.23-4.66-3.84-4.27-3.16,.34-4.79,1.06-4.43,4.84,.68,7.09,.88,14.22,1.11,21.34,.06,1.93-.45,3.88-.7,5.82-.62,.07-1.23,.14-1.85,.21-.4-1.58-1.13-3.16-1.15-4.74-.11-9.32-.05-18.64-.05-28.74,3.58-.46,7.76-1.15,11.96-1.42,.79-.05,2.41,1.55,2.41,2.39,0,10.37-.22,20.75-.42,31.12,0,.37-.38,.74-.58,1.11-.4,.03-.79,.06-1.19,.1Z"/>
</svg>