<?xml version="1.0" encoding="UTF-8"?>
<svg id="_Слой_1" data-name="Слой 1" xmlns="http://www.w3.org/2000/svg" viewBox="0 0 150 150">
  <path d="M86.17,42.41c-.59,.96-.95,2.36-1.81,2.83-18.28,9.77-29.31,25.59-37.01,44.16-2.51,6.06-4.67,12.28-6.45,18.73,22.45-19.55,50.58-30.88,72.18-52.32-1.58-.54-2.72-.93-3.86-1.31-.07-.38-.13-.77-.2-1.15,3.33-1.12,6.66-2.25,9.99-3.37,.49,.63,.98,1.27,1.47,1.9-3.38,3.85-6.2,8.45-10.23,11.41-14.02,10.33-28.53,20.01-42.72,30.11-9.71,6.91-19.24,14.07-28.79,21.21-.86,.64-1.21,1.94-1.86,2.88-5.63,8.17-11.13,16.45-17.03,24.43-1.5,2.03-4.27,3.11-6.46,4.63-.27-.34-.54-.68-.81-1.03,3.66-4.62,7.62-9.03,10.92-13.89,9.41-13.86,14.57-29.08,15.59-45.99,1.28-21.19,10-39.37,24.96-54.49,5.37-5.43,11.63-9.13,19.71-9.96v3.17c9.24-2.87,18.45-6.08,27.85-8.55,9.4-2.47,19.02-3.78,28.78-1.03-24.95,2.04-48.47,8.23-70.53,22.02,1.36-2.72,2.71-5.45,4.07-8.17-.42-.21-.84-.43-1.26-.64-20.13,15.9-29.49,37.38-31.6,63.52,3.86-7.6,7.2-14.57,10.87-21.35,6.31-11.65,16.97-18.4,28.19-24.46,2.03-1.1,4.06-2.21,6.09-3.31,0,0-.05-.02-.05-.02Z"/>
  <path d="M121.61,39.97c8.05-6.56,16.11-13.12,24.16-19.68,.28,.34,.56,.68,.83,1.02-6.57,8.36-15.11,14.33-24.07,19.8-.31-.38-.62-.76-.92-1.14Z"/>
  <path d="M86.22,42.43c8.08-3.45,16.16-6.89,25.23-10.76-.61,1.69-.67,2.56-1.02,2.7-7.07,2.82-14.16,5.6-21.3,8.26-.83,.31-1.94-.11-2.94-.2-.02-.01,.03,0,.03,0Z"/>
</svg>