<?xml version="1.0" encoding="UTF-8"?>
<svg id="_Слой_1" data-name="Слой 1" xmlns="http://www.w3.org/2000/svg" viewBox="0 0 150 150">
  <path d="M109.3,81.07c-5.29-.77-10.59-1.55-15.88-2.32,.04-.45,.08-.9,.13-1.35,8.84-1.7,17.68-1.83,26.06,2.48,3.24,1.67,2.75,4.92-1.13,6.1-4.57,1.4-9.42,2.33-14.18,2.52-24.46,.96-48.93,1.7-73.41,2.29-4.1,.1-8.29-.66-12.3-1.62-1.07-.26-1.62-2.71-2.4-4.15,1.34-.66,2.71-1.92,4.03-1.88,14.76,.46,29.5,1.58,44.25,1.61,14.14,.03,28.29-1.01,42.43-1.61,.77-.03,1.53-.34,2.3-.53,.04-.52,.08-1.04,.12-1.57Z"/>
  <path d="M17.6,130.26c-1.21,.81-2.42,1.62-4.68,3.13,2.87,1.33,4.46,2.52,6.19,2.79,10.01,1.57,20.01,3.6,30.08,4.21,22.62,1.37,45.24,1.18,67.63-3.16,1.58-.31,3.13-.82,5.2-1.37-1.06-1.61-1.8-2.75-3.38-5.15,3.37,.98,5.88,1.24,7.72,2.49,.71,.48,.5,4.26-.31,4.7-3.3,1.82-6.89,3.73-10.56,4.2-32.81,4.17-65.61,5.61-98.25-1.53-1.61-.35-3.49-.73-4.6-1.78-1.64-1.53-3.97-3.93-3.66-5.49,.33-1.66,3.32-2.91,5.31-4.07,.72-.42,1.9-.07,2.87-.07,.14,.37,.28,.73,.42,1.1Z"/>
  <path d="M42.01,76.41c-4.66,1.09-6.08-.98-6.09-4.61-.01-5.88,3.85-9.74,7.41-13.68,5-5.54,10.86-10.48,14.96-16.61,2.66-3.97,3.35-9.54,3.97-14.52,.5-4.07-2.37-6.75-6.53-6.39-5.04,.44-10.01,1.64-15.23,2.55,.38-.53,.74-1.59,1.36-1.79,4.72-1.46,9.43-3.4,14.28-3.94,5.76-.64,10.04,3.67,10.8,9.47,1.47,11.24-4.26,19.43-11.47,26.97-3.45,3.6-6.91,7.19-10.35,10.8-3.03,3.18-4.73,6.78-3.1,11.73Z"/>
  <path d="M135.89,104.77c-5.43-5.67-9.64-4.75-13.65,.88-4.47,6.27-9.97,11.86-15.44,17.34-1.48,1.48-4.48,1.45-6.78,2.12-.32-.6-.65-1.19-.97-1.79,1.32-1.5,2.47-3.22,4-4.45,9.03-7.29,15.76-16.12,19.08-27.39,.29-1,1.52-1.72,2.31-2.57,.69,1.05,2.07,2.17,1.97,3.13-.46,4.21,1.73,5.2,5.27,5.08,.81-.03,1.7,.14,2.44,.48,3.37,1.53,8.8,2.51,7.29,7.1-1.02,3.12-5.74,5.09-8.95,7.38-.43,.3-1.66-.53-2.52-.83,.33-.86,.42-1.97,1.02-2.55,1.51-1.43,3.25-2.62,4.93-3.93Z"/>
  <path d="M74.27,10.23c7.28-4.17,16.67,.7,17.12,6.6,.41,5.25,.17,11.16-1.89,15.86-3.51,8.01-8.7,15.28-13.09,22.91-.66,1.15-.86,2.56-1.28,3.86-.98-.63-1.95-1.25-2.93-1.88,.33-2.4,.04-5.11,1.09-7.13,2.98-5.73,6.53-11.17,9.79-16.75,1.34-2.29,2.89-4.54,3.71-7.02,3.02-9.05-.08-14.07-9.34-15.64-.77-.13-1.51-.38-3.18-.81Z"/>
  <path d="M46.14,127.52c-3.65-.91-7.73-1.06-10.87-2.86-9.57-5.49-15.78-13.99-19.41-24.37-.43-1.23-.83-2.67-.6-3.89,.23-1.23,1.26-2.31,1.95-3.45,.82,.89,1.79,1.68,2.43,2.69,4.14,6.51,7.69,13.5,12.49,19.46,3.01,3.73,7.88,5.95,11.92,8.86,.87,.63,1.73,1.29,2.59,1.94l-.5,1.62Z"/>
</svg>