<?xml version="1.0" encoding="UTF-8"?>
<svg id="_Слой_1" data-name="Слой 1" xmlns="http://www.w3.org/2000/svg" viewBox="0 0 190 145">
  <defs>
    <style>
      .cls-1 {
        fill: #79bb60;
      }

      .cls-2 {
        fill: #86c16f;
      }

      .cls-3 {
        fill: #d6eacf;
      }

      .cls-4 {
        fill: #7d68ab;
      }

      .cls-5 {
        fill: #e6e6e9;
      }

      .cls-6 {
        fill: #80be68;
      }

      .cls-7 {
        fill: #7cb569;
      }

      .cls-8 {
        fill: #eff4ee;
      }

      .cls-9 {
        fill: #f3f3f6;
      }

      .cls-10 {
        fill: #f0f0f4;
      }
    </style>
  </defs>
  <path class="cls-3" d="M51.95,52.87c3.48-1.16,5.05-4.28,7.12-6.89,4.69,.33,9.37,.5,13.94-.93,4.59,1.41,9.28,1.5,14.01,.98,1.32,.69,2.64,1.38,3.96,2.06,2.38,4.14,4.68,.73,7.01-.07,4.51-1.78,9.39-.99,14.01-2,2.3,1.26,4.65,.99,7.01,.19,.46,2.34,2.09,2.08,3.3,1.06,4.64-3.94,9-2.21,12.99,.76,3.86,2.88,2.77,7.01,1.76,10.93-.08,.31-.02,.66-.03,.99-3.13,.44-3.85,2.55-4,5.35-.37,6.56-2.94,12.57-4.89,18.74-.31,.99-.68,1.88-1.86,2.08-5.47,.93-7.4,5.35-8.93,9.7-1.82,5.15-2.92,10.56-4.46,15.81-.36,1.25-.39,3.59-2.53,2.81-4.98-1.8-6.06,1.79-7.51,4.98-1.67,3.67-2.13,7.93-5.62,11.51-.62-3.77,.39-7.48-2.5-9.82-4.86-3.92-7.93-8.82-9.26-14.94-.44-2.03-1.88-4.2-4.23-2.52-3.21,2.29-3.57-.18-4.47-2.05-2.71-5.67-1.87-11.73-1.88-17.69,0-3.51,.05-6.98-1.59-10.23-2.6-5.16-7.61-6.16-11.91-2.39-.83,.73-1.1,2.12-2.8,2.19-2.87-4.87-2.82-10.33-2.72-15.77,.05-2.8-.29-5.1-3.91-4.84Zm14.6-4.68c-.4-.43-.63-.89-.95-.97-.7-.17-1.27,.19-1.39,.94-.1,.64-.05,1.46,.85,1.31,.5-.08,.9-.74,1.49-1.28Z"/>
  <path class="cls-1" d="M51.95,52.87c3.63-.26,3.97,2.03,3.91,4.84-.1,5.44-.15,10.9,2.72,15.77,1.7-.06,1.97-1.46,2.8-2.19,4.31-3.77,9.32-2.77,11.91,2.39,1.64,3.25,1.58,6.72,1.59,10.23,.01,5.95-.82,12.02,1.88,17.69,.89,1.87,1.26,4.35,4.47,2.05,2.35-1.68,3.79,.48,4.23,2.52,1.32,6.12,4.4,11.01,9.26,14.94,2.9,2.34,1.88,6.05,2.5,9.82,3.5-3.58,3.95-7.85,5.62-11.51,1.45-3.19,2.53-6.78,7.51-4.98,2.14,.77,2.16-1.56,2.53-2.81,1.54-5.26,2.64-10.66,4.46-15.81,1.53-4.35,3.47-8.77,8.93-9.7,1.18-.2,1.55-1.1,1.86-2.08,1.95-6.17,4.52-12.18,4.89-18.74,.16-2.8,.87-4.91,4-5.35,2.12,1.36,2.42,3.34,2.12,5.67-1.04,8.15-3.73,15.85-6.47,23.52-.63,1.75-1.85,3.82-3.77,3.51-4.31-.69-5.12,2.27-5.96,5.09-2.13,7.17-3.84,14.46-6.12,21.57-1.23,3.83-1.8,9.18-8.46,6.81-1.43-.51-1.67,1.33-2.12,2.31-1.68,3.65-3.8,7.03-6.21,10.22-1.44,1.9-3.26,3.57-5.91,2.77-2.72-.82-4.5-3.12-3.85-5.69,1.89-7.49-1.39-12.8-6-18.13-2.56-2.97-3.88-6.28-8.14-8.39-5.88-2.91-6.23-10.2-6.85-16.31-.45-4.45-.05-8.98-.07-13.47,0-1.7-.21-3.6-1.91-4.3-2.18-.88-2.72,1.38-3.62,2.62-3.28,4.49-6.24,4.67-9.02-.14-4.47-7.74-6.28-15.99-2.71-24.71Z"/>
  <path class="cls-4" d="M90.98,48.09c-1.32-.69-2.64-1.38-3.96-2.06-1.49-4.13-4.27-4.91-8.11-3.23-1.93,.84-3.93,1.51-5.9,2.26-4.57,1.43-9.25,1.25-13.94,.93-4.82-5.39-10.23-5.49-16.63-2.7-5.42,2.36-10.97,3.6-15.58-2.69-2.35-3.21-6.45-1.95-9.68-.25-2.99,1.57-5.93,3.03-9.45,2.57-1.72-.23-3.53-.32-3.19-2.77,.33-2.42,1.89-1.63,3.37-1.22,2.45,.68,4.52-.43,6.64-1.46,6-2.92,11.77-3.78,16.66,2.17,1.48,1.8,3.55,1.77,5.53,1.26,2.58-.66,5.13-1.46,7.61-2.41,5.42-2.07,10.35-1.88,14.77,2.39,2.45,2.37,5.62,1.87,8.54,1.24,3.08-.67,6.09-1.7,9.06-2.77,5.1-1.84,9.75-2.38,13.04,3.21,1.36,2.31,3.32,1.75,5.17,.53,2.23-1.46,4.34-3.13,6.65-4.43,4.87-2.74,8.41-2.02,11.86,2.44,1.44,1.86,2.78,1.99,4.67,.83,3.12-1.91,6.24-3.8,9.71-5.09,5.44-2.02,10.48-2.99,15.1,1.98,2.24,2.41,5.14,1.93,7.7,0,1.6-1.2,3.14-2.47,4.71-3.71q7.28-5.78,14.88-.73c3.89,2.59,8.15,2.47,12.53,1.82,1.53-.23,3.61-1.02,4.11,1.39,.49,2.36-1.35,3.25-3.22,3.65-6.01,1.28-11.81,.41-16.57-3.44-3.24-2.62-5.46-2.13-8.17,.39-1.94,1.81-4.1,3.42-6.31,4.89-4.01,2.66-8.54,3.25-11.9-.39-4.83-5.23-9.51-3.12-14.37-.83-2.55,1.2-4.87,2.87-7.29,4.33-2.36,.8-4.7,1.07-7.01-.19-4.44-6.51-5.44-6.69-11.75-2.03-1.17,.87-2.28,1.81-3.42,2.72-1.95,.46-3.9,.91-5.85,1.37Z"/>
  <path class="cls-7" d="M79.89,25.56c-2.08-.15-4.55-.82-6.14-2.92-2.25-2.96-4.59-2.55-7.35-.89-5.17,3.12-9.52,7.24-14.07,11.12-1.14,.97-2.12,2.23-3.83,1.97-.77-.12-1.74-.27-2.21-.78-.7-.75,.04-1.56,.62-2.12,6.15-5.83,12.22-11.75,19.97-15.54,3.68-1.8,6.81-1.26,9.26,2,2.31,3.06,5.06,2.91,7.9,1.2,4.7-2.82,9.33-5.76,13.9-8.79,2.67-1.78,5.51-2.2,8.56-1.76,1.45,.21,2.58,.96,2.5,2.57-.06,1.32-1,2.27-2.3,2.15-6.77-.64-10.77,4.59-15.86,7.44-3.35,1.88-6.53,3.98-10.97,4.35Z"/>
  <path class="cls-6" d="M139.86,28.45c-.12,1.63-1.39,2.12-2.73,2.24-2.27,.2-4.06-1.14-4.74-2.99-2.02-5.51-4.65-3.85-7.71-1.08-1.39,1.26-3.38,2.4-4.76,.49-1.7-2.35,1.08-2.9,2.33-3.94,1.14-.95,2.34-1.85,3.55-2.71,5.07-3.61,6.04-3.38,8.88,2.26,.84,1.67,1.68,3.21,3.51,3.98,.76,.32,1.5,.73,1.67,1.75Z"/>
  <path class="cls-2" d="M118.5,10.89c2.92,.73,4.35,3.47,6.02,5.86,.48,.68-.2,1.6-1.04,1.96-1.57,.66-3.08,.31-4-1.02-1.25-1.81-3.69-3.05-3.3-5.73,.13-.89,1.13-1.09,2.32-1.07Z"/>
  <path class="cls-9" d="M96.84,46.72c1.14-.91,2.25-1.86,3.42-2.72,6.3-4.66,7.31-4.49,11.75,2.03-4.62,1.01-9.5,.22-14.01,2-.39-.43-.77-.87-1.16-1.3Z"/>
  <path class="cls-10" d="M73.01,45.05c1.97-.75,3.97-1.41,5.9-2.26,3.84-1.68,6.63-.9,8.11,3.23-4.73,.52-9.42,.43-14.01-.98Z"/>
  <path class="cls-5" d="M96.84,46.72c.39,.43,.77,.86,1.16,1.3-2.33,.8-4.63,4.21-7.01,.07,1.95-.46,3.9-.91,5.85-1.37Z"/>
  <path class="cls-8" d="M66.55,48.2c-.59,.54-1,1.2-1.49,1.28-.89,.15-.94-.67-.85-1.31,.12-.75,.69-1.11,1.39-.94,.32,.08,.55,.54,.95,.97Z"/>
</svg>