<?xml version="1.0" encoding="UTF-8"?>
<svg id="_Слой_1" data-name="Слой 1" xmlns="http://www.w3.org/2000/svg" viewBox="0 0 190 145">
  <defs>
    <style>
      .cls-1 {
        fill: #81bf69;
      }

      .cls-2 {
        fill: #8f7db4;
      }

      .cls-3 {
        fill: #85c16e;
      }

      .cls-4 {
        fill: #7ebd65;
      }

      .cls-5 {
        fill: #bdb2d5;
      }

      .cls-6 {
        fill: #bcddaf;
      }

      .cls-7 {
        fill: #8c79b5;
      }

      .cls-8 {
        fill: #83c06c;
      }

      .cls-9 {
        fill: #8ec579;
      }

      .cls-10 {
        fill: #a798c6;
      }

      .cls-11 {
        fill: #836ead;
      }

      .cls-12 {
        fill: #7cbd63;
      }

      .cls-13 {
        fill: #8f7db6;
      }

      .cls-14 {
        fill: #87c170;
      }

      .cls-15 {
        fill: #b0d6a0;
      }

      .cls-16 {
        fill: #98ca85;
      }

      .cls-17 {
        fill: #806aac;
      }

      .cls-18 {
        fill: #afa1cb;
      }

      .cls-19 {
        fill: #8cc576;
      }

      .cls-20 {
        fill: #9381b8;
      }

      .cls-21 {
        fill: #beb2d5;
      }

      .cls-22 {
        fill: #8571ae;
      }

      .cls-23 {
        fill: #cee6c5;
      }

      .cls-24 {
        fill: #8a76b3;
      }
    </style>
  </defs>
  <path class="cls-17" d="M98.85,119.78c8.66-3.91,17.06-8.24,23.97-14.94,12.63-12.25,14.49-26.91,5.39-42.12-14.52-24.25-44.81-28.74-66.67-9.74-12.7,11.04-20.78,24.36-18.54,41.97,1.5,11.81,6.99,21.37,17.36,27.78,1.77,1.09,3.72,1.2,5.67,1.42,.79,1.03,1.96,.68,3,.89,2.67,.55-.2,1.2,0,1.81-.34,0-.69,0-1.03,0-1.55-1.48-3.43-.72-5.19-.76-2.62,.19-4.82-.8-6.83-2.37-.9-.57-1.8-1.14-2.7-1.72-16.25-13.9-20.12-38.43-6.93-57.92,11.61-17.16,27.15-27.86,48.73-26.98,23.52,.96,44.49,23.41,43.97,46.63-.09,4.06-.96,7.96-2.7,11.57-6.93,14.39-18.75,22.43-34.06,25.83-1.22-.25-2.67,.06-3.42-1.37Z"/>
  <path class="cls-11" d="M110.04,31c-.34-4.19,2.82-6.09,5.92-8.57-5.78-4.29-9.84-10.47-17.11-12.5-9.63-2.68-28.3,3.36-34.67,11.28-2.83,3.52-.72,8.26,4.4,9.91,4.19,1.35,4.51,2.29,1.34,5.28-2.54,2.39-5.4,4.43-8.08,6.68-4.59,3.85-9.14,7.75-13.74,11.59-1.88,1.57-1.89,1.51-2.83-1.1-.15-.4-.68-.65-.99-1.01-4.09-4.76-4.73-10.29-1.6-15.49,1.19-1.97,2.86-3.64,.92-6.1-.72-.92-.11-1.97,.74-2.6,1.04-.76,2.71-.92,3.09,.18,.87,2.51,1.94,1.48,3.22,.63,.27-.18,.59-.31,.88-.46,2.88-1.5,8.11-6.33,10.25-8.94,6.02-7.34,14.48-10.32,23.25-12.69,12.11-3.27,21.53,1.17,29.1,10.44,2.34,2.86,4.55,5.18,8.67,3.68,.85-.31,2.05-.11,2.94,.24,2.4,.93,4.07,.55,5.27-1.93,.61-1.27,1.99-2.01,3.37-1.17,1.12,.68,1.18,2.18,.64,3.17-1.56,2.85-.43,5.13,.62,7.86,2.4,6.2,2.42,12.37-2.64,17.61-3.78-.81-1.41-2.87-.82-4.41,3.08-8.07-.28-16.12-7.71-17.14-4.97-.69-9.31,1.45-12.52,5.49l-1.9,.07Zm-60.98,18.04c4.91-4.43,9.9-8.79,14.71-13.32,2.86-2.69,2.5-4.26-1.11-5.65-1.18-.45-2.36-.83-3.82-.59-8.73,1.41-15.06,8.78-14.79,17.51,.9,4.63,1.62,4.92,5.01,2.05Z"/>
  <path class="cls-12" d="M99.1,86.16c-6.54,6.84-13.06,13.69-19.63,20.5-1.97,2.04-3.86,4.11-5.33,6.54-.7,1.16-1.73,2.35-3.22,1.47-1.44-.84-1.09-2.4-.42-3.55,1.99-3.45,4.14-6.8,6.24-10.19,2.1-3.39,4.2-6.77,6.35-10.13,1.57-2.46,.64-3.31-1.93-3.07-3.47,.33-6.93,.76-10.39,1.1-4.68,.46-5.6-.67-3.88-4.94,1.1-2.75,2.08-5.59,4.01-7.93,2.69-1.69,3.61-4.33,3.97-7.29,.46-2.17,1.58-4.01,2.85-5.78,.76-.3,1.53-.6,2.29-.9h0c.01,.36,.03,.72,.04,1.08-2.7,6.71-5.89,13.25-7.76,20.26,.68,.27,.98,.49,1.29,.49,3.33,.05,6.66,.06,9.99,.09,6.33,.06,7.31,1.68,4.43,7.07-.57,1.07-1.94,1.85-1.5,3.78,3.89-3.48,7.31-7.06,11.4-9.84,.4,.41,.8,.83,1.21,1.24Z"/>
  <path class="cls-21" d="M111.94,30.93c3.21-4.04,7.55-6.17,12.52-5.49,7.43,1.03,10.8,9.07,7.71,17.14-.59,1.54-2.96,3.6,.82,4.41-.36,.68-.71,1.36-1.07,2.04-1.97-.97-2.39-3.33-4.48-4.43-5.56-2.9-10.41-6.91-15.38-10.71-.04-.99-.08-1.98-.12-2.97Z"/>
  <path class="cls-8" d="M151.45,60.42c-4.4-.83-6.45,4.32-9.99,2.22-2.04-1.21-3.67-3.15-4.81-5.48,.74-.24,1.2-.48,1.27-.39,3.6,4.22,7.08,2.9,11.15,.4,2.73-1.68,6.63-5.34,9.16-2.29,1.79,2.16-2.97,4.84-4.64,7.4-1.16,1.78-3.1,3-3.95,5.38,1.87,.89,3.5,.16,5.17-.36,9.56-2.94,19.34-4.74,29.27-5.8,1.47-.16,3.31-.74,3.7,1.27,.32,1.64-1.41,2.1-2.67,2.39-2.08,.49-4.1,3.14-6.45,.02-.47-.63-2.83,.1-4.3,.31-7.91,1.12-15.48,3.67-23.24,5.43-1.83,.41-4.62,1.94-5.89-.27-1.25-2.17,1.41-3.77,2.54-5.5,.97-1.49,2.19-2.82,3.68-4.71Z"/>
  <path class="cls-4" d="M83,59.99c5.57-1.74,11.31-2.28,17.11-2.24,1.24,0,2.9-.47,3.47,1.11,.51,1.43-.83,2.4-1.63,3.39-2.66,3.28-5.38,6.52-8.65,10.47,5.24-.14,9.46-1.09,13.67-.47,3.83,.56,4.31,1.77,2.17,4.84-.74-.68-1.48-1.36-2.22-2.03-5.16-.48-10.23,.39-15.33,.96-3.15,.35-4.11-.7-2.24-3.55,1.73-2.64,3.57-5.18,5.92-7.32,.95-.87,2.28-1.87,1.36-3.34-.85-1.34-2.49-.97-3.65-.55-2.59,.94-5.22,.79-7.87,.8-1.7-.02-3.4-.04-5.11-.06h0c1-.67,2-1.34,3-2.01Z"/>
  <path class="cls-1" d="M27.57,76.84c-5.11-.11-9.5-1.99-13.96-3.55-1-.35-1.84-.95-1.57-2.16,.28-1.25,1.41-1.27,2.38-1.27,3.82,0,7.64,.06,11.46,.09,1.8,.01,3.61,0,5.41,0,.17-2.28-1.52-4.65,.72-6.24,1.78-1.26,3.83-.66,5.72,.13,.86,.36,2.18,.59,1.74,1.9-.39,1.17-1.54,.99-2.54,.69-.78-.23-1.57-.54-2.39-.08-.13,.27-.38,.55-.37,.82,.1,2.15,3.57,3.38,2.17,5.6-1.66,2.64-4.23-.03-6.42,.15-2.93,.23-5.82-1.17-8.86-.51,1.3,2.59,5.17,1.26,6.5,4.44Z"/>
  <path class="cls-22" d="M112.07,33.91c4.97,3.8,9.83,7.81,15.38,10.71,2.09,1.09,2.52,3.46,4.48,4.43,1.18,3.07-.49,2.18-1.89,1.3-3.94-2.48-7.87-4.99-11.72-7.6-4.27-2.89-8.48-5.89-12.67-8.9-1.03-.74-2.79-1.54-2.06-2.98,.8-1.58,2.32-.44,3.49,.1,.6,.28,1.19,.6,1.78,.9,1.07,.68,2.14,1.37,3.21,2.05Z"/>
  <path class="cls-1" d="M17.05,120.12c-.84,1.49-2.5,2.53-2.5,4.57,4.79-.77,8.78-3.66,13.41-4.71,.76,.07,1.53,.1,1.98,.87-7.55,3.27-15.18,6.35-22.22,10.7-.97,.6-2.41,1.97-3.44,.32-.88-1.41,.58-2.44,1.5-3.33,3.7-3.58,7.44-7.11,11.17-10.66l.08,2.25Z"/>
  <path class="cls-8" d="M17.05,120.12l-.08-2.25c2.03-2.16,4.09-4.3,6.07-6.5,1.45-1.61,4.34-3.08,.67-5.45-.72-.47-.4-1.54,.11-2.26,1.79-2.48,3.48-5.07,6.23-6.79,1.35,2.02-.35,2.96-.79,4.24-.16,.46-1.24,1.19-.09,1.5,5.5,1.5,1.22,3.14,.09,4.67-3.53,4.78-7.64,9.01-12.2,12.82Z"/>
  <path class="cls-7" d="M90.19,23.02c1.12,.23,2.11,.35,3.04,.64,.81,.25,1.53,.76,1.53,1.73,0,1.01-.75,1.58-1.61,1.52-3.37-.25-3.45,1.59-2.75,4.06,.35,1.23,.2,2.49-1.14,2.89-1.69,.5-2.36-.87-2.78-2.16-.66-2.04,.31-5.59-4.01-4.01-.25,.09-.92-.4-1.09-.76-.34-.75,.29-1.25,.82-1.6,2.46-1.62,5.37-1.59,7.99-2.31Z"/>
  <path class="cls-3" d="M147.56,106.63c-.35-.79-.47-1.08-.61-1.37-.7-1.42-3.95-2.27-2.1-4.01,1.48-1.39,3.02,1.25,4.28,2.37,3.63,3.24,3.67,3.76-.41,5.43-2.24,.92,1.15,2.67-.73,2.84-1.91,.18-3.26-1.4-4.72-2.42-.68-.48-1.33-1.3-.73-2.07,.81-1.04,2.13-.59,3.26-.61,.49,0,.98-.09,1.77-.17Z"/>
  <path class="cls-24" d="M130.09,128.69c-5.2-2.01-7.66-6.82-11.04-10.65-.21-.24-.11-1.03,.13-1.35,.64-.86,1.52-.52,2.19-.03,4.16,3.06,7.31,6.88,8.73,12.03Z"/>
  <path class="cls-13" d="M53.26,122.02c.9,.57,1.8,1.14,2.7,1.72-1.77,1.85-1.59,4.58-2.99,6.6-.81,1.17-1.37,3.2-3.11,2.46-1.75-.75-.82-2.52-.2-3.8,1.14-2.35,2.39-4.65,3.6-6.98Z"/>
  <path class="cls-9" d="M150.11,86.96c-2.73-7.5-1.77-9.38,5.71-11.17,.38,.39,.76,.78,1.14,1.17-.52,.81-.92,1.85-1.98,1.96-3.7,.39-4.25,2.77-3.85,5.83-.14,.83-.14,1.72-1.02,2.22Z"/>
  <path class="cls-19" d="M106.91,75.06c.74,.68,1.48,1.36,2.22,2.03l-10.03,9.07c-.4-.41-.8-.83-1.21-1.24,1.43-2.03,3.23-3.65,5.29-5.06,1.72-1.18,3.7-2.27,3.73-4.81Z"/>
  <path class="cls-9" d="M29.94,120.85c-.45-.77-1.22-.8-1.98-.87,2.5-1.69,5.31-2.42,8.99-2.98-2.16,2.69-4.45,3.52-7.01,3.86Z"/>
  <path class="cls-20" d="M98.85,119.78c.75,1.43,2.2,1.11,3.42,1.37-3.23,1.59-6.8,.87-11.24,2.01,2.9-2.44,5.34-2.93,7.81-3.37Z"/>
  <path class="cls-2" d="M69.01,126.86c-.19-.61,2.68-1.26,0-1.81-1.04-.21-2.21,.14-3-.89,2.91-.12,5.84-.43,8.67,1.19-1.79,1.49-3.65,1.81-5.68,1.51Z"/>
  <path class="cls-14" d="M74.86,68.68c-.36,2.96-1.28,5.6-3.97,7.29,.81-2.71,2.16-5.13,3.97-7.29Z"/>
  <path class="cls-16" d="M150.11,86.96c.88-.49,.87-1.39,1.02-2.22,.31,.74,.79,1.45,.88,2.21,.15,1.23,.53,3.24-1.14,3.17-1.69-.08-.53-2.05-.76-3.17Z"/>
  <path class="cls-23" d="M160.94,73.94c1.55-1.17,3.3-1.71,5.56-1.86-1.32,1.82-3.07,2.14-4.59,2.82-.32-.32-.65-.64-.97-.96Z"/>
  <path class="cls-15" d="M160.94,73.94c.32,.32,.65,.64,.97,.96-1.65,.69-3.3,1.37-4.95,2.06-.38-.39-.76-.78-1.14-1.17,1.54-1.07,3.35-1.42,5.12-1.85Z"/>
  <path class="cls-14" d="M83,59.99c-1,.67-2,1.34-3,2.02-.76,.3-1.53,.6-2.29,.9,.8-2.72,2.86-3.15,5.29-2.91Z"/>
  <path class="cls-10" d="M112.07,33.91c-1.07-.68-2.14-1.37-3.21-2.05,.39-.28,.79-.57,1.18-.85l1.9-.07c.04,.99,.08,1.98,.12,2.97Z"/>
  <path class="cls-2" d="M62.79,126.1c1.76,.04,3.64-.72,5.19,.76-1.79,.16-3.61,.53-5.19-.76Z"/>
  <path class="cls-5" d="M44.05,46.99c-.27-8.73,6.06-16.1,14.79-17.51,1.46-.24,2.64,.14,3.82,.59,3.61,1.39,3.97,2.95,1.11,5.65-4.82,4.53-9.8,8.89-14.71,13.32-2.09,.35-3.46-1.06-5.01-2.05Z"/>
  <path class="cls-18" d="M44.05,46.99c1.54,.99,2.92,2.4,5.01,2.05-3.38,2.87-4.1,2.58-5.01-2.05Z"/>
  <path class="cls-6" d="M106.91,75.06c-.02,2.54-2,3.63-3.73,4.81-2.06,1.4-3.85,3.03-5.29,5.06-4.09,2.78-7.51,6.37-11.4,9.84-.44-1.93,.93-2.72,1.5-3.78,2.88-5.39,1.9-7.01-4.43-7.07-3.33-.03-6.66-.04-9.99-.09-.31,0-.61-.23-1.29-.49,1.87-7.01,5.06-13.54,7.76-20.26,1.69-.34,3.61,.5,5.06-1.02,2.65,0,5.28,.14,7.87-.8,1.16-.42,2.8-.79,3.65,.55,.93,1.47-.41,2.47-1.36,3.34-2.35,2.14-4.19,4.68-5.92,7.32-1.87,2.85-.9,3.9,2.24,3.55,5.09-.57,10.17-1.45,15.33-.96Z"/>
  <path class="cls-14" d="M85.1,62.06c-1.45,1.52-3.37,.68-5.06,1.02l-.04-1.08c1.7,.02,3.4,.04,5.11,.06Z"/>
</svg>