<?xml version="1.0" encoding="UTF-8"?>
<svg id="_Слой_1" data-name="Слой 1" xmlns="http://www.w3.org/2000/svg" viewBox="0 0 190 145">
  <defs>
    <style>
      .cls-1 {
        fill: #7f69ac;
      }

      .cls-2 {
        fill: #7e68ac;
      }

      .cls-3 {
        fill: #7f68ad;
      }

      .cls-4 {
        fill: #7abb62;
      }

      .cls-5 {
        fill: #f9fcf8;
      }

      .cls-6 {
        fill: #8069ad;
      }

      .cls-7 {
        fill: #7abb61;
      }

      .cls-8 {
        fill: #7dbc65;
      }

      .cls-9 {
        fill: #cee5c4;
      }
    </style>
  </defs>
  <path class="cls-2" d="M28.99,110.03c-2.31,1.06-3.38,.46-4.38-2.09-2.97-7.65-2.53-15.72-3.18-23.61-.66-8.11-.26-16.3-.51-24.46-.11-3.73,1.56-5.83,4.88-7.19,5.33-2.19,10.99-2.88,16.59-3.26,11.96-.82,23.95-.49,35.88,.88,2.15,.25,4.35,.8,4.77,3.55-.51,15.73,2.16,31.32,1.95,47.03-.84,.57-1.57,1.39-2.74,1.21-3.76,.96-8.06-.15-11.26,2.93l-.37,.16s-.39-.1-.39-.1c-9.34,.75-18.69,1.35-28,2.33-4.46,.47-9.25-.34-13.25,2.62Zm49.92-21.01l.04,.06c-.09-6.63,.55-13.27-.89-19.87-.93-4.24,2.22-10.2-1.58-12.55-3.28-2.03-8.73-.54-13.21-.61-.17,0-.33,.02-.5,.03-10.45,.05-20.9-.17-31.33,1.14-4.01,.51-4.83,2.3-4.43,5.87,1.4,12.54,2.7,25.08,3.9,37.64,.25,2.59,1.33,2.81,3.59,2.48,6.06-.9,12.05-2.45,18.24-2.3,7.26,.28,14.46,.1,21.27-2.92l.35-.17,.38,.09q5.45,.16,5.31-2.9c-.21-.22-.25-.47-.13-.74-.14-1.79,.85-3.79-1-5.25Z"/>
  <path class="cls-3" d="M123,74.04c3.95,10,7.87,20.01,11.86,29.99,1.85,4.63,4.07,9.12,5.71,13.82,1.28,3.65,1.57,7.43-3.51,8.65-18.25,4.35-36.73,5.74-55.42,4.1-.29-.03-.55-.34-.83-.53,8.79-.03,17.58-.1,26.37-.05,2.98,.02,4.59-1.81,4.47-4.22-.15-3.15-3.26-1.99-4.72-1.63-5.92,1.46-11.88,.55-17.82,.79-1.22,.05-3.1,.7-3.52-.87-.44-1.68,1.21-2.47,2.65-3.01-1.82,3.32,.47,3.02,2.58,2.96,12.8-.4,25.48-1.97,38.17-3.58,3.03-.39,4-1.04,2.29-4.24-5.41-10.13-9.58-20.8-13.18-31.7-.38-1.14-.54-2.53-1.96-3.31-1.09,1.43-2.07,2.71-3.06,3.99-.75-5.42,6.49-5.64,6.38-11.09,1.85,2.1,3.52,4.37,3.53-.07Z"/>
  <path class="cls-3" d="M105.93,40.41c-6.76-4.94-8.04-13.26-3.25-21.24,9.08-15.15,30.91-18.66,44.42-7.3,5.87,4.94,10.36,15.81,4.87,23.04-2.12-1.01-4.24-2.02-6.36-3.03,1.71-5.9,.35-10.76-4.62-14.61-8.84-6.84-23.26-5.02-30.07,3.89-1.02,1.33-2.14,2.64-1.18,4.49-3.58,4.32-4.68,9.29-3.81,14.76Z"/>
  <path class="cls-2" d="M88.25,121.08c-1.44,.54-3.09,1.33-2.65,3.01,.42,1.57,2.3,.92,3.52,.87,5.93-.23,11.89,.68,17.82-.79,1.46-.36,4.57-1.52,4.72,1.63,.12,2.41-1.49,4.23-4.47,4.22-8.79-.05-17.58,.03-26.37,.05-4.21-2.1-2.15-5.18-.66-7.45,3.64-5.56,7.89-10.72,11.61-16.22,5.21-7.71,10.17-15.59,15.24-23.4,4.47-3.7,5.19-9.22,6.92-14.25,.32-.27,.64-.53,.95-.8,2.21,1.34,4.36,2.79,7.04,3.03,.36,1.02,.73,2.04,1.09,3.06-.01,4.44-1.69,2.17-3.53,.07,.11,5.46-7.13,5.68-6.38,11.09-6.66,13.08-14.76,25.16-24.84,35.88Z"/>
  <path class="cls-7" d="M163.33,56.89c2.64,.01,4.87-.32,5.17,2.15,.24,2-1.66,2.79-3.26,3.21-2.72,.72-5.49,1.46-8.27,1.66-3.73,.27-5.89,1.18-3.77,5.35,.07,.15,.13,.32,.14,.48,.22,5.27,1.87,8.01,8.1,6.36,3.86-1.02,6.92,1.62,8.48,5.44,1.63,3.99,.21,7.11-2.83,9.74-3,2.59-6.66,3.87-10.45,4.36-4.71,.62-5.97-3.22-6.54-6.62-1.27-7.53-2.01-15.15-2.97-22.73-.56-4.39,.18-7.42,5.73-7.54,3.76-.08,7.5-1.3,10.46-1.87Zm-7.5,28.87c.37,.96-.87,3.72,1.87,3.1,2.73-.62,6.18-1.36,6.72-4.84,.32-2.09-1.64-3.09-3.7-2.93-2.64,.21-5.59,.26-4.89,4.67Z"/>
  <path class="cls-1" d="M105.93,40.41c-.88-5.47,.23-10.44,3.81-14.76,1.93,1.92,1.07,4.38,1.16,6.59,.38,9.16,7.25,14.78,16.06,12.54,7.72-1.96,14.28-5.94,18.65-12.91,2.12,1.01,4.24,2.02,6.36,3.03-4.6,9.98-13.4,14.42-23.31,16.73-8.3,1.93-15.45-.48-20.17-8.2-.68-1.11-1.7-2.02-2.56-3.03Z"/>
  <path class="cls-4" d="M81.57,35.02c.1,2.34-.17,3.65-1.78,4.01-1.54,.34-2.39-.72-3.22-1.85-4.9-6.66-9.72-6.37-14.15,.77-.94,1.52-1.43,4.51-4.02,3.11-2.3-1.24-.23-3.54-.17-5.4,.22-6.42,6.22-9.43,8.36-14.7,1.25-3.07,3.06-5.9,3.39-9.33,.14-1.45,1.03-2.45,2.57-2.63,1.52-.17,3,.51,3.04,1.93,.28,8.76,4.08,16.64,5.98,24.07Zm-10.44-7.39c.74-.18,.97-.7,.89-1.38-.09-.78-.64-1.1-1.29-.84-.35,.14-.71,.71-.72,1.1-.01,.61,.28,1.22,1.12,1.12Z"/>
  <path class="cls-8" d="M72.48,110.41c1.71-.15,2.87,.16,3.4,1.35,.57,1.27-.18,2.27-1.17,2.98-.79,.58-1.7,1.32-2.6,1.38-6.06,.41-6.09,3.76-4.58,8.4,1.07,3.29,1.6,6.78,2.2,10.21,.29,1.65,.3,3.52-1.82,4.08-1.9,.5-2.65-.99-3.18-2.43-2.44-6.62-2.85-13.61-3.58-20.54-.16-1.52,.71-2.57,2.13-2.98,3.19-.91,6.41-1.72,9.19-2.45Z"/>
  <path class="cls-6" d="M85,100.89c.21-15.71-2.45-31.31-1.95-47.03,1.34,5.96,1.38,12.06,1.67,18.11,.36,7.59,.89,15.15,1.85,22.68,.29,2.27,.71,4.61-1.57,6.24Z"/>
  <path class="cls-6" d="M28.99,110.03c3.99-2.96,8.79-2.15,13.25-2.62,9.31-.98,18.66-1.58,28-2.33-9.47,2.57-19.27,2.55-28.92,3.76-4.09,.51-8.22,.8-12.33,1.19Z"/>
  <path class="cls-3" d="M113.91,68.75c-1.73,5.03-2.45,10.55-6.92,14.25,2.17-4.81,3.66-9.96,6.92-14.25Z"/>
  <path class="cls-3" d="M121.91,70.98c-2.68-.24-4.83-1.7-7.04-3.03,3.68-2.09,5.94-.87,7.04,3.03Z"/>
  <path class="cls-6" d="M70.99,105.02c3.21-3.08,7.51-1.96,11.26-2.93-3.42,2.27-7.3,2.77-11.26,2.93Z"/>
  <path class="cls-6" d="M78.95,89.08c-1.55-8.6-2.04-17.31-1.74-26,.16-4.77-1.47-6.51-6.15-6.33-2.74,.11-5.61,.51-8.29-.68,.16,0,.33-.03,.5-.03,4.49,.06,9.94-1.42,13.21,.61,3.8,2.35,.66,8.31,1.58,12.55,1.44,6.6,.8,13.24,.89,19.87Z"/>
  <path class="cls-6" d="M52.73,100.91c7.02-1.52,14.12-2.43,21.27-2.92-6.81,3.02-14.01,3.2-21.27,2.92Z"/>
  <path class="cls-6" d="M74.72,97.91c1.53-1.4,4.52-.13,5.31-2.9q.14,3.06-5.31,2.9Z"/>
  <path class="cls-6" d="M79.91,94.27c-1.12-1.6-1.25-3.39-1-5.25,1.85,1.46,.86,3.47,1,5.25Z"/>
  <path class="cls-5" d="M155.83,85.76c-.69-4.4,2.25-4.45,4.89-4.67,2.06-.17,4.03,.84,3.7,2.93-.54,3.49-4,4.23-6.72,4.84-2.75,.62-1.5-2.15-1.87-3.1Z"/>
  <path class="cls-9" d="M71.13,27.64c-.84,.1-1.13-.51-1.12-1.13,0-.38,.37-.96,.72-1.1,.66-.27,1.2,.06,1.29,.84,.08,.68-.15,1.2-.89,1.39Z"/>
</svg>