<?xml version="1.0" encoding="UTF-8"?>
<svg id="_Слой_1" data-name="Слой 1" xmlns="http://www.w3.org/2000/svg" viewBox="0 0 190 145">
  <defs>
    <style>
      .cls-1 {
        fill: #eef6eb;
      }

      .cls-2 {
        fill: #7e69ab;
      }

      .cls-3 {
        fill: #ece9f2;
      }

      .cls-4 {
        fill: #edf4eb;
      }

      .cls-5 {
        fill: #7f6bac;
      }

      .cls-6 {
        fill: #eaf4e7;
      }

      .cls-7 {
        fill: #f0edf5;
      }

      .cls-8 {
        fill: #806cad;
      }

      .cls-9 {
        fill: #7e69ac;
      }

      .cls-10 {
        fill: #7abb60;
      }
    </style>
  </defs>
  <path class="cls-7" d="M147.23,95.07c-3.36-.46-7.23-3.14-9.3,2.11-.99,1.75-2.56,3.41-2.86,5.27-1.52,9.43-2.71,18.91-4.01,28.37-2.39-.94-4.7-2.28-7.17-2.73-6.37-1.16-12.8-2.08-19.24-2.79-2.65-.29-2.95-1.11-2.77-3.68,.69-10.03-2.66-18.67-10.18-25.47-9.87-8.92-23.56-5.35-27.33,7.4-1.33,4.51-1.6,9.49-1.42,14.23,.15,4.1-.59,5.59-5,5.12-6.1-.65-12.28-.67-18.43-.86-13.63-.41-14.07,.19-11.95-14.86,2.44-17.27,5.82-34.4,8.6-51.63,1.53-9.51,2.53-19.11,4.07-28.62,.27-1.66,2.17-4.51,2.99-4.4,9.59,1.29,19.12,3.05,28.3,4.62-1.53,5.31-3.32,9.99-4.19,14.83-1.68,9.38,2.71,16.93,11.71,18.32,5.79,.9,11.98-.7,17.98-1.18,5.09-3.05,12.34-4.89,13.59-10.89,1.19-5.69-1.1-12.1-1.9-18.45,1.68,.1,3.96,.23,6.24,.36-1.37,3.79-2,7.5,1.06,10.85,2.67,1.34,5.33,2.69,8,4.03,1.04,.33,2.26,.43,3.08,1.05,.98,.73,2.46,2.09,2.29,2.85-1.14,5.06-1.34,9.32,5.45,9.93,.12,.01,.21,.24,.32,.36-.16,9.38,1.13,11.13,7.78,10.63-1.2,4.38,2.28,2.7,4.1,3.16,0,1.39,0,2.78,0,4.58,1.03-.5,1.49-.64,1.87-.91,11.74-8.26,19.75-4.42,21.41,6.7,.22,1.48,.41,2.96,.72,4.42,1.03,4.84-1.42,6.82-5.84,6.96-5.99,.19-11.98,.21-17.98,.3Z"/>
  <path class="cls-9" d="M97.03,59.12c-6.01,.48-12.19,2.08-17.98,1.18-9-1.39-13.4-8.95-11.71-18.32,.87-4.84,2.66-9.52,4.19-14.83-9.18-1.57-18.71-3.32-28.3-4.62-.82-.11-2.72,2.74-2.99,4.4-1.53,9.51-2.53,19.11-4.07,28.62-2.77,17.22-6.16,34.36-8.6,51.63-2.12,15.05-1.68,14.45,11.95,14.86,6.15,.19,12.32,.21,18.43,.86,4.41,.47,5.15-1.02,5-5.12-.17-4.73,.09-9.72,1.42-14.23,3.77-12.75,17.46-16.32,27.33-7.4,7.52,6.8,10.87,15.44,10.18,25.47-.18,2.57,.11,3.39,2.77,3.68,6.44,.7,12.87,1.62,19.24,2.79,2.47,.45,4.79,1.79,7.17,2.73-.02,.39-.04,.77-.06,1.16-2.27,3.79-5.92,2.95-9.28,2.59-7.2-.77-14.38-1.75-21.57-2.64-3.85-.61-4.48-2.55-3.2-6.15,.72-2.01,.12-4.5,.11-6.78,.03-8.77-4.45-15.29-11.1-20.14-6.6-4.82-14.67-1.11-16.82,7.41-1.49,5.91-3.27,11.84-1.25,18.08,1.31,4.06-1.2,5.66-4.69,5.49-10.61-.52-21.26-.88-31.78-2.21-3.94-.5-7.17-2.37-8.81-8.12-3.49-12.18,.24-23.27,2.05-34.68,3.19-20.09,6.93-40.1,10.33-60.16,.29-1.73,0-3.63-.35-5.38-.66-3.27,1.71-5.58,5.04-4.89,9.17,1.91,18.36,3.69,27.52,5.61,4.33,.91,8.65,1.93,12.88,3.19,.43,.13,.8,2.62,.28,3.4-3.93,5.88-5.55,12.32-5.4,19.31,.08,3.87,1.96,6.65,5.72,6.98,4.87,.42,9.82,.08,14.73-.1,2.13-.08,4.25-.59,6.37-.91-.3,1.25-.29,2.73-.98,3.7-.98,1.38-2.48,2.39-3.76,3.55Z"/>
  <path class="cls-10" d="M142.93,69.85c-6.65,.5-7.94-1.25-7.78-10.63,2.39-15.07,5.47-13.22-10.16-14.27-.32-.02-.65,.05-.98,.08-2.67-1.34-5.33-2.69-8-4.03,.35-1.58,.69-3.16,1.04-4.74,5.87-.15,11.75-.19,17.6-.52,1.5-.08,2.94-1.1,4.42-1.68l-.03,.02c.35-3.02,.7-6.03,1.05-9.05l-.04,.06c1.03-4,2.06-8.01,3.09-12.01,.52-.41,1-.92,1.58-1.2,1.9-.92,3.85-1.75,5.78-2.61,.54,2.05,1.52,4.09,1.55,6.14,.08,5.99-.35,11.99-.22,17.98,.02,.89,1.87,2.32,3.04,2.52,5.22,.88,10.5,1.38,15.75,2.06,3.25,.42,5.58,2.31,4.99,5.58-.61,3.37-3.16,5.26-6.95,4.8-4.45-.54-8.93-.81-13.35-1.5-4.15-.65-5.65,.69-6.53,5-1.24,6.15-3.84,12.02-5.86,18.01Z"/>
  <path class="cls-2" d="M147.23,95.07c5.99-.09,11.99-.11,17.98-.3,4.41-.14,6.87-2.12,5.84-6.96-.31-1.46-.5-2.94-.72-4.42-1.66-11.13-9.67-14.97-21.41-6.7-.38,.27-.84,.41-1.87,.91,0-1.8,0-3.19,0-4.58,5.27-4.45,11.23-7.56,18.08-4.97,3.23,1.22,6.68,4.04,8.23,7.07,2.27,4.44,3.26,9.65,4.15,14.65,.9,5.05-1.31,8.82-6.16,9.88-5.06,1.1-10.48,1.84-15.55,1.18-3.05-.39-5.72-3.73-8.56-5.75Z"/>
  <path class="cls-5" d="M97.03,59.12c1.28-1.17,2.78-2.17,3.76-3.55,.69-.97,.68-2.45,.98-3.7,3.94-1.2,4.8-4.24,4.03-7.7-.99-4.45-2.09-8.95-3.8-13.16-1.36-3.36-.57-4.59,2.7-5.57,6.35-1.92,12.28-.55,18.2,1.6-2.64,1.03-5.29,2.07-7.93,3.1-2.28-.13-4.55-.26-6.24-.36,.79,6.36,3.08,12.77,1.9,18.45-1.25,6-8.5,7.84-13.59,10.89Z"/>
  <path class="cls-8" d="M131,131.97c.02-.39,.04-.77,.06-1.16,1.31-9.46,2.49-18.94,4.01-28.37,.3-1.86,1.87-3.52,2.86-5.27,.66,4.66,1.95,9.35,1.83,13.99-.15,5.73-1.45,11.44-2.32,17.15-.59,3.88-2.51,5.57-6.44,3.66Z"/>
  <path class="cls-3" d="M97.06,119c0,2.27,.61,4.76-.11,6.78-1.29,3.59-.65,5.54,3.2,6.15-1.15,.03-2.51,.46-3.42,0-1.94-.96-4.41-2.03-5.2-3.74-.64-1.36,.55-3.93,1.55-5.59,.88-1.47,2.62-2.42,3.99-3.6Z"/>
  <path class="cls-4" d="M114.96,30.14c2.64-1.03,5.29-2.07,7.93-3.1,.36,.83,.93,1.63,1.04,2.48,.18,1.47,.06,2.98,.07,4.47h-.01c-2.31,.76-4.63,1.51-6.94,2.26-.35,1.58-.69,3.16-1.04,4.74-3.05-3.35-2.43-7.07-1.06-10.85Z"/>
  <path class="cls-4" d="M124.01,33.99c3.63-.68,7.36-1.05,10.85-2.19,1.34-.43,2.52-2.45,3.06-4,.98-2.84,1.42-5.86,2.08-8.81,.02,2.03,.04,4.06,.06,6.09,0,0,.04-.06,.04-.06-.35,3.02-.7,6.03-1.05,9.05,0,0,.03-.02,.03-.02-5.03-.01-10.05-.03-15.08-.04h.01Z"/>
  <path class="cls-6" d="M140.06,25.08c-.02-2.03-.04-4.06-.06-6.09,1.05-1.97,2.1-3.95,3.15-5.92-1.03,4-2.06,8.01-3.09,12.01Z"/>
  <path class="cls-1" d="M124.02,45.02c.33-.03,.66-.1,.98-.08,15.62,1.05,12.55-.8,10.16,14.27-.1-.12-.2-.35-.32-.36-6.79-.61-6.58-4.87-5.45-9.93,.17-.76-1.31-2.12-2.29-2.85-.83-.62-2.04-.72-3.08-1.05Z"/>
  <path class="cls-6" d="M124,34c5.03,.01,10.05,.03,15.08,.04-1.47,.59-2.92,1.6-4.41,1.68-5.86,.33-11.74,.37-17.6,.52,2.31-.75,4.63-1.5,6.94-2.25Z"/>
  <path class="cls-6" d="M139.05,34.07c.35-3.02,.7-6.03,1.05-9.05-.35,3.02-.7,6.03-1.05,9.05Z"/>
</svg>