<?xml version="1.0" encoding="UTF-8"?>
<svg id="_Слой_1" data-name="Слой 1" xmlns="http://www.w3.org/2000/svg" viewBox="0 0 333 93">
  <defs>
    <style>
      .cls-1 {
        fill: #83c06b;
      }

      .cls-2 {
        fill: #c6e2ba;
      }

      .cls-3 {
        fill: #7abc61;
      }

      .cls-4 {
        fill: #9683bb;
      }

      .cls-5 {
        fill: #7cbd63;
      }

      .cls-6 {
        fill: #7cbc62;
      }

      .cls-7 {
        fill: #7bbc61;
      }

      .cls-8 {
        fill: #cbc1dd;
      }

      .cls-9 {
        fill: #ebf4e7;
      }

      .cls-10 {
        fill: #7bbc62;
      }

      .cls-11 {
        fill: #7f68ac;
      }

      .cls-12 {
        fill: #80be67;
      }

      .cls-13 {
        fill: #7dbd64;
      }

      .cls-14 {
        fill: #7abb60;
      }
    </style>
  </defs>
  <path class="cls-11" d="M65,1c-.06,6.98-.22,13.97-.15,20.95,.04,4.13,2.2,5.24,5.83,3.14,1.88-1.09,3.65-2.19,5.96-2.22,4.51-.07,8.29,2.18,9.92,6.15,1.51,3.68,.6,8.29-2.18,11.1-3.06,3.09-7.39,3.82-11.47,1.94-7.59-3.5-8.1-3.16-8.1,5.41,0,4.66-.09,9.32,.04,13.98,.07,2.4-.41,3.66-3.23,3.56-5.82-.19-11.65,.02-17.47-.09-4.64-.09-5.84-2.35-3.52-6.28,3.2-5.4,3.04-9.41-.52-13.21-3.78-4.02-8.95-4.52-13.51-1.3-3.95,2.79-5.22,8.4-2.92,12.89,3.47,6.75,2.78,7.9-4.7,7.92-5.99,.01-11.98,.03-17.97,.05V1c7.67,0,15.33,0,23,0,2.72,2.39,1.96,4.59,.19,7.35-3.46,5.39-1.26,11.93,4.49,14.59,5.39,2.5,11.5-.21,13.7-6,1.32-3.47,.42-6.61-1.6-9.37-1.77-2.41-1.61-4.44,.22-6.57h24Z"/>
  <path class="cls-11" d="M314.22,3.26c-5.25,8.28-10.4,16.63-15.8,24.8-1.67,2.53-1.91,4.29-.12,7.01,6.3,9.56,12.23,19.37,18.8,29.88-6.39,0-12.09-.05-17.79,.03-1.96,.03-2.46-1.43-3.19-2.68-4.63-7.89-9.24-15.78-13.87-23.67-.82-1.4-1.69-2.76-3.37-3.97,0,6.87,.1,13.74-.04,20.6-.06,3.1,1.42,7.01-.75,9.09-1.94,1.85-5.72,.56-8.68,.59-8.21,.07-8.19,.03-8.21-7.97-.05-18.65-.12-37.31-.18-55.96h18V31.24c6.36-10.49,12.08-19.92,17.8-29.35,4.48,.04,8.96,.04,13.45,.12,1.42,.03,3.07-.51,3.97,1.24Z"/>
  <path class="cls-11" d="M112,1c5.52,17.03,11.05,34.07,16.57,51.1,1.33,4.1,2.65,8.19,4.17,12.89-5.79,0-11.21-.07-16.63,.04-2.06,.04-2.48-1.34-2.91-2.75-.72-2.38-1.44-4.77-1.93-7.2-.33-1.66-1.16-2.11-2.73-2.09-5.33,.07-10.66,.13-15.98-.03-1.95-.06-2.67,.88-3.14,2.42-.1,.32-.17,.64-.29,.95-1.01,2.76-.35,6.61-2.85,8.19-2.39,1.51-5.84,.39-8.82,.46-2.98,.07-5.95,.02-9.47,.02,1.8-5.63,3.46-10.78,5.08-15.93,.51-1.62,1.46-1.69,3.04-1.61,7.54,.36,13.11-3.46,15.26-10.18,2.07-6.45-.16-12.51-6.38-16.79-1.41-.97-2.22-1.6-1.51-3.51,1.96-5.28,3.69-10.64,5.52-15.97,7.67,0,15.33,0,23,0Zm-11.32,12.57c-2.33,8.43-5.18,16.59-6.6,25.4,4.74-.24,8.81,.53,13-.56-2.2-8.53-4.3-16.69-6.4-24.85Z"/>
  <path class="cls-11" d="M205,1c.07,5.49,.18,10.97,.2,16.46,.03,6.5-.56,6.39,6.1,6.38,3.48,0,6.94,.09,10.36,1.11,7.44,2.23,12.04,7.19,13.16,14.7,1.2,7.99-.71,15.22-7.67,20.34-4.89,3.59-10.55,4.76-16.43,4.92-5.99,.16-11.98,.05-17.97,.04-4.61-.01-4.64-.03-4.64-4.56-.01-18.13,0-36.27-.01-54.4,0-1.66-.06-3.32-.1-4.98,5.67,0,11.33,0,17,0Zm.19,43.17c0,.66,0,1.33,0,1.99q.02,5.2,5.25,4.95c.83-.04,1.68-.02,2.47-.21,3.43-.84,5.48-3.99,4.98-7.54-.58-4.15-4.61-6.66-9.84-6.25-4.6,.36-2.24,3.9-2.85,6.07-.09,.31-.01,.66-.01,.99Z"/>
  <path class="cls-11" d="M257,1c-.02,19.78-.03,39.56-.05,59.34,0,4.58-.03,4.59-4.57,4.61-3.16,.02-6.32-.12-9.47,.04-2.42,.13-3.17-.8-3.13-3.17,.12-6.98,.02-13.96,.04-20.94,.05-13.29,.12-26.59,.18-39.88h17Z"/>
  <path class="cls-4" d="M135.92,1.97c-.1-.34-.08-.66,.08-.97h28c0,.32,.03,.63,.08,.94-9.39,.01-18.78,.02-28.16,.03Z"/>
  <path class="cls-4" d="M296.8,1.89c.03-.3,.1-.6,.2-.89,6.33,0,12.67,0,19,0-.59,.75-1.19,1.51-1.78,2.26-.9-1.75-2.55-1.22-3.97-1.24-4.48-.08-8.96-.09-13.45-.12Z"/>
  <path class="cls-2" d="M1,80c.28-.07,.57-.1,.86-.09,0,1.73,0,3.45,0,5.18-.29,.01-.57-.02-.85-.09v-5Z"/>
  <path class="cls-8" d="M164.08,1.94c-.05-.31-.08-.62-.08-.94h4c-.03,.3,0,.61,.06,.9-1.33,.01-2.65,.02-3.98,.04Z"/>
  <path class="cls-11" d="M164.08,1.94c1.33-.01,2.65-.02,3.98-.04,1.44,.35,2.91,.64,4.33,1.06,5.64,1.71,9.8,4.93,10.65,11.15,.93,6.81-.68,12.55-7.27,15.99-.43,.22-.8,.57-1.17,.89-.12,.1-.15,.29-.26,.52,.41,.21,.8,.49,1.23,.64,13.11,4.33,10.81,23.07,1.83,28.37-4.45,2.63-9.15,4.1-14.1,4.31-8.13,.35-16.29,.03-24.44,.16-2.42,.04-3.14-.82-3.13-3.18,.12-19.95,.14-39.9,.19-59.84,9.39-.01,18.78-.02,28.16-.03Zm-11.16,43.03c0,7.39,1.41,8.39,8.82,6.29,.96-.27,1.92-.47,2.74-1.13,2.35-1.9,3.16-5.49,1.79-8.13-1.69-3.26-6.52-4.96-11.52-3.87-3.32,.73-1.27,3.53-1.81,5.34-.14,.46-.02,.99-.02,1.49Zm0-25.35c0,6.77,1.12,7.57,7.87,5.62,.48-.14,1-.17,1.44-.36,2.38-1.06,3.58-3.11,3.53-5.52-.05-2.28-1.39-4.03-3.86-4.55-.97-.21-1.91-.58-2.88-.69-5.91-.65-6.09-.47-6.1,5.51Z"/>
  <path class="cls-14" d="M331.07,33.12q.01,3.81-3.76,3.89c-6.03,.14-6.19,.14-6.14,6.44,.02,2.86-.91,3.66-3.68,3.63-2.64-.04-4.18-.58-3.71-3.56,.03-.16,0-.33,0-.5-.12-5.86-.12-5.84-6.17-6.03-1.24-.04-3.04,.62-3.54-.92-.6-1.86-.5-3.95,.01-5.9,.18-.7,.9-.9,1.59-.93,.66-.03,1.33-.02,1.99-.04q5.94-.16,6.12-6.15c.1-3.27,3.66-5.26,6.43-3.59,.62,.38,.84,.98,.86,1.67,.02,.66,.01,1.33,.03,1.99q.14,5.92,6.16,6.07,3.8,.1,3.82,3.91Z"/>
  <path class="cls-13" d="M107.11,81.12c-1.84,2.48-3.66,4.97-5.53,7.43-.8,1.06-1.54,2.25-2.58,3.02-2.26,1.67-4.68,.53-4.74-2.21-.1-4.65,.03-9.31-.05-13.97-.03-2.01,.91-2.56,2.75-2.53,1.97,.03,2.01,1.27,2.01,2.68-.01,2.82,0,5.65,0,9.05,3.1-2.58,4.61-5.84,6.88-8.44,.76-.87,1.3-2.01,2.2-2.68,2.26-1.67,4.7-.56,4.75,2.17,.1,4.65-.03,9.31,.05,13.97,.03,1.98-.83,2.6-2.7,2.58-1.91-.02-2.13-1.12-2.11-2.6,.03-2.66,0-5.31,0-7.97-.31-.17-.63-.33-.94-.5Z"/>
  <path class="cls-13" d="M311.24,80.7c-2.24,3.05-4.46,6.1-6.72,9.13-.89,1.19-1.74,2.38-3.54,2.37-1.75-.01-2.86-.37-2.83-2.45,.07-4.82,.05-9.63,0-14.45-.02-1.64,.61-2.38,2.31-2.46,2.05-.08,2.55,.92,2.5,2.73-.08,2.82-.02,5.64-.02,9.15,2.77-2.65,4.3-5.49,6.26-7.98,.82-1.04,1.63-2.1,2.51-3.09,1.04-1.16,2.48-.91,3.74-.68,1.55,.28,1.29,1.7,1.3,2.82,.02,4.48-.02,8.97,.02,13.45,.01,1.67-.23,2.89-2.35,2.94-2.08,.05-2.49-1-2.45-2.76,.07-2.82,.02-5.64,.02-8.46-.25-.09-.51-.18-.76-.28Z"/>
  <path class="cls-6" d="M280.66,84.26c2.04-2.78,4.07-5.58,6.14-8.35,.69-.92,1.38-1.95,2.31-2.58,1.92-1.3,4.05-.26,4.1,2.01,.1,4.82,0,9.64,.04,14.46,.01,1.68-.67,2.4-2.38,2.36-1.61-.04-1.88-.99-1.87-2.28,.01-2.99,0-5.98,0-9.49-3.08,2.64-4.7,5.88-6.95,8.57-.74,.89-1.31,2.01-2.21,2.66-2.36,1.69-4.61,.58-4.68-2.31-.1-4.48,0-8.97-.04-13.46-.01-1.61,.05-2.93,2.26-3,2.52-.08,2.55,1.43,2.52,3.23-.04,2.65-.01,5.3-.01,7.95,.26,.08,.51,.16,.77,.23Z"/>
  <path class="cls-5" d="M251.18,82.59c-.03,5.91-4.37,10.16-10.48,10.26-5.99,.1-10.86-4.71-10.75-10.62,.11-5.65,4.81-10.09,10.83-10,5.67,.09,11.1,4.92,10.39,10.36Zm-16.69-.18c-.05,3.49,2.73,6.4,6.18,6.46,3.13,.06,6.3-3.28,6.19-6.51-.1-3.07-3.09-6.19-5.99-6.24-3.37-.06-6.33,2.86-6.37,6.29Z"/>
  <path class="cls-10" d="M1.85,85.09c0-1.73,0-3.45,0-5.18,2.8-6.6,7.88-9.07,14.22-6.89,5.21,1.79,8.13,7.15,6.65,12.25-1.4,4.85-7.07,8.42-12.03,7.41-4.3-.88-7.75-2.89-8.84-7.59Zm16.33-2.52c.03-3.71-2.57-6.46-6.07-6.45-3.39,.01-6.16,3.02-6.06,6.58,.1,3.38,2.71,6.1,5.94,6.18,3.52,.09,6.16-2.6,6.18-6.31Z"/>
  <path class="cls-5" d="M44.76,82.72c0,2.16-.02,4.32,.01,6.49,.03,1.64-.15,2.93-2.3,2.99-2.05,.06-2.41-.92-2.52-2.71-.34-5.78-.49-5.77-6.28-5.41-1.87,.12-2.77,.67-2.64,2.62,.08,1.16,0,2.33-.01,3.49-.01,1.12-.38,1.93-1.69,1.94-1.22,.01-2.48-.03-2.49-1.65-.05-5.32-.05-10.64,0-15.96,.02-1.64,1.32-1.62,2.52-1.61,1.31,.01,1.59,.85,1.69,1.96,.15,1.62-.7,3.59,.58,4.78,1.4,1.3,3.5,.35,5.27,.58,2.39,.31,3.39-.7,3.11-3.1-.09-.82,0-1.66,0-2.49,0-1.65,1.13-1.76,2.37-1.76,1.3,0,2.31,.31,2.35,1.87,0,.17,.02,.33,.02,.5,0,2.49,0,4.99,0,7.48Z"/>
  <path class="cls-5" d="M117.77,82.17c0-2.33,.04-4.66-.01-6.99-.04-1.73,.77-2.34,2.43-2.3,1.66,.04,1.71,1.08,1.84,2.33,.54,5.38,.57,5.26,6.18,5.06,2.2-.08,2.77-.87,2.87-2.95,.08-1.62-1.41-4.36,2.12-4.44,3.83-.08,2.43,2.85,2.51,4.67,.17,3.99,0,7.99,.07,11.98,.04,1.93-.74,2.66-2.65,2.65-1.91,0-2.19-1.05-2.13-2.56,.03-.83-.08-1.67,.02-2.49,.3-2.48-.87-3.31-3.18-3.03-.66,.08-1.33,0-2,.01q-3.67,.07-3.82,3.87c-.02,.5,0,1,0,1.5,0,1.39,0,2.66-2,2.67-1.81,0-2.27-.92-2.25-2.49,.04-2.5,.01-4.99,.01-7.49Z"/>
  <path class="cls-13" d="M168.95,82.22c0,2.92-.06,5.08,.02,7.23,.06,1.79-.44,2.79-2.48,2.75-2.15-.04-2.34-1.3-2.33-2.95,.04-3.32-.05-6.64,.03-9.96,.04-1.94-.34-3.25-2.68-3.1-1.8,.11-3.76-.37-3.83,2.52-.06,2.48-.32,4.97-.7,7.42-.45,2.82-1.1,5.63-4.45,6.52-1.22,.33-2.38,.3-3.04-.93-.63-1.18-.4-2.33,.89-2.92,2.61-1.21,2.66-3.52,2.79-5.89,.11-1.98,.43-3.95,.61-5.93q.39-4.06,4.64-4.1c.17,0,.33,0,.5,0,3.13,.18,7.09-1.29,9.17,.58,2.39,2.15,.32,6.29,.86,8.77Z"/>
  <path class="cls-3" d="M67,82.78c0,2.33,0,4.65,0,6.98,0,1.22-.08,2.33-1.75,2.39-1.62,.06-2.49-.5-2.47-2.24,.04-3.32,.05-6.64-.02-9.96-.07-3.29-2.6-4.85-5.67-3.64-1.19,.47-1.26,1.44-1.2,2.43,.18,3.02-.58,5.94-1,8.88-.37,2.65-1.88,4.58-4.69,5.14-.84,.17-1.68,.06-2.3-.61-.7-.75-.43-1.89,.03-2.27,4.47-3.67,3.91-8.79,3.93-13.66,0-2.6,.85-3.54,3.44-3.37,2.81,.18,5.66,.21,8.46,0,2.75-.21,3.45,1.01,3.28,3.48-.15,2.15-.03,4.32-.03,6.47h0Z"/>
  <path class="cls-7" d="M254.96,82.28c0-.17-.02-.33,0-.5,.35-2.89-1.45-7.2,.92-8.39,3.15-1.58,7.48-.95,11.2-.13,2.78,.62,4.55,2.68,4.85,5.64,.29,2.88-.81,5.22-3.29,6.75-1.57,.97-3.33,1.49-5.21,1.33-2.58-.22-4.66-.05-4.27,3.5,.18,1.6-1.24,1.65-2.45,1.64-1.28-.01-1.72-.76-1.72-1.9,0-2.65,0-5.3,0-7.95,0,0-.01,0-.02,0Zm7.39,.86c3.61-.07,4.78-.96,4.81-3.38,.03-2.37-1.72-3.56-4.86-3.65-2.89-.08-3.03,1.64-3.16,3.85-.17,2.83,1.16,3.52,3.21,3.17Z"/>
  <path class="cls-7" d="M70.01,91.8c2.59-5.82,5.05-11.25,7.41-16.71,.67-1.55,1.56-2.31,3.35-2.26,1.78,.04,2.67,.83,3.34,2.37,2.05,4.71,4.2,9.37,6.31,14.05,.39,.87,1.16,1.95-.02,2.58-1.17,.63-3.05,.81-3.54-.55-1.63-4.5-5.29-2.93-8.37-3.23-1.55-.15-2.6,.45-3.05,1.89-.82,2.66-2.73,2.38-5.44,1.85Zm10.39-13.85c-.69,2.36-3.18,4.22-1.88,6.42,.8,1.34,3.2,.62,5,.21-.6-2.51-1.1-4.74-3.13-6.63Z"/>
  <path class="cls-7" d="M209.83,73.37c-1.32,1.98-2.35,3.89-3.73,5.5-2.08,2.44-1.89,4.48,.1,6.93,1.42,1.75,2.94,3.59,3.5,5.93-2.81,1.1-4.87,.42-6.16-2.33-.28-.59-.72-1.11-1.11-1.65-1.02-1.42-1.56-3.81-3.82-3.29-2.53,.58-1.29,3.01-1.49,4.66-.18,1.46,.19,3.06-2.17,3.03-2.33-.03-2.11-1.6-2.11-3.09-.01-4.48,0-8.96,0-13.44,0-1.37,0-2.64,1.95-2.75,2.25-.12,2.19,1.26,2.35,2.86,.16,1.67-1.07,4.13,1.08,4.83,2.74,.9,3.4-2.02,4.56-3.68,1.6-2.3,2.77-5.17,7.05-3.52Z"/>
  <path class="cls-14" d="M173.93,81.91c.42-2.53-1.46-6.46,.86-8.49,2-1.75,5.75-.65,8.69-.46,1.78,.11,5.15-1.59,5.03,1.76-.09,2.6-3.24,1.01-4.99,1.4-.79,.18-1.65,.06-2.48,.02-1.62-.06-3.02,.06-2.91,2.28,.11,2.05,1.4,2.38,3.05,2.37,1.33-.01,2.66,0,3.99,.02,1.09,.02,1.99,.34,1.99,1.64,0,1.37-.99,1.54-2.04,1.56-1.49,.03-2.99,.05-4.48,.02-1.52-.04-2.51,.31-2.54,2.17-.03,1.89,.6,2.76,2.57,2.68,2.15-.09,4.32,0,6.48,0,1.19,0,1.87,.5,1.79,1.78-.06,1.01-.66,1.46-1.6,1.46-3.82,.02-7.64,0-11.46,.02-1.53,0-1.96-.88-1.95-2.23,.02-2.49,0-4.98,0-8.01Z"/>
  <path class="cls-14" d="M217.79,84.05c0-1.16,.02-2.32,0-3.48-.07-3.86-.07-3.88-4.03-4.37-1.14-.14-2.47,.05-2.52-1.63-.05-1.72,1.26-1.68,2.42-1.68,4.14-.02,8.28,0,12.43,0,1.07,0,2,.26,2.02,1.59,.01,1.29-.84,1.52-1.93,1.71-4.14,.71-4.14,.74-4.15,5.01,0,2.82-.03,5.63,0,8.45,.02,1.51-.26,2.56-2.16,2.51-1.89-.05-2.09-1.19-2.07-2.64,.02-1.82,0-3.64,0-5.47,0,0,0,0,0,0Z"/>
  <path class="cls-1" d="M307.28,71.2c-1.69,.06-3.45-.12-4.63-1.84-.38-.55-.7-1.18-.31-1.78,.4-.62,1.39-.77,1.75-.41,2.28,2.3,4.41,2.35,6.7,0,.34-.35,1.32-.23,1.76,.39,.45,.63,.01,1.21-.33,1.76-1.12,1.82-2.93,1.89-4.94,1.88Z"/>
  <path class="cls-1" d="M103.25,71.2c-1.74,.08-3.48-.2-4.61-1.94-.35-.54-.7-1.13-.18-1.76,.5-.6,1.45-.63,1.79-.31,2.09,1.95,4.03,2.59,6.24,.11,.5-.56,1.66-.41,2.17,.36,.37,.56-.06,1.22-.44,1.78-1.19,1.76-3.01,1.77-4.98,1.76Z"/>
  <path class="cls-12" d="M143.14,86.13c-1.39-.4-3.85,.84-3.72-1.75,.12-2.45,2.51-1.46,3.92-1.46,1.38,0,3.82-.97,3.69,1.65-.13,2.49-2.53,1.1-3.89,1.56Z"/>
  <path class="cls-9" d="M80.4,77.95c2.03,1.89,2.53,4.11,3.13,6.63-1.81,.41-4.21,1.12-5-.21-1.31-2.19,1.19-4.06,1.88-6.42Z"/>
</svg>