<?xml version="1.0" encoding="UTF-8"?>
<svg id="_Слой_1" data-name="Слой 1" xmlns="http://www.w3.org/2000/svg" viewBox="0 0 522.03 106.44">
  <defs>
    <style>
      .cls-1 {
        fill: #7f68ac;
      }
    </style>
  </defs>
  <path class="cls-1" d="M1,106V1H39c4.75,4.02,4.88,5.48,.96,11.26-5.01,7.41-3.78,16.48,3.05,22.42,5.93,5.16,15.62,5.08,21.5-.17,6.61-5.9,7.78-15.37,2.79-22.54-3.76-5.39-3.69-6.51,.69-10.96h38c.08,11.32,.17,22.64,.22,33.96,.01,2.97,.46,5.65,3.5,7.13,2.97,1.44,4.96-.25,7.17-1.9,7.16-5.35,16.41-4.4,22.56,2.16,5.73,6.12,6.03,15.63,.68,21.88-5.87,6.87-15.49,8.2-22.87,2.9-2.46-1.76-4.85-3.22-7.74-1.88-3.24,1.5-3.28,4.67-3.3,7.74-.06,10.99-.15,21.98-.24,32.96-12.34,.07-24.69,.13-37.03,.2-5-2.85-5.72-5.34-2.41-9.89,4.21-5.78,5.04-11.94,1.99-18.29-4.25-8.86-15.32-11.81-23.86-6.66-8.11,4.89-10.18,15.66-4.61,23.99,3.77,5.64,3.65,6.9-1.02,10.77-12.68-.03-25.35-.06-38.03-.08Z"/>
  <path class="cls-1" d="M223,1h46c5.59,1.53,11.49,1.49,16.98,3.61,9.15,3.52,15.16,9.6,15.96,19.66,1.01,12.67-3.23,20.27-13.48,25.33-.6,.3-1.73,.21-1.62,1.69,6.22,2.32,11.97,5.36,15.06,11.9,6.11,12.94,1.2,29.33-11.06,36.69-6.72,4.04-14.05,5.82-21.78,6.3-15.3-.14-30.59-.28-45.89-.43-.06-34.92-.11-69.83-.17-104.75Zm29.07,82.98c5.08,0,9.57,.32,13.99-.08,5.24-.48,8.71-4.85,8.88-10.29,.16-5.26-2.86-9.48-7.89-10.58-4.86-1.07-9.79-1.04-14.98-.32v21.27Zm-.05-60.8v17.86c4.81,.9,9.43,.79,13.93-.29,4.5-1.08,7.27-5.17,7.03-9.63-.27-5.1-3.71-7.26-8.08-7.95-4.05-.63-8.22-.67-12.88,0Z"/>
  <path class="cls-1" d="M489,1c10.33,0,20.67,0,31,0-3.55,7.73-8.79,14.43-13.29,21.59-6.08,9.67-12.33,19.22-18.55,28.88,11.47,18.12,22.67,35.82,33.87,53.52-.91,1.39-2.36,.98-3.62,.98-9.44,0-18.89-.07-28.33-.11-9.92-17.03-19.85-34.06-29.77-51.1-.45,.16-.9,.32-1.35,.48v50.7c-9.32,.01-18.64,.03-27.96,.04-.09-13.43-.27-26.86-.26-40.29,.02-21.56,.16-43.13,.25-64.69h28V49.98c2.5-1.87,3.79-3.93,5.01-6.03,8.34-14.31,16.66-28.63,24.99-42.95Z"/>
  <path class="cls-1" d="M146,1c12.67,0,25.33,0,38,0,8.47,25.68,17.01,51.34,25.35,77.07,3.01,9.28,6.78,18.32,8.66,27.95-10.02,.03-20.03,.06-30.05,.1-2.87-5.99-3.08-12.81-5.77-19.04h-33.85c-1.83,6.49-3.58,12.68-5.29,18.73h-31.11c3.23-9.87,6.31-19.27,9.36-28.55,14.33,1.12,24.22-3.98,28.46-14.36,4.72-11.54,1.03-20.78-13.23-32.66,3.13-9.67,6.3-19.45,9.47-29.24Zm19.29,18.67c-3.79,15.26-7.2,29.04-10.74,43.29h21.75c-3.63-14.25-7.13-28.04-11.01-43.29Z"/>
  <path class="cls-1" d="M310,1h29V37.93c6.9,.44,13.39,.02,19.81,1.04,10.72,1.7,19.71,6.07,24.97,16.09,10.98,20.94-1.49,45.81-25.33,49.88-15.67,2.67-31.55,.98-47.34,.98-.25,0-.51-.37-1.1-.82V1Zm28.94,82.73c7.22-.02,14.25,1.4,18.53-5.5,2.41-3.89,2.51-8.39-.22-12.22-4.62-6.47-11.42-5.26-18.3-4.8v22.52Z"/>
  <path class="cls-1" d="M395.03,105.95c-.01-34.98-.02-69.97-.03-104.95h28c.08,18.66,.21,37.32,.21,55.98,0,16.33-.15,32.65-.23,48.98-9.32,0-18.63-.01-27.95-.02Z"/>
</svg>