<?xml version="1.0" encoding="UTF-8"?>
<svg id="_Слой_1" data-name="Слой 1" xmlns="http://www.w3.org/2000/svg" viewBox="0 0 523 103.27">
  <defs>
    <style>
      .cls-1 {
        fill: #090909;
      }

      .cls-2 {
        fill: #f6f6f6;
      }

      .cls-3 {
        fill: #040404;
      }

      .cls-4 {
        fill: #020202;
      }

      .cls-5 {
        fill: #7f68ad;
      }

      .cls-6 {
        fill: #e1e1e1;
      }

      .cls-7 {
        fill: #030303;
      }

      .cls-8 {
        fill: #f7f6f9;
      }

      .cls-9 {
        fill: #eaeaea;
      }

      .cls-10 {
        fill: #e4e4e4;
      }

      .cls-11 {
        fill: #f9f9f9;
      }

      .cls-12 {
        fill: #d3d3d3;
      }

      .cls-13 {
        fill: #816bae;
      }

      .cls-14 {
        fill: #050505;
      }

      .cls-15 {
        fill: #f7f7f7;
      }

      .cls-16 {
        fill: #8069ad;
      }

      .cls-17 {
        fill: #f1f1f1;
      }

      .cls-18 {
        fill: #f3f3f3;
      }

      .cls-19 {
        fill: #806aad;
      }

      .cls-20 {
        fill: #f8f8f8;
      }

      .cls-21 {
        fill: #ededed;
      }
    </style>
  </defs>
  <path class="cls-5" d="M34.16,4.89c13.51,0,22.02,12.83,16.93,25.45-4.16,10.33-12,17.68-22.35,21.51-10.59,3.92-20.64-.04-21.63-17.09-.71-12.11,12.14-27.62,24.11-29.65,1.14-.19,2.32-.18,2.94-.23Zm-12.27,43.36c9.99,.04,24.72-14.23,25.12-24.34,.38-9.52-7.39-15.53-16.55-12.81-9.12,2.71-18.76,16.26-18.35,25.81,.32,7.49,3.62,11.31,9.79,11.33Z"/>
  <path class="cls-4" d="M255.58,93.6c-.71-4.49,.18-8.78,.29-13.08,.03-1.15,.08-2.48,1.68-2.6,1.67-.13,2.3,1,2.64,2.42,.71,2.95,.57,5.94,.71,8.93,.06,1.24-2.08,3.77,.99,3.74,2.46-.02,6.1,1.12,6.74-3.15,.47-3.12,.8-6.27,1.12-9.41,.18-1.78,.51-3.53,2.73-3.4,2.09,.13,2.43,1.79,2.56,3.61,.34,4.66-1.38,9.15-.83,13.88,.27,2.4-2.41,2.95-4.34,3.3-7.23,1.32-14.54,1.61-21.87,1.16-4.45-.28-6.67-2.53-6.06-7.18,.46-3.46,.72-6.95,1.23-10.4,.21-1.37,.18-3.38,2.2-3.37,2.36,.02,1.53,2.1,1.64,3.42,.12,1.49,.03,2.99,.02,4.49q-.06,8.1,8.56,7.64Z"/>
  <path class="cls-4" d="M77.86,89.3c.27-2.56,.94-5.85,.89-9.14-.07-4.4,1.94-6.44,6.05-7.5,5.75-1.48,8.53,.73,6.91,6.52-.7,2.51-.36,3.33,1.81,4.48,3.76,1.98,5.36,5.45,4.56,9.61-.96,5.03-5.28,6.4-9.42,7.7-4.21,1.32-7.49-.82-10.02-3.66-1.68-1.89-.53-4.8-.79-8Zm5.17,2.04c1.16,1.52-1.54,4.37,2.1,4.65,3.33,.25,8.55-2.7,8.25-4.82-.6-4.27-4.22-4.74-7.47-5.01-4.84-.4-1.17,3.78-2.88,5.18Zm4.15-15.24c-3.75-.21-3.34,2.29-4.11,3.67-.47,.83,.45,1.46,1.42,1.21,1.97-.51,2.86-2.11,3.25-3.88,.26-1.17-.88-1.03-.56-1Z"/>
  <path class="cls-7" d="M348.26,84.53c1.38,1.05,2.69,1.83,3.73,2.87,3.79,3.79,3.24,8.88-1.21,11.82-2.38,1.57-4.99,2.57-7.81,3.03-5.1,.82-7.89-1.51-7.74-6.62,.12-4.31,.56-8.61,.63-12.91,.07-4,.2-7.32,4.74-9.61,3.18-1.61,5.7-2.77,8.48-.49,2.94,2.41,3.08,5.71,1.47,9.02-.49,1.01-1.42,1.82-2.29,2.9Zm-8.11,1.47v12.09c2.64-.86,4.71-1.41,6.66-2.23,1.46-.61,3.29-1.16,3.26-3.27-.04-2.16-1.66-3-3.35-3.86-1.89-.97-4.26-.95-5.75-2.74,.08-3.5,3.76-3.25,5.39-5.15,1.25-1.46,2.31-2.94,1.02-4.83-1.42-2.08-2.86-.96-4.65-.19-5.46,2.37-2.35,6.64-2.58,10.17Z"/>
  <path class="cls-4" d="M288,92.15c4.71-4.79,8.34-9.19,10.79-14.47,.67-1.44,1.41-2.79,3.22-2.52,2.16,.33,2.36,2.12,2.24,3.82-.43,5.79-.91,11.58-1.44,17.36-.15,1.61-.84,2.94-2.75,2.88-1.83-.05-2.66-1.31-2.82-2.92-.16-1.64-.04-3.31-.04-5.49-3.53,2.3-5.32,5.68-7.96,8.19-1.48,1.41-2.94,2.98-5.17,1.92-2.1-.99-1.62-3.11-1.5-4.86,.38-5.13,.9-10.26,1.37-15.38,.14-1.48,.14-3.39,2.17-3.18,1.84,.19,1.86,2.07,1.87,3.57,.03,3.41,.01,6.82,.01,11.07Z"/>
  <path class="cls-16" d="M176.2,47.32c4.74-5.29,5.68-11.15,7.83-16.45,.99-2.44,.96-6.76,4.44-6.21,3.37,.54,2.45,4.61,2.49,7.31,.08,5.99-.05,11.98-.17,17.97-.03,1.32,.7,3.44-1.65,3.33-1.72-.08-2.27-1.82-2.29-3.39-.06-3.99-.02-7.98-.02-13.36-2.1,4.38-3.38,7.84-5.32,10.88-1.6,2.5-2.93,6.73-6.54,5.83-3.71-.92-2.88-5.16-2.82-8.18,.12-5.48,.6-10.95,.94-16.43,.07-1.17,.1-2.77,1.46-2.81,1.87-.05,1.63,1.77,1.64,3.02,.05,5.8,.02,11.59,.02,18.49Z"/>
  <path class="cls-19" d="M223.21,33.33c-4.16,1.98-5.27,8.06-9.13,6.81-3.02-.98-4.93-5.41-8.15-9.31,.35,6.59,.67,11.96,.9,17.34,.06,1.43,.41,3.49-1.6,3.62-2.33,.15-2.25-2.07-2.27-3.67-.05-6.82-.03-13.65,.06-20.47,.02-1.23-.37-3.01,1.28-3.41,1.63-.39,1.99,1.48,2.81,2.42,2.07,2.39,4.15,4.78,6.01,7.33,1.42,1.93,2.27,1.74,3.65-.07,2.01-2.64,4.31-5.07,6.52-7.55,.66-.74,1.48-1.47,2.59-1.14,1.22,.37,1.12,1.49,1.16,2.48,.24,6.98,.54,13.96,.65,20.95,.03,1.68,.23,4.23-2.37,4.1-2.04-.1-2.07-2.34-2.1-3.98-.07-4.97-.03-9.95-.03-15.45Z"/>
  <path class="cls-7" d="M371.04,100.13c-3.1,.03-6.22-.28-7.77-3.38-2.3-4.57-1.13-9.3,.97-13.44,2.89-5.71,9.37-8.4,15.63-7.35,6.29,1.06,9.27,6.01,7.3,12.1-2.18,6.74-9.22,12-16.13,12.05Zm.05-4.74c4.47-.1,10.25-4.07,11.66-8.18,1.19-3.49,.24-5.8-3.77-6.43-5.64-.89-10.01,2.18-12.07,8.7-1.37,4.33-.19,6.01,4.19,5.92Z"/>
  <path class="cls-7" d="M5.6,93.04c.76-5.44,1.54-10.87,2.29-16.31,.17-1.2,.4-2.54,1.8-2.62,1.73-.11,2.13,1.39,2.21,2.74,.12,2.16-.07,4.34,.08,6.49,.12,1.69-1.54,4.34,1.95,4.55,2.91,.17,5.82,.12,6.78-3.51,.55-2.09,.96-4.22,1.58-6.28,.39-1.28,1.04-2.6,2.77-2.25,1.65,.34,1.99,1.65,1.77,3.08-1.03,6.57-2.04,13.15-3.22,19.7-.28,1.54-.74,3.62-3.02,3.23-2.04-.35-2.24-2.19-2.23-3.93,0-.5,.29-1.06,.14-1.48-.53-1.49,2.52-4.38-1.22-4.41-2.38-.02-6.67-2.42-6.62,3.46,.02,2.14,.55,6.3-2.57,6.06-3.82-.3-2.27-4.36-2.4-6.99-.02-.49,.08-1,.12-1.49-.07,0-.14-.02-.2-.03Z"/>
  <path class="cls-19" d="M94.32,23.78c7.72,.13,8.68,.98,9.09,8.11,.09,1.51,1.36,1.72,2.08,2.53,2.83,3.18,3.57,6.75,1.75,10.59-1.74,3.68-8.14,7.46-11.4,7.06-1.26-.16-2.35-.58-2.54-1.92-.2-1.48,.93-1.91,2.14-2.23,2.43-.66,4.64-1.73,6.61-3.35,2.07-1.7,2.6-3.8,1.79-6.24-.76-2.28-2.67-2.81-4.79-2.72-1.33,.06-2.94,.58-3.41-1.09-.6-2.16,1.54-2.05,2.73-2.74,1.27-.73,3.15-1.65,2.35-3.28-1.09-2.2-3.75-1.84-5.82-2.02-1.76-.16-1.98,1.37-1.93,2.81,.28,7-.2,13.95-1.55,20.82-.31,1.58-.02,4.36-2.77,3.78-2.35-.5-1.71-2.95-1.54-4.67,.7-6.93,1.62-13.84,2.26-20.78,.32-3.49,1.2-5.89,4.92-4.64Z"/>
  <path class="cls-7" d="M232.52,101c-.05,1.1-.57,1.86-1.66,2.14-1.9,.48-3.17-.43-4.19-1.92-3.69-5.4-6.32-5.96-11.86-2.51-1.01,.63-1.98,1.36-3.09,.25-1.12-1.13-.11-2.07,.27-3.12,1.1-3.08,3.98-4.72,5.7-7.31,2.29-3.47,4.36-7.03,5.73-10.97,.44-1.26,1.13-2.49,2.76-2.46,1.57,.02,2.5,1,2.68,2.43,1.01,7.85,.48,15.94,3.66,23.48Zm-8.88-12.23c-1.08,.88-2.07,1.66-1.93,3.06,.02,.16,1.29,.48,1.7,.25,1.5-.85,.69-2.02,.23-3.31Z"/>
  <path class="cls-7" d="M139.02,90c2.35,5.06,8.06,3.36,11.01,6.49-4.8,4.41-12.97,3.01-15.67-2.86-2.16-4.69-.78-9.13,1.86-13.17,2.43-3.72,5.94-5.71,10.51-5.41,2.21,.15,4.39,.61,5.24,3.02,.8,2.27-.03,4.26-1.65,5.89-3.09,3.11-6.84,5.1-11.3,6.05Zm7.96-9.77q-5.1,.81-6.68,5.06c2.72-.97,4.81-2.36,6.68-5.06Z"/>
  <path class="cls-7" d="M419.54,97.33c.8-5.71,1.68-11.96,2.54-18.21,.52-3.78,3.6-3.79,6.32-4.36,3.51-.74,6.23,.43,8.07,3.48,3.62,6.01,.98,12.41-6.39,14.07-3.72,.84-5.42,1.99-5.11,5.92,.16,2.08-.08,4.91-3.13,4.55-2.55-.31-2.06-2.96-2.3-5.45Zm6.41-10.01c3.51-.75,6.99-.75,7.07-5.08,.05-2.69-1.81-4.04-4.25-3.36-4.84,1.35-1.59,5.39-2.81,8.44Z"/>
  <path class="cls-16" d="M133.84,47.98c-2.88,4.53-6.4,5.31-10.39,4.51-3.92-.79-6.71-3.13-7.34-7.2-1.05-6.82,.8-12.85,5.72-17.81,1.7-1.72,3.82-2.75,6.2-2.93,2.79-.21,5.47,.48,6.71,3.25,1.21,2.71-.34,4.78-2.34,6.52-2.3,2-4.93,3.45-7.92,4-2.63,.49-4.18,1.44-3.79,4.53,.39,3.12,1.76,4.98,4.98,5.1,2.47,.09,4.94,.02,8.17,.02Zm-12.14-11.95c3.9-.78,6.53-2.08,8.77-4.09,.55-.49,1.14-1.42,1.06-2.06-.17-1.25-1.49-1.19-2.41-1.14-4.16,.2-5.82,3.12-7.42,7.28Z"/>
  <path class="cls-7" d="M49.09,97.62c.1,1.38,.09,2.84-1.6,3.17-1.75,.33-2.66-.96-3.41-2.33-2.14-3.93-5.38-4.34-8.46-1.01-.79,.85-1.4,2.18-2.74,1.38-1.49-.9-.81-2.31-.28-3.53,2.51-5.76,5-11.54,7.6-17.27,.74-1.64,1.65-3.42,3.95-3.16,2.29,.26,2.9,2.13,3.1,3.95,.69,6.26,1.23,12.53,1.83,18.8Zm-6.16-9.07c-.06-.44,.06-1.57-1-1.47-1.54,.14-1.72,1.68-2.02,2.84-.31,1.17,.7,1.17,1.47,1.21,1.71,.09,1.64-1.1,1.56-2.58Z"/>
  <path class="cls-3" d="M394.12,88.25c0-1.66,.05-3.33,0-4.98-.13-3.81,1.7-5.47,5.47-5.27,2.49,.13,5.01,.29,7.47,.03,4.53-.48,6.55,1.17,6.01,5.87-.47,4.13-.64,8.29-.95,12.43-.11,1.43-.56,2.69-2.24,2.78-1.84,.1-2.75-1.06-2.88-2.74-.25-3.33,0-6.64,.63-9.93,.33-1.72,.99-4.13-2.13-3.47-2.25,.48-6.19-2.42-6.44,2.71-.14,2.99-.11,5.98-.12,8.98,0,1.62-.32,3.2-2.23,3.26-2.02,.06-2.24-1.64-2.28-3.19-.05-2.16-.01-4.32-.01-6.48-.1,0-.2,0-.3,0Z"/>
  <path class="cls-3" d="M121.28,92.14c1.02,.34,3.82-1.97,4.37,.75,.5,2.47-2.1,3.88-4.41,4.67-4.89,1.66-11.3-.06-13.6-3.63-2.34-3.62-1.53-9.47,1.86-13.44,3.53-4.13,9.1-5.61,13.5-3.48,1.62,.78,3.8,1.7,2.97,3.92-.86,2.3-2.49-.24-3.79,0-.16,.03-.33-.04-.49-.06-3.4-.44-6.36,.33-8.25,3.39-1.14,1.85-2.26,4.04-.77,6.06,2.01,2.73,5.17,1.53,8.62,1.81Z"/>
  <path class="cls-4" d="M441.55,89.44c-.37-5.96,2.83-10.15,8.05-10.54,6.1-.46,11.34,3.35,11.58,8.43,.25,5.31-5.37,10.99-11.2,11.33-5.37,.31-8.02-2.58-8.43-9.22Zm4.66,.31c-.28,2.61,.52,4.45,3.39,4.08,3.47-.46,6.64-2.22,7.02-5.83,.31-3-2.75-3.79-5.27-3.89-3.83-.16-5.02,2.39-5.13,5.65Z"/>
  <path class="cls-7" d="M489.54,89.13c-1.73,6.06-5.95,8.54-13.46,7.95-5.12-.4-8.27-3.21-8.78-7.86-.61-5.58,3.62-12.54,8.52-13.93,1.66-.47,3.58-.78,4.33,1.17,.79,2.02-1.28,2.19-2.5,2.93-.97,.58-1.91,1.4-2.52,2.34-1.46,2.24-3.08,4.9-1.53,7.39,1.61,2.58,4.7,1.92,7.33,1.47,2.86-.49,5.45-2.64,8.61-1.46Z"/>
  <path class="cls-3" d="M502.91,75.69c-.1,1.02-.15,2.19-.34,3.33-.33,2.08-.89,3.63,2.61,3.42,3.52-.21,4.85,2.94,5.46,6.08,.6,3.05-.02,5.62-2.9,7.3-2.88,1.68-6.4,1.11-9.38,2.9-1.45,.87-2.7-1.11-2.6-2.72,.5-7.99,2.09-15.8,4.22-23.51,.24-.88,.89-1.82,1.64-1.43,1.85,.95,1.09,2.91,1.28,4.64Zm-1.19,13.3c.25,1.06-1.26,3,1.27,2.78,1.37-.12,2.98-.43,3.04-2.5,.05-1.83-.32-3.44-2.39-3.63-2.84-.26-1.27,2.23-1.92,3.34Z"/>
  <path class="cls-3" d="M193.04,76.92c1.57-4.5,5.54-4.27,8.6-3.19,3.29,1.15,2.21,4.72,.87,6.86-1.6,2.56,.04,2.89,1.51,3.98,3.87,2.87,5.03,7.34,3.04,10.92-2.11,3.78-8.69,6.83-12.27,5.62-.35-.12-.52-.74-.78-1.12,0-.65,0-1.3,0-1.96,1.11-3.12,4.39-1.34,6.33-2.79,1.63-1.22,3.47-2.02,2.96-4.51-.48-2.31-2.17-3.1-4.28-3.43-1.72-.27-3.66,.63-5.16-.9,.03-.85,.05-1.71,.08-2.56,2.11-1.95,5.13-3.14,5.58-6.46-2.23-1.34-4.51,1.98-6.49-.46Z"/>
  <path class="cls-13" d="M69.59,23.11c2.32,0,4.64-.05,6.96,.02,1.24,.04,2.33,.52,2.41,1.97,.08,1.47-1,1.94-2.2,2.23-.16,.04-.35,.04-.48,.12-2.18,1.3-5.78-1.81-6.91,1.73-.78,2.42-.14,5.27-.31,7.91-.28,4.46-.63,8.92-1.09,13.36-.15,1.43-.47,3.38-2.41,3.09-1.39-.21-1.64-1.93-1.57-3.31,.33-6.12,.41-12.27,1.17-18.34,.47-3.75-.35-5.2-4.22-4.85-1.51,.13-4.03,.55-4.18-1.54-.17-2.29,2.43-1.72,3.9-1.91,2.95-.39,5.94-.47,8.91-.68,0,.07,0,.13,.01,.2Z"/>
  <path class="cls-16" d="M152.66,23.88c3.16,0,6.31-.03,9.47,.02,1.2,.02,2.49,.3,2.52,1.79,.03,1.26-1.18,1.32-2.15,1.58-2.77,.74-6.61-1.64-8.22,1.39-1.29,2.42-.83,5.83-.95,8.8-.19,4.65-.22,9.3-.29,13.95-.02,1.34,.13,3.01-1.56,3.18-1.87,.19-2.47-1.4-2.54-3.01-.31-6.48-.28-12.97,1.07-19.35,.79-3.75,.02-5.73-4.23-5.21-.98,.12-1.99-.02-2.98-.14-1.11-.13-2.6-.11-2.48-1.72,.1-1.29,1.45-1.15,2.39-1.16,3.32-.05,6.64-.02,9.97-.02,0-.03,0-.07,0-.1Z"/>
  <path class="cls-14" d="M521.87,82.57c-.36,4.73-.62,8.69-.98,12.64-.19,2.08-.77,4.21-3.38,4-2.32-.18-2.71-2.19-2.54-4.12,.67-7.74,1.39-15.48,2.14-23.21,.11-1.15,.42-2.57,1.73-2.69,1.76-.15,1.96,1.46,2.09,2.76,.38,3.78,.67,7.57,.94,10.61Z"/>
  <path class="cls-1" d="M193.94,83.84c-.03,.85-.05,1.71-.08,2.56-1.18,3.89-2.17,7.78,.14,11.63,0,.65,0,1.3,0,1.96-1.05-.87-1.48-.09-2.33,.54-2.33,1.71-4.58,.87-4.53-1.93,.12-6.26,.83-12.52,1.41-18.77,.19-1.98,1.63-2.24,3.31-1.77,1.08,1.78,0,4.35,2.08,5.78Z"/>
  <path class="cls-21" d="M193.94,83.84c-2.07-1.43-.99-3.99-2.08-5.78,.39-.38,.78-.76,1.18-1.14,1.98,2.43,4.25-.88,6.49,.46-.45,3.32-3.48,4.52-5.58,6.46Z"/>
  <path class="cls-2" d="M83.03,91.34c1.71-1.4-1.96-5.58,2.88-5.18,3.25,.27,6.87,.74,7.47,5.01,.3,2.12-4.93,5.07-8.25,4.82-3.64-.28-.94-3.12-2.1-4.65Z"/>
  <path class="cls-6" d="M87.18,76.1c-.32-.03,.82-.17,.56,1-.39,1.78-1.27,3.37-3.25,3.88-.97,.25-1.89-.38-1.42-1.21,.78-1.38,.36-3.88,4.11-3.67Z"/>
  <path class="cls-11" d="M340.96,86c1.49,1.79,3.86,1.77,5.75,2.74,1.68,.86,3.31,1.7,3.35,3.86,.03,2.11-1.79,2.65-3.26,3.27-1.95,.82-4.02,1.36-6.66,2.23v-12.09h.41s.41,0,.41,0Z"/>
  <path class="cls-20" d="M340.96,86h-.41s-.41,0-.41,0c.23-3.53-2.88-7.8,2.58-10.17,1.79-.77,3.23-1.9,4.65,.19,1.28,1.89,.23,3.36-1.02,4.83-1.63,1.9-5.31,1.65-5.39,5.15Z"/>
  <path class="cls-9" d="M223.64,88.77c.46,1.28,1.27,2.45-.23,3.31-.42,.24-1.69-.09-1.7-.25-.14-1.4,.85-2.17,1.93-3.06Z"/>
  <path class="cls-12" d="M146.98,80.23c-1.87,2.7-3.95,4.09-6.68,5.06q1.58-4.25,6.68-5.06Z"/>
  <path class="cls-17" d="M425.94,87.32c1.22-3.05-2.03-7.09,2.81-8.44,2.44-.68,4.3,.68,4.25,3.36-.08,4.33-3.56,4.33-7.07,5.08Z"/>
  <path class="cls-8" d="M121.7,36.03c1.6-4.16,3.26-7.09,7.42-7.28,.92-.04,2.24-.11,2.41,1.14,.09,.64-.5,1.56-1.06,2.06-2.25,2.01-4.87,3.31-8.77,4.09Z"/>
  <path class="cls-10" d="M42.93,88.55c.08,1.49,.15,2.68-1.56,2.58-.77-.04-1.78-.04-1.47-1.21,.31-1.16,.48-2.7,2.02-2.84,1.06-.1,.94,1.03,1,1.47Z"/>
  <path class="cls-18" d="M446.21,89.75c.11-3.26,1.3-5.81,5.13-5.65,2.52,.1,5.59,.9,5.27,3.89-.38,3.61-3.54,5.38-7.02,5.83-2.87,.38-3.67-1.47-3.39-4.08Z"/>
  <path class="cls-18" d="M501.72,88.99c.65-1.11-.93-3.6,1.92-3.34,2.07,.19,2.45,1.79,2.39,3.63-.06,2.07-1.67,2.38-3.04,2.5-2.53,.22-1.02-1.72-1.27-2.78Z"/>
  <path class="cls-15" d="M194.01,98.03c-2.32-3.85-1.32-7.74-.14-11.63,1.5,1.53,3.43,.63,5.16,.9,2.11,.33,3.81,1.12,4.28,3.43,.51,2.49-1.33,3.29-2.96,4.51-1.95,1.46-5.22-.33-6.33,2.79Z"/>
</svg>