<?xml version="1.0" encoding="UTF-8"?>
<svg id="_Слой_1" data-name="Слой 1" xmlns="http://www.w3.org/2000/svg" viewBox="0 0 494 284">
  <defs>
    <style>
      .cls-1 {
        fill: #79bb60;
      }

      .cls-2 {
        fill: #d6d0e4;
      }

      .cls-3 {
        fill: #7f69ac;
      }

      .cls-4 {
        fill: #bcddaf;
      }

      .cls-5 {
        fill: #beb3d5;
      }

      .cls-6 {
        fill: #7f68ac;
      }

      .cls-7 {
        fill: #8069ad;
      }

      .cls-8 {
        fill: #7abb60;
      }
    </style>
  </defs>
  <path class="cls-6" d="M323.79,144.02c-5.23,2.5-10.85,3.62-16.68,2.96-3.46-.39-5.53,.77-7.51,3.49-13.21,18.21-20.63,38.63-23.59,60.8-2.99,22.44-2.49,44.83,.8,67.2,.09,.64,.01,1.3,.01,3.26-5.33-8.11-8.72-15.76-10.08-24.15-5.86-36.13-1.3-70.33,19.5-101.34,2.4-3.58,5.52-6.66,8.08-10.15,.5-.68,.35-2.69-.24-3.16-17.93-14.47-21.55-34.29-19.47-55.41,3.19-32.42,29.37-51.73,57.3-57.27,37.61-7.46,80.24,19.29,90.17,56.18,5.34,19.84-.22,36.09-16.64,48.45-12.42,9.35-26.3,8.81-41.93,6.31,8.99-3.07,16.72-5.31,24.13-8.31,18.73-7.58,27.1-20.3,25.3-38.42-.44-4.4-1.75-8.85-3.39-12.98-10.11-25.45-38.92-44.2-66.29-43.39-26.21,.78-50.73,18.03-57.61,40.58-4.79,15.72-2.86,30.92,3.57,45.78,4.77,11.01,13.34,16.08,25.09,16.57,3.18,.13,6.33,.94,9.49,1.44-.01,.51-.03,1.03-.04,1.54Z"/>
  <path class="cls-8" d="M429.94,163.27c1.28-.12,3.34-.79,3.71-.26,2.76,3.89,4.26,.8,6.06-.84,10.21-9.32,17.33-20.27,17.62-34.57,.09-4.26-.6-8.53-.94-12.92-9.75,2.55-22.69-2.59-27.64-10.72-.69-1.13-1.12-3.1-.61-4.18,5.88-12.44,11.75-24.91,18.12-37.1,2.3-4.4,6.84-5.44,11.15-2.84,5.37,3.24,10.28,7.24,15.37,10.94,3.21,2.33,3.68,5.29,1.88,8.7-1.85,3.51-1.47,6.32,.89,9.92,15.98,24.43,15.7,50.22,4.84,76.32-2.02,4.86-5.88,9.41-9.93,12.88-11.05,9.47-23.81,15.82-38.43,17.84-2.45,.34-5.29,.93-7.39,.07-6.26-2.57-9.25,.63-12.29,5.32-1.26,1.94-3.83,3.88-6.01,4.15-2.83,.35-5.85-1.12-8.82-1.54-8-1.13-15.03-4.13-20.76-9.98-1.15-1.18-2.58-2.09-3.87-3.13,1.39-1.79,2.78-3.57,4.17-5.36,7.78,4.26,15.32,8.84,24.21,10.86,3.51,.8,5.03,0,6.81-2.5,7.27-10.24,14.64-20.42,21.97-30.62l-.11-.43Zm39.78-70.82c-2.78,4.53-5.65,8.77-8.02,13.28-.85,1.62-1.24,4.19-.56,5.79,8.64,20.29-.71,50.06-29.3,63.73-1.1,.53-2.04,1.65-2.75,2.71-1.86,2.75-3.64,5.58-5.28,8.47-.67,1.18-.91,2.59-1.34,3.9,1.45,.15,3.01,.72,4.34,.39,6.26-1.56,12.82-2.59,18.61-5.25,10.12-4.64,20.92-9.53,26.17-19.93,12.29-24.36,11.54-48.87-1.87-73.08Zm-20.91,16.05c1.11-.84,1.93-1.16,2.27-1.76,5.37-9.35,10.73-18.7,15.93-28.15,.46-.84,.24-2.85-.41-3.36-3.64-2.87-7.45-5.53-11.37-8.02-.62-.4-2.66,.13-3,.77-5.21,10.01-10.26,20.1-15.29,30.2-.39,.78-.64,2.4-.29,2.64,3.95,2.66,8.04,5.13,12.15,7.68Z"/>
  <path class="cls-5" d="M14.05,34.94c13.85,1.47,27.7,2.91,41.54,4.43,13.67,1.5,27.3,3.53,41.01,4.51,19.54,1.39,39.15,3.09,58.7,2.73,26.64-.49,53.59,.4,79.51-7.81,4.57-1.45,9.02-3.42,13.29-5.6,4.86-2.47,9.37-3.01,13.95,.47,2.88,2.18,5.9,4.19,9.69,6.86-.11-2.13-.08-3.32-.24-4.49-1.26-9.11-.2-17.92,3.69-26.25,.83-1.79,2.74-3.16,4.39-4.43,.45-.35,1.9,.18,2.57,.72,.35,.28,.25,1.55-.06,2.17-5.35,10.7-4.26,21.92-2.79,33.18,.17,1.3,.53,2.64,.35,3.9-.44,3.22-1.78,5.64-5.54,3.5-6.31-3.6-12.47-7.44-18.8-11.01-1.11-.62-3.15-1.02-4.01-.44-10.72,7.31-22.91,10.52-35.41,12.58-27.85,4.59-55.98,4.73-84.05,3.85-41.23-1.3-81.99-6.46-121.79-17.85,1.33-.34,2.66-.67,3.99-1.01Z"/>
  <path class="cls-4" d="M430.05,163.71c-7.33,10.2-14.7,20.38-21.97,30.62-1.78,2.5-3.3,3.3-6.81,2.5-8.89-2.02-16.44-6.6-24.22-10.86-.71-.35-1.41-.7-2.12-1.04,0-.3,0-.6,.03-.89,2.1-1.18,5.08-1.85,6.16-3.64,4.77-7.94,9.17-16.11,13.32-24.39,1.55-3.09,2.67-3.56,5.84-1.98,9.42,4.68,18.88,9.44,29.77,9.69Z"/>
  <path class="cls-1" d="M373.95,227.21c-2.65-3.95-5.47-7.1-7.07-10.78-2.2-5.09,.1-10.98,4.41-13.55,4.32-2.58,12.98-2.06,16.05,1.16,.74,.78,.73,2.26,1.07,3.43-1.03-.1-2.12,0-3.08-.32-6.61-2.19-11.59-1.22-13.35,2.69-1.87,4.17,.68,9.14,6.47,12.53,1,.59,2.23,.89,3.07,1.64,.91,.81,2.11,2.07,2.02,3.01-.1,.97-1.45,2.16-2.53,2.63-10.4,4.58-11.76,10.89-3.25,18.46,3.32,2.95,8.02,4.31,11.96,6.62,2.55,1.49,4.73,3.63,7.31,5.03,1.48,.8,3.6,1.28,5.17,.88,2.49-.64,4.76-2.13,7.43-3.41,.56,4.39-.92,7.41-4.55,8.84-6.87,2.71-13.69,2-20.24-1.26-.85-.42-1.99-1.25-2.1-2.03-.81-5.58-6.03-7.57-8.92-11.41-2.35-3.12-4.67-6.62-5.65-10.31-1.59-6.03,.53-11.2,5.79-13.85Z"/>
  <path class="cls-8" d="M430.05,163.71c-10.89-.25-20.36-5.01-29.77-9.69-3.17-1.58-4.29-1.1-5.84,1.98-4.15,8.28-8.55,16.45-13.32,24.39-1.08,1.8-4.05,2.46-6.16,3.64-.22-2.27-1.39-5.05-.49-6.73,5.49-10.24,11.39-20.25,17.28-30.27,1.46-2.48,3.52-3.75,6.7-2.38,9,3.85,18.06,7.53,27.13,11.21,3.42,1.39,5.91,3.18,4.35,7.42,0,0,.11,.43,.11,.43Z"/>
  <path class="cls-7" d="M358.78,77.25c.38-3.62,.45-7.32,1.3-10.82,.38-1.58,2.19-3.7,3.59-3.89,1.29-.18,3.46,1.57,4.26,3.02,3.68,6.63,1.64,13.61,.19,20.32-.32,1.48-3.72,3.62-5.07,3.24-1.86-.53-3.79-2.96-4.44-4.97-.66-2.03,.19-4.56,.38-6.86-.07,0-.15-.02-.22-.02Z"/>
  <path class="cls-3" d="M318.32,81.62c-.32,2.95-.32,5.99-1.1,8.81-.39,1.41-2.25,3.4-3.4,3.37-1.58-.03-4.41-1.65-4.48-2.73-.39-6.17-.34-12.39,.15-18.55,.08-1.07,3.07-2.84,4.48-2.63,1.46,.22,3.36,2.25,3.76,3.82,.63,2.48,.17,5.24,.17,7.89,.14,0,.29,.02,.43,.02Z"/>
  <path class="cls-8" d="M374.94,184.93c.71,.35,1.41,.7,2.12,1.04-1.39,1.79-2.78,3.57-4.17,5.36-3.32-3.36-2.92-4.62,2.06-6.4Z"/>
  <path class="cls-2" d="M14.05,34.94c-1.33,.34-2.66,.67-3.99,1.01-1.35-.37-2.71-.74-4.06-1.11,.05-.36,.1-.72,.15-1.08,2.64,.39,5.27,.79,7.91,1.18Z"/>
  <path class="cls-4" d="M469.72,92.46c13.41,24.21,14.16,48.72,1.87,73.08-5.25,10.4-16.05,15.29-26.17,19.93-5.79,2.65-12.35,3.69-18.61,5.25-1.33,.33-2.89-.23-4.34-.39,.43-1.31,.67-2.73,1.34-3.9,1.64-2.89,3.42-5.71,5.28-8.47,.71-1.05,1.65-2.18,2.75-2.71,28.59-13.66,37.94-43.43,29.3-63.73-.68-1.59-.29-4.17,.56-5.79,2.37-4.51,5.24-8.75,8.02-13.28Z"/>
  <path class="cls-4" d="M448.81,108.51c-4.1-2.55-8.19-5.02-12.15-7.68-.35-.24-.1-1.86,.29-2.64,5.02-10.1,10.08-20.19,15.29-30.2,.34-.64,2.37-1.17,3-.77,3.91,2.49,7.72,5.15,11.37,8.02,.65,.51,.87,2.53,.41,3.36-5.2,9.44-10.56,18.8-15.93,28.15-.35,.6-1.17,.93-2.27,1.76Z"/>
</svg>