<?xml version="1.0" encoding="UTF-8"?>
<svg id="_Слой_1" data-name="Слой 1" xmlns="http://www.w3.org/2000/svg" viewBox="0 0 100 100">
  <defs>
    <style>
      .cls-1 {
        fill: #7f68ac;
      }
    </style>
  </defs>
  <path class="cls-1" d="M39.09,82.59c.38-4.96,.81-9.76,1.1-14.57,.14-2.39,1.44-3.95,3.1-5.46,11.31-10.32,22.59-20.67,33.89-31.01,.61-.56,1.25-1.1,1.88-1.64,.66-.58,1.21-1.28,.56-2.11-.7-.87-1.59-.28-2.24,.12-4.36,2.74-8.69,5.54-13.03,8.33-10.77,6.94-21.57,13.82-32.27,20.87-2.61,1.72-4.95,2.17-7.92,1.05-4.81-1.81-9.77-3.23-14.64-4.88-2.11-.72-5.17-.74-5.23-3.7-.06-2.85,2.92-3.36,4.98-4.19,12.8-5.15,25.63-10.22,38.47-15.26,13.45-5.29,26.93-10.52,40.4-15.77,2.42-.94,4.88-2.8,7.41-.44,2.32,2.16,1.52,4.99,1,7.54-3.39,16.61-6.88,33.2-10.33,49.79-1.05,5.04-2.11,10.09-3.09,15.14-1.25,6.4-3.84,7.76-9,4.19-5.61-3.87-11.08-7.96-16.34-12.29-2.89-2.38-5.06-2.6-7.59,.27-1.87,2.12-3.91,4.11-6.05,5.95-1.27,1.09-2.23,3.58-4.31,2.53-1.73-.87-.43-3.06-.72-4.47Z"/>
</svg>