<?xml version="1.0" encoding="UTF-8"?>
<svg id="_Слой_1" data-name="Слой 1" xmlns="http://www.w3.org/2000/svg" viewBox="0 0 100 100">
  <defs>
    <style>
      .cls-1 {
        fill: #7f68ac;
      }
    </style>
  </defs>
  <path class="cls-1" d="M58.78,36.82c0,3-.04,5.99,.02,8.99,.03,1.5,.09,3.2,1.68,3.9,1.99,.87,3.13-.81,4.11-2.04,4.51-5.63,7.8-12.01,10.16-18.77,1.32-3.78,3.29-5.31,7.28-5.04,4.14,.28,8.32-.08,12.48,.02,4.29,.11,5.35,1.82,3.6,5.77-2.91,6.59-7.26,12.3-11.33,18.18-4.92,7.11-4.94,7.47,.92,14.02,3.44,3.84,7.22,7.38,9.79,11.93,2.53,4.47,1.32,6.97-3.81,7.24-4.15,.22-8.32,.19-12.48,.18-4.08,0-6.68-2.65-9.16-5.41-1.89-2.1-3.59-4.38-5.56-6.4-3.08-3.16-5.39-2.61-7.01,1.51-.18,.46-.31,.95-.42,1.43-2,9.23-2.01,9.4-11.46,8.64-9.93-.8-17.41-6.24-23.47-13.69C14.8,55.81,8.74,42.47,2.78,29.1c-1.44-3.23-.81-5.17,3.08-5.23,.33,0,.67,.03,1-.02,9.73-1.54,16.89,.54,19.68,11.57,1.17,4.63,3.5,9.38,7.24,12.95,2.79,2.66,4.89,2.31,5.65-1.37,1.16-5.56,1.03-11.25,.09-16.86-.25-1.46-1.03-2.81-2.29-3.76-.84-.64-2.56-.53-2.19-2.2,.33-1.48,1.65-2,2.99-2.29,5.43-1.19,10.88-1.31,16.36-.3,3.24,.59,4.33,2.87,4.44,5.76,.12,3.16,.03,6.32,.03,9.49-.03,0-.06,0-.09,0Z"/>
</svg>