<?xml version="1.0" encoding="UTF-8"?>
<svg id="_Слой_1" data-name="Слой 1" xmlns="http://www.w3.org/2000/svg" viewBox="0 0 100 100">
  <defs>
    <style>
      .cls-1 {
        fill: #7f68ac;
      }
    </style>
  </defs>
  <path class="cls-1" d="M97.1,50.54c1.28,19.33-15.7,38.41-33.34,42.77-10.42,2.58-20.08,1.92-29.56-2.37-4.11-1.86-7.43-.1-10.99,.86-4.32,1.17-8.49,2.91-12.83,3.96-4.21,1.01-5.32-.37-4.03-4.4,.66-2.06,1.3-4.14,2.18-6.1,3.33-7.46,3.52-14.19,.43-22.48C-1.8,33.84,24.1,2.73,55.36,5.32c21.36,1.77,38.16,18.61,41.19,36.76,.46,2.77,.38,5.63,.56,8.45Zm-51.95-11.62c.33-3.72-1.93-6.64-3.28-9.71-.78-1.77-3.01-2.39-5.38-1.43-6.13,2.49-9.2,9.29-6.82,16.38,3.65,10.86,10.84,19.13,20.79,24.34,5.97,3.12,12.55,6.87,19.92,2.56,3.23-1.89,5.02-4.67,5.51-8.07,.45-3.18-2.32-4.32-4.75-5.43-1.49-.68-2.87-1.65-4.41-2.18-1.91-.66-4.35-1.12-5.41,.94-2.89,5.62-6.09,3.26-9.29,.65-2.3-1.88-4.62-3.82-6.52-6.08-1.98-2.34-4.7-4.84-.99-8.19,.74-.67,.45-2.5,.63-3.79Z"/>
</svg>