<?xml version="1.0" encoding="UTF-8"?>
<svg id="_Слой_1" data-name="Слой 1" xmlns="http://www.w3.org/2000/svg" viewBox="0 0 333 95">
  <defs>
    <style>
      .cls-1 {
        fill: #2b2b2d;
      }

      .cls-2 {
        fill: #cbcbcc;
      }

      .cls-3 {
        fill: #3e3f41;
      }

      .cls-4 {
        fill: #242428;
      }

      .cls-5 {
        fill: #2a2b2c;
      }

      .cls-6 {
        fill: #232326;
      }

      .cls-7 {
        fill: #292a2d;
      }

      .cls-8 {
        fill: #c0c0c3;
      }

      .cls-9 {
        fill: #232426;
      }

      .cls-10 {
        fill: #171719;
      }

      .cls-11 {
        fill: #969599;
      }

      .cls-12 {
        fill: #0c0d10;
      }

      .cls-13 {
        fill: #848387;
      }

      .cls-14 {
        fill: #242326;
      }

      .cls-15 {
        fill: #bebec0;
      }

      .cls-16 {
        fill: #333335;
      }

      .cls-17 {
        fill: #cccbcd;
      }

      .cls-18 {
        fill: #363739;
      }

      .cls-19 {
        fill: #2c2c2f;
      }

      .cls-20 {
        fill: #353437;
      }

      .cls-21 {
        fill: #98989a;
      }

      .cls-22 {
        fill: #a6a8ab;
      }

      .cls-23 {
        fill: #2b2c2e;
      }

      .cls-24 {
        fill: #27272a;
      }

      .cls-25 {
        fill: #29292b;
      }

      .cls-26 {
        fill: #2f2f30;
      }

      .cls-27 {
        fill: #272729;
      }

      .cls-28 {
        fill: #39393b;
      }

      .cls-29 {
        fill: #353538;
      }

      .cls-30 {
        fill: #2a2b2d;
      }

      .cls-31 {
        fill: #3d3d3f;
      }

      .cls-32 {
        fill: #292a2c;
      }

      .cls-33 {
        fill: #252628;
      }

      .cls-34 {
        fill: #bbbcbd;
      }

      .cls-35 {
        fill: #2a2a2d;
      }

      .cls-36 {
        fill: #a7a8ac;
      }

      .cls-37 {
        fill: #0c0d11;
      }

      .cls-38 {
        fill: #a5a5a6;
      }

      .cls-39 {
        fill: #262629;
      }

      .cls-40 {
        fill: #3d3d40;
      }

      .cls-41 {
        fill: #9e9fa2;
      }

      .cls-42 {
        fill: #a2a2a4;
      }

      .cls-43 {
        fill: #4d4e50;
      }

      .cls-44 {
        fill: #3f4042;
      }

      .cls-45 {
        fill: #424245;
      }

      .cls-46 {
        fill: #979798;
      }

      .cls-47 {
        fill: #2d2d30;
      }

      .cls-48 {
        fill: #17171a;
      }

      .cls-49 {
        fill: #202023;
      }

      .cls-50 {
        fill: #303133;
      }

      .cls-51 {
        fill: #333336;
      }

      .cls-52 {
        fill: #313134;
      }

      .cls-53 {
        fill: #9c9d9f;
      }

      .cls-54 {
        fill: #b0b1b4;
      }

      .cls-55 {
        fill: #0e0f13;
      }

      .cls-56 {
        fill: #2b2b2e;
      }

      .cls-57 {
        fill: #b9bbbe;
      }

      .cls-58 {
        fill: #4b4b4d;
      }

      .cls-59 {
        fill: #4b4b4e;
      }

      .cls-60 {
        fill: #a2a2a5;
      }
    </style>
  </defs>
  <path class="cls-37" d="M169.45,5.92c6.49,0,12.98-.1,19.46,.02,9.11,.18,15.93,6.76,16.28,15.51,.37,9.09-5.98,16.75-15.21,17.04-13.79,.44-27.62,.42-41.41,.01-8.94-.26-15.53-7.83-15.41-16.47,.13-8.87,7.17-15.91,16.32-16.09,6.65-.14,13.31-.03,19.96-.03Zm-.46,23.37c6.49,0,12.99,.06,19.48-.02,4.49-.06,7.42-2.34,7.49-6.92,.07-4.53-2.74-7.17-7.22-7.22-12.99-.14-25.98-.12-38.97,0-4.55,.04-7.27,2.73-7.2,7.21,.07,4.49,2.81,6.94,7.43,6.95,6.33,.01,12.66,0,18.98,0Z"/>
  <path class="cls-37" d="M176.5,84.1c-7,0-14-.11-20.99,.06-2.67,.06-3.81-.44-3.74-3.47,.21-8.66,.2-17.33,0-25.98-.07-3.03,1.13-3.54,3.79-3.5,9.83,.13,19.66,.05,29.48,.06,.83,0,1.68-.01,2.49,.13,2.9,.5,6.5,1.71,6.89,4.27,1.26,8.43,15.02,9.67,11.33,20.91-1.57,4.77-3.42,7.66-8.77,7.55-6.83-.15-13.66-.04-20.49-.03Zm2.06-9.11c4.99,0,9.98,.02,14.97-.02,1.07,0,2.68,.5,2.87-1.12,.19-1.58-1.34-1.59-2.47-1.67-10.11-.8-20.22-1.54-30.33-2.39-1.87-.16-2.74,.19-2.72,2.3,.02,2,.38,3.03,2.72,2.96,4.99-.15,9.98-.05,14.97-.05Zm-15.02-9.2c7.12-.76,14.4-1.52,21.68-2.35,1.08-.12,2.65-.1,2.32-1.82-.2-1.09-1.36-1.26-2.43-1.26-7.33,.02-14.66,.05-22-.02-2.28-.02-2.2,1.39-2.24,2.97-.05,1.8,.34,3,2.66,2.47Z"/>
  <path class="cls-37" d="M237.64,84.1c-7.66,0-15.32-.08-22.98,.05-2.36,.04-3.17-.63-3.13-3.06,.13-8.82,.12-17.65,0-26.48-.04-2.64,.88-3.41,3.47-3.4,15.15,.1,30.31,.16,45.46-.03,4.35-.05,3.12,2.74,3.31,5,.22,2.58,.07,4.38-3.5,4.32-11.82-.2-23.65-.11-35.47-.03-1.42,0-3.71-1.03-3.93,1.64-.24,2.91,2.26,1.81,3.59,1.94,7.45,.72,14.93,1.23,22.39,1.88,1.31,.11,3.32-.56,3.19,1.93-.1,2.01-1.84,1.63-3.03,1.72-7.47,.61-14.94,1.08-22.41,1.7-1.47,.12-3.82-.56-3.72,2.06,.11,2.8,2.52,1.53,3.85,1.54,11.66,.11,23.32,.25,34.97-.04,3.96-.1,4.09,1.66,4.15,4.72,.06,3.24-.44,4.78-4.24,4.61-7.31-.32-14.65-.09-21.98-.09Z"/>
  <path class="cls-12" d="M95.99,5.92c7.32,0,14.64-.12,21.95,.04,6.23,.14,9.09,2.75,9.93,8.93,.35,2.62,.36,5.32,.18,7.96-.5,7.5-3.46,10.42-11.01,10.53-10.81,.16-21.62,.06-32.43,.07-2.14,0-4.08-.47-4.38,3-.38,4.38-4.19,1.56-6.38,2.13-2.21,.57-2.72-.98-2.7-2.97,.06-8.82,.13-17.63-.03-26.45-.05-2.7,.88-3.37,3.42-3.32,7.15,.14,14.3,.05,21.46,.05,0,0,0,.02,0,.03Zm2.51,18.29c5.5,0,11-.04,16.5,.02,3.05,.03,4.06-1.58,4.09-4.39,.02-2.93-.79-4.83-4.19-4.81-10.5,.05-21,.14-31.5-.07-4.1-.08-2.95,2.63-3.01,4.7-.06,2.17-.9,4.83,3.11,4.63,4.99-.25,10-.06,15-.07Z"/>
  <path class="cls-37" d="M120.73,84.05c-6.83,0-13.66,.15-20.49-.04-6.97-.19-10.25-3.28-11.37-10.17-.24-1.48-.43-2.97-.51-4.46-.7-13.97,3.16-18.08,17.07-18.11,11.99-.02,23.99,.2,35.98-.12,4.31-.11,3.87,2.16,3.95,4.94,.08,2.85-.12,4.53-3.87,4.44-11.66-.26-23.32-.14-34.98-.06-7.4,.05-9.01,1.47-8.94,7.47,.06,5.75,1.62,7.01,8.8,7.02,11.66,.02,23.33,.21,34.98-.1,4.11-.11,3.94,1.84,4.04,4.76,.11,3.21-.36,4.78-4.18,4.59-6.81-.34-13.66-.1-20.49-.1,0-.02,0-.04,0-.06Z"/>
  <path class="cls-37" d="M38.6,61.41c2.46-3.19-3.71-10.82,6.17-10.16,8.84,.59,1.59,7.33,5.28,10.01,6.42-.15,12.31-10.3,21-2.88-4.3,2.08-8.28,4.01-12.27,5.94,0,.38-.01,.77-.02,1.15,5.11,0,10.22-.06,15.33,.03,1.76,.03,4.26-.96,4.2,2.5-.06,3.27-2.45,2.05-3.96,2.09-5.33,.13-10.66,.05-16.36,.8,4.25,2.14,8.51,4.28,13.09,6.58-3.41,2.35-6.35,4.42-10.62,1.76-3.34-2.08-7.13-3.42-10.65-5.06-2.75,3.13,3.46,10.69-6.16,10.22-9.11-.44-1.94-7.5-5.12-10.03-7.14,.52-12.92,10.7-21.74,3.09,4.49-2.22,8.82-4.35,13.16-6.49-.07-.28-.14-.55-.2-.83-5.24,0-10.48,.09-15.72-.05-1.64-.04-4.32,1.29-4.17-2.35,.14-3.52,2.77-2.16,4.42-2.21,4.86-.16,9.74-.06,14.78-1.16-3.94-1.93-7.88-3.86-12.14-5.95,8.71-7.57,14.43,2.64,21.71,3Z"/>
  <path class="cls-37" d="M36.8,5.89c7.66,0,15.33,.11,22.99-.06,2.84-.06,4.17,.41,4.07,3.74-.25,8.49-.28,16.99,0,25.48,.14,4.03-2.15,3.59-4.73,3.64-2.74,.06-4.81,.08-4.58-3.79,.33-5.48-.03-10.99,.13-16.48,.07-2.55-.64-3.49-3.34-3.45-9.83,.14-19.66,.13-29.48,0-2.48-.03-3.1,.84-3.05,3.16,.14,5.49-.23,11.01,.13,16.48,.26,4.02-1.74,4.16-4.77,4.11-2.77-.05-4.66-.03-4.52-3.84,.3-8.48,.22-16.99,.03-25.48-.06-2.88,.82-3.64,3.63-3.58,7.82,.19,15.66,.06,23.49,.06Z"/>
  <path class="cls-55" d="M296.11,51.25c8.15,0,16.31,.25,24.44-.11,4.12-.18,3.71,2.1,3.64,4.64-.07,2.36,.84,5.04-3.45,4.74-5.46-.38-10.97,.04-16.45-.14-2.81-.09-3.8,.78-3.7,3.66,.2,5.48-.24,10.99,.15,16.45,.3,4.15-2.15,3.64-4.66,3.62-2.42-.03-5.05,.71-4.78-3.48,.32-5.13-.23-10.33,.17-15.45,.33-4.22-1.38-5.03-5.09-4.82-4.81,.27-9.66-.19-14.46,.15-3.69,.26-4.31-1.19-4.32-4.51,0-3.49,.57-5.03,4.58-4.85,7.97,.35,15.96,.1,23.94,.1Z"/>
  <path class="cls-40" d="M263.38,35.87c1.38-1.7-.32-3.93,1.45-5.2,.24-.17,1.21,.11,1.25,.3,.48,2.39,.86,4.8,1.25,7.21,.02,.13-.12,.42-.17,.42-3.48-.23-7.22,.21-10.33-.98-2.01-.77-.46-4.14-.51-6.33,0-.27,.88-.88,1.06-.78,.51,.26,1.14,.77,1.25,1.27,.27,1.25,.27,2.55,.4,4.11,2.19-1.49-.37-5.25,2.3-5.22,2.64,.03,.54,3.45,2.04,5.19Z"/>
  <path class="cls-27" d="M240.18,8.11c5.03-.16,7.31,2.07,7.08,7.1-.04,.92-.63,2.37-1.77,1.45-2.38-1.94-4.3-.03-6.41,.29,.36-2.95,.73-5.9,1.09-8.85Zm2.38,1.69c-.73,1.5-1.01,2.72-.21,3.91,.09,.13,1.06-.04,1.16-.27,.48-1.17,.85-2.41-.94-3.64Z"/>
  <path class="cls-18" d="M285.04,20.83c-4-.94-2.56,2.33-3.12,4.04,.88,.26,2.39,.4,1.39,1.66-.49,.62-2.12,.37-3.24,.45-1.11,.08-1.69-.36-2.02-1.58-1.24-4.54,.13-6.33,5.07-6.03,2.28,.13,4.74-1.52,6.82,.63-1.64,.23-3.45-.57-4.9,.83Z"/>
  <path class="cls-20" d="M262.78,20.96c.43-1.02,1.56-2.79,2.14-1.42,1.44,3.42,2.05,1.08,3.16,.02,.65-.62,1.74-.64,1.96,.35,.5,2.23,.82,4.65-.22,6.71-.44,.87-1.81,.24-1.88-1.08-.08-1.6-.53-1.75-1.38-.41-.96,1.51-1.87,2.93-3.66,.89-.04-1.69-.07-3.38-.11-5.07Z"/>
  <path class="cls-16" d="M216.03,10.19c.75-.61,1.42-1.46,2.28-1.79,2.4-.92,4.66-.67,5.77,1.98,.99,2.34,.12,4.26-2.24,5.19-2.63,1.03-4.5-.14-5.49-2.59-.35-.86-.14-1.93-.19-2.91,0,0-.13,.13-.13,.13Zm5.91,1.53c-.09-1.2-.73-1.8-1.92-1.66-1.06,.13-1.19,1.01-1.18,1.83,.01,1.03,.3,2.06,1.6,1.96,1.21-.1,1.54-1.04,1.5-2.14Z"/>
  <path class="cls-59" d="M290.92,7.97c1.38-.21,2.13,.26,2.27,1.77,.08,.93,.84,1.6,1.55,.57,.72-1.05,.89-3.71,2.6-1.64,1.33,1.62,.89,4.37,.01,6.57-.11,.27-1.19,.44-1.2,.42-1.98-5.22-3.32,.56-4.99,.28-.86-2.63-.61-5.29-.24-7.96Z"/>
  <path class="cls-31" d="M214.27,32.19c-.47,.48-.73,.66-.88,.91-.92,1.51,1.2,4.65-1.66,4.68-1.66,.02-.6-2.79-.86-4.31-.49-2.8,1.08-3.27,3.47-3.23,2.33,.04,3.95,.41,3.6,3.25-.08,.65,.05,1.33-.03,1.98-.13,1.01,.49,2.64-1.43,2.47-1.34-.12-1.08-1.4-1.16-2.35-.1-1.11,.27-2.34-1.04-3.41Z"/>
  <path class="cls-56" d="M232.87,26.9c-.08-.06-4.76-.05-5.03-.03-.88,.08-1.76-.04-1.72-1.16,.06-2.09-.9-4.49,.6-6.17,.93-1.04,1.47,.32,1.74,1.35,.58,2.21,1.14,.61,1.56-.09,.64-1.06,1.37-1.86,2.75-1.62,.03,2.57,.07,5.15,.1,7.72Z"/>
  <path class="cls-28" d="M260.95,9.15c2.99,.73,6.61-3.65,9.11,1.1l-.12-.13c-.24,.21-.54,.39-.73,.65-1.15,1.55-4.18-3.12-4.26,1.12-.08,4.51,3.54-.67,4.53,1.51-3,3.85-4.43,3.63-8.49-1.4-.02-.95-.03-1.9-.05-2.85Z"/>
  <path class="cls-49" d="M321.58,12.72c-1.5,.55-1.49,3.7-3.46,2.73-2.12-1.03-.67-3.56-.96-5.41-.12-.76-.07-1.68,1.03-1.9,.57,5.04,5.46-3.12,6,1.96,.09,.81,.1,1.65,0,2.46-.13,1.04,.61,2.7-.93,2.92-2.08,.3-.65-2.08-1.67-2.77Z"/>
  <path class="cls-9" d="M289.97,34.53c-.41,1.1,.82,2.88-1,3.35-1.43,.37-.93-1.36-1.43-1.93-1.46-1.64-1.32,.5-1.83,1.01-.85,.85-2.16,1.93-2.6,.37-.55-1.94-.71-4.54,.18-6.18,.86-1.58,1.65,0,1.8,1.26,.24,2.01,.85,.5,1.2,.07,.8-.98,1.4-2.64,3.01-1.65,1.3,.8,.37,2.44,.66,3.7Z"/>
  <path class="cls-47" d="M282.96,14.98c-1.84,.86-4.28,1.82-5.45,.14-1.23-1.77-1.36-4.89,0-6.58,1.14-1.41,3.69-.79,5.44,.48,0,1.99,0,3.97,0,5.96Zm-1.72-1.87c-.7-.28-1.09-.44-1.48-.59-.14,.39-.34,.77-.39,1.17-.01,.08,.57,.39,.78,.31,.33-.11,.58-.46,1.08-.89Zm-1.86-2.83c.18,.2,.32,.51,.49,.52,.25,.02,.51-.17,.77-.27-.15-.18-.28-.51-.45-.52-.25-.02-.52,.16-.81,.27Z"/>
  <path class="cls-3" d="M233.2,32.6c2.55-.89,4.68-3.8,7.86-1.62,.04,.25,.06,.5,.06,.75-.04,.41-.08,.82-.11,1.23-.33,.02-.67,.03-1,.05-.44-.29-.87-.59-1.31-.88-1.83,.23-1.97,1.56-1.63,2.88,.47,1.83,1.69,.94,2.66,.46,1.52-.74,2.06-.04,2.21,1.37-3.19,2.95-5.97,.38-8.86-.65,.04-1.2,.08-2.39,.13-3.59Z"/>
  <path class="cls-24" d="M225.09,22.91c-.48,1.52,.63,3.3-1.05,3.82-1.86,.58-1.04-1.61-1.8-2.27-.54-.47-1.13-.51-1.74-.07-.82,.6-.02,4.22-2.19,1.73-1.24-1.42-.77-4.44,.04-6.68,.05-.13,1.21-.1,1.27,.08,1.09,2.88,2.12,3.98,3.39,.09,.06-.17,1.23-.21,1.25-.13,.35,1.23,.6,2.49,.8,3.43Z"/>
  <path class="cls-39" d="M299.2,16.42c-.12-2.26-.29-3.57-.24-4.87,.04-1.11-.02-2.9,.57-3.19,1.77-.89,1.31,1.13,1.89,1.91,.85,1.15,1.76,.7,2.12-.42,.32-1,.83-2.42,1.73-1.51,1.6,1.65,.55,4.05,.62,6.13,.03,.74-.44,1.2-1.25,1.13-.15-.01-.39-.11-.43-.22-1.69-5.08-2.95-.44-5.02,1.04Z"/>
  <path class="cls-29" d="M233.2,32.6c-.04,1.2-.08,2.39-.13,3.59-1.93,2.9-4.34,2.8-6.5,.58-1.46-1.51-1.7-3.68,.21-5.21,2.4-1.92,4.72-2.01,6.41,1.04Zm-2.03,1.62c-.05-.71-.05-1.85-1.33-1.94-1.17-.08-1.66,.81-1.72,1.9-.06,1.17,.52,1.88,1.67,1.92,1,.03,1.37-.69,1.38-1.88Z"/>
  <path class="cls-45" d="M247.92,37.93c-1.67,.03-3.34,.06-5.01,.09-.1-2.64-.61-5.31,.44-7.89l4.75,.79c0,2.33,1.62,4.71-.18,7Zm-1.67-4.99c-.1-.27-.16-.71-.3-.73-.26-.05-.56,.14-.85,.23,.1,.3,.2,.6,.31,.9,.28-.13,.56-.26,.85-.39Zm-.71,3.43c.29-.16,.63-.26,.79-.49,.09-.13-.13-.48-.21-.73-.34,.16-.68,.32-1.01,.48,.14,.24,.28,.49,.43,.74Z"/>
  <path class="cls-7" d="M291.45,38.05c2.08-2.28-3.21-7.81,3.1-7.43,5.34,.32,2.29,4.51,1.96,7.25-1.62-1.19-3.22-.8-5.06,.18Zm2.86-3.83c.31-.66,.67-1.06,.58-1.34-.08-.28-.58-.5-.94-.61-.09-.03-.53,.48-.48,.65,.1,.37,.42,.68,.84,1.31Z"/>
  <path class="cls-51" d="M254.32,15.73c-2.3-1.66-4.32-1.59-7,.8,1.01-3.81,.47-8.12,3.71-8.18,3.37-.06,2.6,4.4,3.3,7.39Zm-3.61-4.61c-.16,.4-.38,.74-.41,1.1-.01,.12,.59,.45,.63,.41,.26-.28,.45-.62,.66-.95-.24-.15-.48-.31-.88-.56Z"/>
  <path class="cls-32" d="M240.14,22.24c.06,.41,.11,.82,.17,1.23-.07,.89-.13,1.77-.2,2.66,0,0,.02-.02,.02-.02-.38,.23-.77,.46-1.15,.69-1.28,.04-2.57,.07-3.85,.11,.03-2.58,.05-5.16,.08-7.74,1.22-.02,2.43-.04,3.65-.06,.4,.25,.8,.51,1.21,.76,0,0-.12,.21-.12,.21,.06,.72,.13,1.44,.19,2.16Zm-3.1-.92c.13,.23,.24,.61,.4,.63,.25,.03,.54-.18,.81-.28-.14-.21-.25-.56-.43-.61-.22-.05-.5,.15-.77,.26Zm1.41,3.01c-.3-.14-.57-.38-.83-.35-.22,.02-.41,.33-.62,.52,.36,.16,.71,.36,1.08,.46,.06,.02,.23-.39,.36-.62Z"/>
  <path class="cls-35" d="M231.84,14.91c-2.03,1.18-4.05,1.59-5.92-.25-1.13-1.11-1.76-2.43-1.01-4.05,1.21-2.59,3.4-2.89,5.88-2.49,1.03,2.4,.97,2.63-.79,2.17-1.13-.3-1.9-.44-2.48,.63-.43,.78-.34,1.6,.22,2.33,.81,1.05,1.56,.66,2.54,.12,1.91-1.05,1.84,.22,1.56,1.55Z"/>
  <path class="cls-52" d="M261.9,25.95c-2.35,1.46-4.72,1.93-6.48-.7-1.03-1.54-1.32-3.41,.41-4.91,2.35-2.04,4.47-1.66,6.4,.62-.23,.7-.66,1.18-1.43,1.02-1.13-.23-2.29-1.88-3.34,0-.28,.5-.3,1.37-.07,1.89,.83,1.84,1.91,.87,3.21,.35,1.48-.59,1.47,.67,1.3,1.73Z"/>
  <path class="cls-14" d="M281.6,33.87c-.43,1.59,.58,3.33-.98,3.93-1.84,.7-1.26-1.36-1.85-2.13-.51-.67-1.08-.64-1.56,.02-.64,.88-.49,4.08-2.37,1.36-.95-1.38-1.01-4.23,.34-6.09,.55-.76,1.47-.07,1.7,.88,.3,1.23,.98,1.85,1.96,.77,.64-.71,.37-2.76,2.05-1.57,.68,.48,.55,2.08,.72,2.82Z"/>
  <path class="cls-58" d="M241.63,23.3c.48-1.4-.94-3.5,1.4-4.15,1.05-.29,2.72-.46,3.33,.13,1.92,1.85-.55,1.6-1.31,2.17,2.86,.23-1.66,3.96,1.84,3.89-.02,.44,0,1.26-.08,1.28-1.26,.2-2.58,.55-3.79,.34-2.24-.4-.92-2.39-1.39-3.65Z"/>
  <path class="cls-1" d="M271.97,34.97c.23,2.32-.91,3.55-2.73,3.13-1.29-.29-1.67-1-1.35-2.09,.53-1.81-1.06-4.19,1.14-5.41,1.03-.57,2.98-.81,3.7,.28,1.01,1.55-.85,1.07-1.54,1.39-.29,.09-.57,.18-.86,.27,.25,.13,.5,.25,.75,.38,0,0,0,0,0,0,.3,.68,.59,1.37,.89,2.05Z"/>
  <path class="cls-48" d="M252.99,23.77c-.46,.17-.91,.45-1.39,.51-1.46,.18-1.09,3.86-2.89,2.09-1.03-1.01-.56-3.76-.43-5.7,.13-2.01,1.91-1.57,3.11-1.41,2.08,.29,3.48,1.28,2.46,3.73-.28,.26-.57,.52-.85,.78Zm-1.96-4c-.36,1.17-.62,1.62-.58,2.04,.03,.35,.44,.66,.67,.99,.3-.25,.77-.45,.84-.76,.07-.3-.26-.7-.94-2.28Z"/>
  <path class="cls-6" d="M224,34.81c-.43,.24-.86,.69-1.28,.67-1.7-.07-1.37,3.51-3.06,2.16-1.53-1.22-.51-3.7-.54-5.61-.03-1.63,1.35-1.68,2.51-1.57,2.09,.2,4.1,.6,3.32,3.54-.32,.27-.63,.54-.95,.81Zm-.83-2.07c-.65-.24-1.04-.39-1.43-.53-.14,.4-.34,.8-.37,1.21,0,.12,.59,.45,.75,.37,.34-.17,.58-.56,1.05-1.04Z"/>
  <path class="cls-44" d="M212.89,27.01c-.79-.1-1.89-.62-1.5-.92,2.96-2.26-2.2-4.7,.27-6.84,1.08,3.16,4.87-1.8,4.95,1.25,.06,2.19-1.25,5.11-3.72,6.51Z"/>
  <path class="cls-10" d="M312.96,14.76c-2.1,.52-4.74,2.99-5.71-1.13-.38-1.63-.45-4.45,.44-5.04,2.02-1.33,1.84,3.14,4.26,2.47,.88,1.09,1.17,2.33,1.01,3.7Zm-3.03-3.43c-.34,.84-.65,1.26-.62,1.65,.03,.33,.41,.81,.71,.88,.24,.06,.83-.36,.87-.62,.04-.33-.32-.71-.96-1.9Z"/>
  <path class="cls-33" d="M260.95,9.15c.02,.95,.03,1.9,.05,2.85-1.44,1.21-3.38,1.8-4.43,5-.98-3.93-1.52-6.6,.04-8.72,.56-.77,3.16-.86,4.35,.88Zm-1.14,1.47c-.59-.29-.93-.55-1.3-.6-.17-.02-.6,.43-.56,.55,.12,.37,.41,.69,.64,1.03,.33-.27,.66-.53,1.22-.99Z"/>
  <path class="cls-30" d="M254.94,37.01c-1.25,2.22-3.21,.71-4.84,.92-.04-2.32-.09-4.63-.13-6.95,1.82-.59,3.75-1.77,4.96,.93-.88,.19-1.76,.38-2.64,.57,.56,.83,1.12,1.66,1.68,2.49-.62,.24-1.24,.49-1.86,.73,.43,1.56,1.71,1.25,2.83,1.3Z"/>
  <path class="cls-25" d="M234.14,15.92c1.19-2.8-.6-5.23-.99-7.84,1.91,.97,3.83,1.72,5.74-.02,.36,2.28-1.77,3.81-1.81,5.97-.81,.89-1.53,1.92-2.93,1.89Z"/>
  <path class="cls-5" d="M270.07,10.26c.57-4.64,3.85-1.11,5.91-1.99-2.8,1.9-1.01,5.22-2.47,7.38-3.7-.44,.84-5.7-3.57-5.52,0,0,.12,.13,.12,.13Z"/>
  <path class="cls-50" d="M270.82,19.74c2.33-.89,4.21-.85,6.42-.18-.78,1.71-2.39,3.03-1.9,5.12,.18,.78,.3,2.21-1.22,2.08-1.39-.12-1.24-1.48-1.05-2.29,.49-2.09-.94-3.33-2.25-4.73Z"/>
  <path class="cls-23" d="M216.16,10.06c-5.33-.91-1.5,4.43-4.27,5.75-1.54-2.54-1.77-5.28-.01-7.58,.47-.62,4.03-1.48,4.15,1.96,0,0,.13-.13,.13-.13Z"/>
  <path class="cls-19" d="M285.04,8.19c1.3,.04,2.6,.09,3.9,.13-.08,.29-.02,.55,.17,.78h0c-.85-.05-1.62,.09-2.12,.89,0,0,0,0,0,0-.22,.18-.43,.36-.65,.54,.25,.14,.5,.28,.75,.42,.78,.21,2.64,.5,1.17,1.41-4.08,2.54,.81,1.11,.68,1.79-7.49,2.06-2.61-3.97-3.9-5.97Z"/>
  <path class="cls-4" d="M285.04,20.83c1.44-1.39,3.26-.59,4.9-.83,.16,1.28-1.7,1.15-1.66,2.66,.04,1.34,1.18,4.03-1.18,3.91-1.99-.1-.61-2.76-1.1-4.19-.19-.56-.63-1.04-.96-1.55Z"/>
  <path class="cls-34" d="M235.21,19.17c-.03,2.58-.05,5.16-.08,7.74-.75,0-1.51,0-2.26,0-.03-2.57-.07-5.15-.1-7.72,.81,0,1.63,0,2.44-.01Z"/>
  <path class="cls-43" d="M288.94,14.16c1.38,.06,.94,.94,.77,1.7-1.94-.19-4.05,.81-5.79-.82,0-2.03-.02-4.05-.03-6.08,.38-.26,.77-.51,1.15-.77,1.29,2-3.59,8.02,3.9,5.97Z"/>
  <path class="cls-26" d="M314.13,8.14c3.67,1.45,1.13,4.5,1.74,6.74-4.03-1.35-1.19-4.48-1.74-6.74Z"/>
  <path class="cls-21" d="M314.13,8.14c.54,2.25-2.3,5.38,1.74,6.74-1.06,2.45-1.98,1.12-2.91-.11,.15-1.37-.14-2.61-1.01-3.7,1.61-.32,.48-2.67,2.18-2.93Z"/>
  <path class="cls-15" d="M249.97,30.99c.04,2.32,.09,4.63,.13,6.95-.73,0-1.45,0-2.18,0,1.79-2.29,.18-4.66,.18-7,.63,.02,1.25,.03,1.88,.05Z"/>
  <path class="cls-2" d="M283.89,8.96c0,2.03,.02,4.05,.03,6.08-.32,.02-.64,0-.95-.06,0-1.99,0-3.97,0-5.96,.31-.02,.62-.04,.92-.06Z"/>
  <path class="cls-38" d="M253.97,34.98c-.56-.83-1.12-1.66-1.68-2.49,.88-.19,1.76-.38,2.64-.57-.47,.97,.91,2.53-.96,3.06Z"/>
  <path class="cls-46" d="M271.97,34.97c-.3-.68-.59-1.37-.89-2.05,.83-.19,1.5-.03,1.78,.88,.24,.78-.19,1.08-.89,1.17Z"/>
  <path class="cls-40" d="M254.94,37.01c-1.12-.05-2.41,.27-2.83-1.3,.84,.67,2.42-.28,2.83,1.3Z"/>
  <path class="cls-58" d="M240.14,22.24c-.06-.72-.13-1.44-.19-2.16,1.17,.62,1.5,1.32,.19,2.16Z"/>
  <path class="cls-58" d="M240.11,26.13c.07-.89,.13-1.77,.2-2.66,1.28,.99,1.26,1.87-.2,2.66Z"/>
  <path class="cls-34" d="M240.07,19.88c-.4-.25-.8-.51-1.21-.76,.67-.16,1.04,.14,1.21,.76Z"/>
  <path class="cls-46" d="M271.08,32.92c-.25-.13-.5-.25-.75-.38,.29-.09,.57-.18,.86-.27,.15,.25,.11,.46-.11,.65Z"/>
  <path class="cls-58" d="M238.98,26.8c.38-.23,.77-.46,1.15-.69-.38,.23-.77,.46-1.15,.69Z"/>
  <path class="cls-52" d="M252.99,23.77c.28-.26,.57-.52,.85-.78,.12,.7-.3,.81-.85,.78Z"/>
  <path class="cls-43" d="M289.68,8.17c-.19,.31-.38,.62-.56,.92-.19-.23-.25-.49-.17-.78,.25-.04,.49-.09,.73-.14Z"/>
  <path class="cls-29" d="M224,34.81c.32-.27,.63-.54,.95-.81,.1,.76-.48,.71-.95,.81Z"/>
  <path class="cls-42" d="M281.24,13.11c-.5,.43-.75,.78-1.08,.89-.22,.07-.8-.23-.78-.31,.05-.4,.25-.78,.39-1.17,.39,.16,.78,.31,1.48,.59Z"/>
  <path class="cls-8" d="M279.39,10.28c.29-.11,.56-.3,.81-.27,.16,.02,.3,.34,.45,.52-.26,.1-.52,.29-.77,.27-.17-.01-.32-.32-.49-.52Z"/>
  <path class="cls-45" d="M240,33.01c-.44-.29-.87-.59-1.31-.88,.44,.29,.87,.59,1.31,.88Z"/>
  <path class="cls-45" d="M241.11,31.73c.47,.46,1.19,.94-.11,1.23,.04-.41,.08-.82,.11-1.23Z"/>
  <path class="cls-41" d="M246.25,32.94c-.28,.13-.56,.26-.85,.39-.1-.3-.2-.6-.31-.9,.29-.09,.59-.28,.85-.23,.14,.03,.2,.46,.3,.73Z"/>
  <path class="cls-54" d="M245.54,36.38c-.15-.25-.29-.5-.43-.74,.34-.16,.68-.32,1.01-.48,.08,.25,.3,.59,.21,.73-.16,.23-.51,.33-.79,.49Z"/>
  <path class="cls-36" d="M294.31,34.22c-.42-.63-.73-.94-.84-1.31-.05-.17,.39-.68,.48-.65,.36,.11,.86,.33,.94,.61,.08,.28-.28,.69-.58,1.34Z"/>
  <path class="cls-13" d="M250.7,11.12c.4,.25,.64,.41,.88,.56-.21,.32-.4,.67-.66,.95-.04,.04-.64-.29-.63-.41,.04-.36,.25-.71,.41-1.1Z"/>
  <path class="cls-57" d="M237.04,21.32c.27-.1,.55-.31,.77-.26,.18,.04,.29,.39,.43,.61-.27,.11-.55,.31-.81,.28-.15-.02-.26-.41-.4-.63Z"/>
  <path class="cls-17" d="M238.45,24.33c-.13,.23-.3,.64-.36,.62-.37-.1-.72-.29-1.08-.46,.21-.18,.4-.5,.62-.52,.25-.02,.53,.21,.83,.35Z"/>
  <path class="cls-60" d="M251.03,19.78c.68,1.58,1.01,1.98,.94,2.28-.07,.3-.55,.51-.84,.76-.24-.33-.64-.64-.67-.99-.04-.42,.23-.88,.58-2.04Z"/>
  <path class="cls-22" d="M223.17,32.73c-.46,.49-.7,.87-1.05,1.04-.16,.08-.76-.25-.75-.37,.03-.41,.23-.81,.37-1.21,.39,.15,.78,.29,1.43,.53Z"/>
  <path class="cls-53" d="M309.93,11.34c.64,1.19,1,1.57,.96,1.9-.04,.26-.62,.68-.87,.62-.31-.07-.69-.55-.71-.88-.03-.39,.28-.81,.62-1.65Z"/>
  <path class="cls-11" d="M259.82,10.62c-.56,.45-.89,.72-1.22,.99-.23-.34-.52-.66-.64-1.03-.04-.12,.39-.58,.56-.55,.37,.05,.71,.31,1.3,.6Z"/>
  <path class="cls-43" d="M289.11,9.09c-.27,1.32-1.3,.85-2.12,.9,.49-.8,1.27-.94,2.12-.9Z"/>
  <path class="cls-43" d="M286.99,9.99c.03,.32,.07,.64,.1,.97-.25-.14-.5-.28-.75-.42,.22-.18,.43-.36,.65-.54Z"/>
</svg>