<?xml version="1.0" encoding="UTF-8"?>
<svg id="_Слой_1" data-name="Слой 1" xmlns="http://www.w3.org/2000/svg" viewBox="0 0 320.19 81">
  <defs>
    <style>
      .cls-1 {
        fill: #b7b7b7;
      }

      .cls-2 {
        fill: #cbaf59;
      }

      .cls-3 {
        fill: #caac53;
      }

      .cls-4 {
        fill: #8b8b8b;
      }

      .cls-5 {
        fill: #cbcbcb;
      }

      .cls-6 {
        fill: #848484;
      }

      .cls-7 {
        fill: #cbad55;
      }

      .cls-8 {
        fill: #bfbfbf;
      }

      .cls-9 {
        fill: #caac54;
      }

      .cls-10 {
        fill: #989898;
      }

      .cls-11 {
        fill: #a9a9a9;
      }

      .cls-12 {
        fill: #a0a0a0;
      }

      .cls-13 {
        fill: #ccaf59;
      }

      .cls-14 {
        fill: #b2b2b2;
      }

      .cls-15 {
        fill: #8c8c8c;
      }

      .cls-16 {
        fill: #bababa;
      }

      .cls-17 {
        fill: #caad55;
      }

      .cls-18 {
        fill: #cbad56;
      }

      .cls-19 {
        fill: #cbae58;
      }

      .cls-20 {
        fill: #909090;
      }

      .cls-21 {
        fill: #c9c9c9;
      }

      .cls-22 {
        fill: #8d8d8d;
      }

      .cls-23 {
        fill: #a4a4a4;
      }

      .cls-24 {
        fill: #696969;
      }

      .cls-25 {
        fill: #646464;
      }

      .cls-26 {
        fill: #818181;
      }

      .cls-27 {
        fill: #828282;
      }

      .cls-28 {
        fill: #8f8f8f;
      }

      .cls-29 {
        fill: #787878;
      }

      .cls-30 {
        fill: #8e8e8e;
      }

      .cls-31 {
        fill: #898989;
      }

      .cls-32 {
        fill: #7d7d7d;
      }

      .cls-33 {
        fill: #676767;
      }

      .cls-34 {
        fill: #c8c8c8;
      }

      .cls-35 {
        fill: #ccaf5a;
      }

      .cls-36 {
        fill: #878787;
      }

      .cls-37 {
        fill: #afafaf;
      }

      .cls-38 {
        fill: #858585;
      }

      .cls-39 {
        fill: #9b9b9b;
      }

      .cls-40 {
        fill: #bbb;
      }

      .cls-41 {
        fill: #7e7e7e;
      }

      .cls-42 {
        fill: #cfb464;
      }

      .cls-43 {
        fill: #9a9a9a;
      }

      .cls-44 {
        fill: #606060;
      }

      .cls-45 {
        fill: #acacac;
      }

      .cls-46 {
        fill: #8a8a8a;
      }

      .cls-47 {
        fill: #919191;
      }

      .cls-48 {
        fill: #1e1e1e;
      }

      .cls-49 {
        fill: #c4c4c4;
      }

      .cls-50 {
        fill: #888;
      }

      .cls-51 {
        fill: #cbae57;
      }

      .cls-52 {
        fill: #a2a2a2;
      }
    </style>
  </defs>
  <path class="cls-3" d="M196.41,36.98c.56,4.07-1.28,7.33,2.16,9.99-1.93,1.17-3.43,.92-5.04,.51,1.19-5.4,1.44-10.67,.14-16.02,1.37-.91,2.82-.32,4.29-.39,2.68,3.5,3.06,7.9,5.66,12.05,1.76-4.28,3.31-8.04,4.81-11.69,1.84-.63,3.43-.64,5.15-.12-2.44,5.35-.63,10.52,.21,16.07-1.51,.83-3.36,.47-5.66,.06,1.74-3.47,1.05-6.94,.96-10.98-3.12,3.63-2.55,8.69-6.24,11.7-3.66-2.62-3.21-7.31-6.43-11.18Z"/>
  <path class="cls-35" d="M290.26,70.72c-2.07,.74-4.12,.72-6.47-.05,2.53-2.99,1.58-6.27,1.61-10.26-2.97,2.52-4.87,4.88-6.37,7-.9,1.77,1.55,1.86,.88,3.46-1.93,.64-3.96,.27-6.08,.19,1.25-5.7,1.36-11.03,.16-16.71,1.73-1,3.77-.48,6.45-.24-2.58,3.04-1.73,6.23-1.86,9.8,3.36-1.65,4.39-4.95,6.42-6.39,.74-1.74-1.37-1.83-.63-3.22,1.74-.98,3.66-.19,5.87-.51-1.22,5.93-1.5,11.39,.03,16.92Z"/>
  <path class="cls-51" d="M268.03,70.79c-1.94,.74-3.87,.24-6.32,.39,.55-2.6,1.8-4.83,.66-7.27-1.61-.94-3.38-.32-5.14-.38-1.47,2.58-.48,4.81,.4,7.08-2.22,.92-4.3,.66-6.42,.23,2.04-5.54,2.46-11.01,.03-16.54,1.89-.77,3.82-.53,6.15-.16-.11,2.28-1.75,4.53-.35,6.89,1.67,.71,3.4,.59,5.44,.03,.6-2.17,.5-4.29-.8-6.52,2.11-1.18,4.16-.65,6.28-.49-1.86,5.69-2.1,11.17,.06,16.74Z"/>
  <path class="cls-19" d="M192.12,24.18c-2.22,.54-4,.46-6.37,.08,2.22-3.04,1.45-6.32,1.59-10.03-3.3,1.72-4.49,4.87-6.44,6.37-.83,1.83,1.27,2.33,.48,3.78h-5.88c1.21-5.41,2.06-10.75-.47-16.08,1.95-1.12,4.06-.54,6.73-.46-1.72,3.04-1.46,6.06-1.15,9.61,2.91-1.86,4.35-4.42,6.11-6.41,.88-1.45-1.82-1.62-.66-3.07,1.79-.48,3.71-.45,5.89,.03-1.21,5.34-1.49,10.65,.18,16.18Z"/>
  <path class="cls-45" d="M56.48,52.74c3.38,.92,1.16,4.41,3.08,6.18-1.2,.85-2.32,1.64-3.44,2.43-.15-.53-.29-1.05-.49-1.75-.72,.31-1.41,.62-2.11,.92-.45-1.82-2.49,.59-2.99-1.09-.14-1.16-.34-2.28-1.8-2.53-2.98,2.62-2.44,4.49,1.87,6.55l-.07-.07c.45,1.04,1.05,1.87,2.62,1.58,.33-.76,.16-1.34-.69-1.75-.92-1.4-.19-2.17,1.09-2.72,.62,1.42,1.73,2.03,3.27,1.94,1.55,0,3.09,.02,4.64,.03,1.02,2.05,2.62,3.15,5.01,2.96-3.61,3.08-6.65-1.63-10.05-.8-1.15,1.17-.52,2.48-.52,3.72-2.18-1.61-4.38-3.13-7.32-1.96-.71-1.27-2.62-1.37-2.97-2.98,.75-1.13,.76-2.37-.66-2.65-1.7-.33-3.51-.09-5.28-.09,.07-1.35-.19-2.6-1.03-3.7,.75-2.2,1.78-.06,2.63-.14,.47-.64,.91-1.25,1.35-1.85,0-.41,0-.82,0-1.24l4.93-.83c1.88,1.75,3.48-.96,4.98-.57,1.12,.86-.13,2.19,1.37,2.73,.8-.72,1.69-1.51,2.59-2.3Z"/>
  <path class="cls-28" d="M56.48,52.74c-.89,.79-1.78,1.59-2.59,2.3-1.5-.54-.24-1.86-1.37-2.73-1.5-.39-3.1,2.32-4.98,.57,.66-1.53,.5-1.71-2.02-2.27,.35-.32,.69-.64,1.04-.96,1.26-.04,2.22,1.35,3.66,.7,.86-1.79,.23-3.67,.23-5.52,.05-2.81,.46-5.64-.22-8.42-3.37-.59-6.43-.21-9.48-.17-.69-.03-1.39-.05-2.08-.08-.94-.02-1.95-.37-2.84,.67v16.42c2.12,2.13,4.71,.79,6.79,1.7-.44,.61-.89,1.21-1.35,1.85-.85,.08-1.88-2.06-2.63,.14-.65-.13-1.3-.26-1.96-.39-.86-1.45-2.12-2.64-2.23-4.32-2.22,.26-.22,2.76-2.2,2.85-.8-.74-1.61-1.48-2.42-2.23,2.71-1.17,4.57-2.74,2.84-5.96,.38-.38,.76-.76,1.13-1.13,1.57-1.68,1-2.53-1.11-2.79,0-.35,0-.69,.01-1.04,1.41-.66,2.32-1.55,1.63-3.27-1.63-.12-3.47,1.57-4.62-.71h2.63c-.19-1.1-.34-1.96-.47-2.74,1.46-2.5,5.64-3.01,4.86-6.92,2.2,1.95,.15,4.52,.81,6.66,1.65,.17,3.13,.48,4.54-.88,.27-.86,.61-1.92,1.21-3.8,.45,2.12,.2,3.57,1.86,4.55,2.64,.96,5.5-.56,8.42-.58,2.25,.81,.02,2.4,.57,3.51,.87,.3,1.64,.26,2.32-.32-.79,3.16-3.23,.68-4.71,1.28-.54,1.33,.43,2.2,.81,3.23-1.19,.76-1.07,1.89-.93,2.92,.73,.75,1.4,1.42,2.07,2.1-.38,1.37-.24,2.72,.1,4.25,.84,.47,1.76,.99,2.67,1.5Z"/>
  <path class="cls-1" d="M29.83,52.86c.81,.75,1.62,1.49,2.42,2.23,1.98-.09-.02-2.59,2.2-2.85,.11,1.67,1.37,2.87,2.23,4.32-1.02,2.37,.3,4.52,.66,6.77,2.74,1.27,5.52-1.27,8.26,.06,.35,1.61,2.27,1.71,2.97,2.98l-.03,.06c-.65,.6-1.29,1.21-1.94,1.81-.36-.31-.72-.61-1.08-.92-1.19-.14-.48-1.83-1.92-2.05v5.03c-1.84,.28,.18-2.85-2.14-1.91-1.64,2.27-.86,4.46,.22,6.64-1.92,.03-3.69-.37-5.13-1.73,1.54-1.85,1.94-4.4,1.08-6.95-.99-.7-2.01-.48-3.03-.08,.04-.44,.09-.88,.13-1.31-.39-2.04-1.49-2.18-4.01-.49l.09-.06c-2.18-.08-3.92,.43-4.2,2.96-.63-2.24-2.63-4.1-1.94-6.71,1.39,.69,2.36,2.88,4.41,1.21,0-1.53-1.89-1.72-2.15-3.07,1.72-1.61-.47-5.08,2.92-5.94Z"/>
  <path class="cls-3" d="M214.71,24.06c-1.9,.94-3.85,.24-6.49,.54,2.27-3.45,1.64-6.73,1.7-10.36-3.24,1.6-4.53,4.53-6.13,6.09-1.16,1.82,.73,2.62-.04,3.87-1.86,.52-3.79,.48-5.75,.01,1.69-3.82,1.98-12.16-.16-16.07,1.92-.78,3.84-.58,6.22-.13-1.17,2.92-1.43,5.86-.77,9.18,2.94-1.4,4.05-4.27,5.59-5.71,1.26-1.78-1.3-2.24-.15-3.56,1.85-.41,3.78-.42,5.82,.02-1.7,5.42-2.19,10.76,.16,16.11Z"/>
  <path class="cls-51" d="M227.89,66.25c-2.17,5.09-4.66,5.87-14.23,4.51,2.21-5.47,2.05-10.96,.08-16.65,4.05-.28,8.13-1.09,11.66,1.38,1.77,2.58,.49,4.48-.98,6.34,1.4,1.17,3.14,2,3.47,4.43Zm-8.84-2.51c0,1.88-.63,3.6,.46,5.37,3.26,.37,4.49-1.13,4.26-3.95-1.1-1.74-2.47-1.95-4.71-1.43Zm.3-7.92c-.51,1.98-.85,3.76,.27,5.67,2.06-.42,3.1-1.54,3.1-3.3,0-1.7-1.06-2.57-3.38-2.37Z"/>
  <path class="cls-3" d="M219.27,31.49c2.3-.75,4.21-.68,6.3-.18-.77,2.99-1.56,5.91-1.04,9.35,3.08-1.22,4.08-4.19,5.77-5.52,1.28-1.65-.44-2.54,.11-3.79,1.83-.79,3.77-.18,5.86-.39-1.48,5.65-2.31,10.97,.41,16.37-2.05,.86-4.11,.5-6.68,.27,1.8-3.23,2.03-6.45,1.43-10.29-3.02,2.17-4.83,4.92-6.61,7.28-.34,1.37,1.74,1.5,.67,2.99h-6.09c2.2-4.59,2.18-12.15-.14-16.09Z"/>
  <path class="cls-51" d="M156.22,31.16h13.56c-2.27,4.26-1.02,8.77-1.4,13.5,2.79,1.75,2.66,4.39,1.86,7.34-2.2-.61-1.02-2.79-2.9-3.94-3.05-.45-6.78-.34-9.85-.07-2.24,.79-1.25,3.04-3.21,3.73-.98-1.64-.53-3.36-.52-4.95,5.33-3.74,6.53-10.6,2.46-15.6Zm8.11,14.07c.23-4.14,.57-8.07-.16-11.92-1.45-.38-2.54-.45-3.49,.8,.24,3.79-1.05,7.55-1.87,11.4,1.9,.48,3.48,.58,5.52-.28Z"/>
  <path class="cls-18" d="M251.25,41.47c-3.97,.72-3.76,8.44-10.18,5.7,2.05-2.14,4.18-4.08,5.49-6.81-2.02-1.64-3.9-3.55-2.63-6.49,1.16-2.69,3.79-2.69,6.25-3.07,2.33-.36,4.54,0,6.76,.47-1.78,5.42-2,10.72,.25,16.08-2.17,.81-4.41,.53-7.09,.12,.89-1.96,2.93-3.65,1.16-6.01Zm.09-8.91c-2.75-.3-4.33,.9-4.13,3.44,.19,2.38,1.61,3.74,4.48,2.67,.29-2.08,.65-4.08-.34-6.11Z"/>
  <path class="cls-17" d="M286.86,24.17c1.06-1.86,2.37-3.38,.99-5.61-3.56,0-3.25,4.1-4.86,4.8-2.13,1.47-3.55,1.24-5.4,.78,1.61-2.46,4-4.04,5.25-6.95-1.89-1.54-4.45-3.33-2.83-6.42,1.48-2.83,4.32-3.27,7.26-3.1,1.94,.11,3.95-.43,5.82,.48-1.38,5.26-1.22,10.46-.04,15.91-1.77,1.05-3.86,.19-6.19,.11Zm-3.09-13.33c-.7,3.27,.2,5.34,4.19,5.49,.72-2.46,.81-4.75,0-7.02-1.68-.42-2.78,.21-4.18,1.52Z"/>
  <path class="cls-9" d="M304.37,70.79c1.22-1.99,2.9-3.73,1.28-6.19-4.37,.18-4.04,8.35-10.46,5.97,1.76-2.46,4.06-4.17,5.08-6.84-.85-.91-1.73-1.85-2.55-2.73-.45-1.73-.81-3.48,.51-4.71,3.67-3.41,8.19-2.42,12.63-2.22-1.9,5.58-2.21,10.94,.27,16.69-2.18,.66-4.3,.57-6.75,.03Zm1.53-14.83c-1.73-.48-3.11-.46-4.36,1.32-.19,1.18-.59,2.72,.59,4.3,1.09,1.01,2.38,1.09,4.04,.44,.01-1.99,.38-3.86-.27-6.06Z"/>
  <path class="cls-18" d="M114.73,16.09c.04-5.09,3.64-8.97,8.33-8.98,5.03-.01,8.86,3.97,8.79,9.12-.07,5.02-4.15,9.05-9.05,8.94-4.95-.11-8.11-3.66-8.06-9.08Zm8.24,7.32c4.05-.95,4.87-3.73,4.89-7.04,.01-3.46-.75-6.45-4.61-7.47-6.13,2.93-6.34,10.09-.27,14.51Z"/>
  <path class="cls-51" d="M239.51,7.92h6.75c-1.14,2.22-2.3,4.34-.65,7.01,2.46-1.82,3.43-4,3.25-6.85,1.87-.53,3.53-.6,6.18,.23-3.44,1.67-4.99,4.04-6.41,6.76,2.06,3.06,4,6.18,7.23,8.68q-4.08,.82-10.2-6.31-1.12,3.32,.4,6.88h-6.39c1.78-5.44,1.91-10.63-.15-16.41Z"/>
  <path class="cls-7" d="M116.39,31.16c2.15-.2,3.94-.46,5.98,.22-.98,2.01-2.15,4.01-.86,6.53,3.09-1.1,3.48-3.72,3.84-6.55,1.66-.55,3.32-.61,5.7,.22-2.85,1.87-5,3.78-6.03,6.82,1.03,1.46,2.08,3.08,3.28,4.6,1.07,1.36,2.29,2.61,3.56,4.04-2.76,1.68-4.37,.27-6.01-1.47-1.52-1.61-2.26-3.89-4.67-5.4-.18,2.79-1.07,5.15,1.95,6.94-2.69,1.03-4.73,.79-7.03,.4,1.7-5.51,1.2-10.93,.27-16.35Z"/>
  <path class="cls-9" d="M104.73,71.27c-5.03-.04-8.51-3.62-8.43-8.69,.08-5.15,3.91-8.95,8.97-8.89,4.87,.06,8.49,3.82,8.47,8.79-.03,5.09-3.85,8.82-9,8.78Zm5.23-8.66c-.16-.95-.24-1.92-.51-2.84-.67-2.28-1.68-4.27-4.6-4.18-2.95,.09-3.72,2.31-4.37,4.5-.73,2.46-.05,4.87,1.1,7.02,1.62,3.03,5.35,3.07,7.12,.15,.84-1.38,1.32-2.96,1.26-4.66Z"/>
  <path class="cls-17" d="M200.06,71.27c-4.88-.04-8.49-3.74-8.52-8.71-.03-5.03,3.95-8.93,9.02-8.86,4.8,.07,8.55,3.93,8.53,8.78-.02,4.96-4,8.83-9.04,8.79Zm3.27-2.76c2.08-3.36,2.54-6.87,.69-10.52-.78-1.54-2.02-2.46-3.93-2.4-1.92,.07-3.11,1.12-3.7,2.71-1.47,3.93-1.18,7.61,2.13,10.75,1.43,.39,2.86,.55,4.81-.54Z"/>
  <path class="cls-49" d="M72.37,42.97c-.31,.33-.63,.67-.94,1-.57-.51-1.14-1.02-1.7-1.51-1.12,.46-1.31,1.36-1.3,2.36-.44,.04-.89,.08-1.33,.13-.52,.32-1.04,.63-1.56,.95-.34,0-.68,0-1.02,0,2.07-2.81,3.8-5.75,3.12-9.35,1.17-.32,1.98-.55,2.99-.83-1.03-.71-2.18-.67-2.68-1.77,2.07-3.54-2.34-6.42-.84-9.72-1.14-.33-1.89-.55-2.64-.76,1.12-1.24,2.48-2.32,2.95-4.02l-.03,.07c1.43-.97,1.34-3.09,3.02-3.88,.15,1.03,1.8,.94,1.67,2.18-.84,1.99-1.69,3.99-2.55,6,1.53,.13,2.41-1.47,3.69-.64,.18,1.84-1.94,2.18-2.06,3.74,1.3,.17,3.26-1.17,3.21,1.46l.05-.09c-.69,.34-1.3,.76-1.58,1.78,1.49,.04,1.46,1.16,1.53,2.2l.05-.05c-.96,.2-1.76,.68-2.39,1.38,.22,1.03,2.02,.02,1.96,.75-.2,1.49-1.47,1.63-1.13,2.8,.68,.65,1.27,1.62,2.47,1.87-.37,.68-.74,1.36-1.11,2.03-.89-.27-1.15-1.66-2.74-1.19,.39,1,1.14,1.97,.89,3.11Z"/>
  <path class="cls-17" d="M130.13,53.93c1.2,1.46,1.05,2.69,.57,4.36-1.88-2.02-3.85-3.6-6.68-2.24-1.03,1.43-1.14,2.93-.34,4.47,1.15,1.04,2.54,.7,3.81,.79,2.83,.2,4.79,1.46,4.96,4.35,.17,3.05-1.73,4.91-4.63,5.33-3.06,.45-6.2,.41-9.32-.08,1.89-5.53,2.35-10.95-.12-16.69,4.01-.73,8.01-.24,11.75-.28Zm-1.34,11.72c-1.09-2.43-2.49-3.63-5.42-2.32-.23,1.84-.8,3.79,.29,5.72,2.98,.73,4.47-.5,5.12-3.41Z"/>
  <path class="cls-18" d="M97.29,8.05c2.83-.7,5.29-.36,7.73-.34,3.14,.03,5.57,1.3,5.92,4.59,.35,3.26-1.87,4.99-4.74,5.91-1.07,.34-2.24,.37-3.39,.54-1.34,1.99-.62,3.58,1.57,4.96-2.56,1.32-4.61,.59-6.88,.86,1.06-5.68,1.55-10.99-.2-16.52Zm9.54,3.03c-1.43-1.49-2.67-1.92-4.59-.73,.1,1.87-.71,4.01,.53,6.16,4.26,.18,4.58-2.22,4.06-5.43Z"/>
  <path class="cls-18" d="M184.93,36.38c.49,1.88,.52,3.46,.04,5.06-1.68,.77-2.12-2.2-4.15-.94-.72,1.37-.38,3.07-.14,4.75q4.03,.67,6.61-2.16c1.13,.21,1,1.11,1.01,1.87,0,.79-.12,1.57-.2,2.55-4.21,.47-8.27,.46-12.41,.02,1.4-5.39,1.44-10.59,.08-16.07,3.54-1.02,7.24-.39,10.63-.4,1.38,1.15,.88,2.3,1.07,3.82-2.35-.67-3.74-4.05-6.54-1.68-.72,1.41-.67,2.94-.1,4.36,1.97,1.45,2.34-1.29,4.1-1.18Z"/>
  <path class="cls-51" d="M170.24,70.51c-2.27,1.08-4.19,.67-6.01,.49-1.52-1.3,1.54-2.87-.56-4.07-1.69-1.14-3.5-1.11-4.66-.4-2.08,1.71-.17,2.86-.57,4.15-1.5,.71-2.99,.83-4.72-.17,3.68-5.11,4.45-11.39,7.76-17.31,4.5,5.36,4.57,12.29,8.77,17.31Zm-7.78-6.68c.13-1.78-.54-3.14-1.79-5.14,.04,2.24-1.59,3.41-.79,5.19,.72,.59,1.47,.6,2.58-.05Z"/>
  <path class="cls-3" d="M136.97,54.45c10.08-1.88,13.88,.07,13.45,7.37-.64,.49-1.67,1.28-3.06,2.35-1.31,.22-3.06,.52-4.64,.79-1.73,2.31-.53,3.99,1.24,5.49-2.57,1.2-4.64,.55-7.37,.65,2.06-2.91,2.19-5.7,2.02-8.56-.16-2.77,.69-5.69-1.64-8.1Zm5.31,1.7c-.51,2.5-.85,4.75,.33,7.21,3.14-.39,4.51-1.9,4.15-4.81-.3-2.37-1.56-3.37-4.48-2.4Z"/>
  <path class="cls-18" d="M104.77,43.01c-.93-.26-2.54-.17-3.92,.12-2.14,1.5,.31,2.9-.14,4.34-1.67,.43-3.26,.64-5.14-.28,4.01-5,4.45-11.55,8.14-17.37,3.8,5.57,4.48,12.03,8.3,17.4-2.09,1.05-4.14,.39-5.97,.56-1.52-1.59,1.28-2.94-1.26-4.78Zm-.09-2.48c-.21-1.51-.36-3.03-2.18-4.03-.43,1.39-.83,2.67-1.21,3.9,1.22,.83,2.25,.81,3.38,.13Z"/>
  <path class="cls-18" d="M238.86,52.82c3.76,6.09,4.93,12.3,8.07,17.69-1.98,1.06-3.74,.66-5.4,.48-1.61-1.25,1.35-2.86-.61-4.04-1.66-1.2-3.49-1.01-4.93-.39-2.04,1.56,.51,2.92-.49,4.25-1.42,.64-2.82,.39-4.68-.05,3.62-5.42,4.56-11.74,8.04-17.95Zm-.37,6.19c-1.23,1.83-2.12,3.18-1.29,4.92,.95,.56,1.81,.7,2.68-.58-.38-1.2-.81-2.54-1.39-4.34Z"/>
  <path class="cls-18" d="M263.57,19.71c-2.32,1.86-.05,3.04-.42,4.39-1.63,.62-3.2,.64-5.08-.1,2.03-2.64,2.93-5.71,4.2-8.63,1.19-2.73,1.39-5.93,3.88-8.36,2.65,2.45,2.84,5.86,4.24,8.65,1.34,2.68,2.04,5.66,3.95,8.19-1.99,1.28-3.94,.35-5.79,.74-1.09-1.55,.84-2.98-.57-4.58-1.25-1-3.04-.45-4.4-.3Zm.35-2.34c1.13,.11,2.16,.68,3.2-.36-.46-1.28-.16-2.92-1.85-3.78-.84,1.19-1.21,2.48-1.35,4.14Z"/>
  <path class="cls-13" d="M178.55,62.29c.77-1.55,3-.46,3.43-1.78,1.41-1.62,1.06-2.96,.18-4.39-3.55-1.9-4.76,1.21-6.63,3.47-1.67-1.87-.72-3.73-1.05-5.84,4.13,1.36,8.59-2.26,11.66,2.23,1.02,2.28-.08,4.05-1.46,5.73,3.25,2.96,3.79,5.51,1.67,7.72-2.88,3.01-9,2.32-12.87-1.81,3.3,.12,6.09,3.37,9.33,.6,.98-1.04,.91-2.42,.56-3.35-1.17-2.42-3.83-.73-4.84-2.6Z"/>
  <path class="cls-18" d="M142.33,29.37c3.71,6.31,4.74,12.46,8.32,17.88-2.06,.99-4.08,.51-6.04,.45-1.27-1.49,1.07-2.85-.32-4.34-1.46-.81-3.23-.45-4.89-.19-1.51,1.49-.34,2.89,.38,4.2-1.86,.57-3.29,.63-5.08-.05,3.08-5.42,4.39-11.52,7.63-17.95Zm-.43,6.68c-1.36,1.53-1.64,3.01-1.83,4.8,1.37,.12,2.31,.46,3.26-.36,.03-1.39-.52-2.67-1.43-4.44Z"/>
  <path class="cls-2" d="M150.14,7.71c.72,1.91,.61,3.3,.22,4.64-.88,.3-1.34,.04-1.71-.62-1.02-1.82-2.41-3.23-4.73-2.68-2.36,.56-3.4,2.48-3.95,4.58-1.2,4.57,.53,7.73,5,9.46,2.35,.09,3.81-1.77,5.84-2.53-1.35,3.65-4.81,5.38-8.54,4.35-4.44-1.23-7.23-5.51-6.4-10.16,.57-3.2,2.32-5.56,5.41-7.06,3.02-1.47,5.8,.64,8.86,.03Z"/>
  <path class="cls-13" d="M169.46,8.11c.33,1.56,.5,2.83-.1,4.25-2.41-.19-2.53-4.04-6.2-3.01-5.41,2.69-5.72,9.57,.15,13.66,2.65,.55,4.43-1.52,6.82-2.5-1.53,3.94-4.9,5.46-8.81,4.25-4.82-1.49-7.08-5.95-5.72-11.31,1.29-5.08,5.29-6.67,13.86-5.34Z"/>
  <path class="cls-19" d="M227.96,23.04c2.63,.33,4.32-1.5,6.49-2.53-1.11,3.62-4.44,5.33-8.18,4.42-4.95-1.2-7.4-5.5-6.29-11.04,1.09-5.46,5.25-7.2,13.98-5.68,.08,.71,.22,1.48,.22,2.26,0,.6-.17,1.21-.31,2.04-2.28-.69-2.68-3.68-5.93-3.49-2.5,.55-3.96,2.6-4.11,5.72-.17,3.57,.08,6.92,4.13,8.29Z"/>
  <path class="cls-47" d="M64.46,23.46c.75,.22,1.5,.43,2.64,.76-1.5,3.3,2.91,6.18,.84,9.72,.49,1.1,1.64,1.06,2.68,1.77-1.01,.28-1.82,.5-2.99,.83,.67,3.6-1.05,6.54-3.12,9.35-3.67-2.03-4.32,1.13-5.7,3.34-.34-2.22-1.65-2.69-3.52-2.17-.27-.03-.53-.1-.78-.2,.43-.91,1.03-1.67,2.12-1.74,7.12-.42,8.88-6.24,9.55-12.72,.15-1.46-.71-3.18-2.88-3.19-1.19-.69-.74-1.85-.85-2.85,1.07-.7,1.41-1.89,2.01-2.9Z"/>
  <path class="cls-15" d="M21.78,50.63c-1.73,.71-1.91-1.4-3.26-1.74-.8,.25-1.71,.52-2.63,.8-.16-3.09-3.5-3.57-4.89-5.73,2.42-4.79-1.84-9.07-.65-13.79-.47-1.24,1.37-.73,1.44-1.88l.11,.06c.79,.25,1.46,.64,1.68,1.48-.27,.56-1.26,.48-1.15,1.27,.45,1.35,1.94,1.64,2.72,2.73-.97,.24-1.87,.45-2.76,.67,.18,1.38,1.18,1.54,2.14,1.76-.45,.78-.9,1.56-1.44,2.51,1.94,.69,2.29,3.39,4.77,3.34-.33,.7-1.04,1.3-.62,2.27,1.29,.76,1.86,2.7,3.87,2.48-.28,1.08-.56,2.17,.72,2.87,0,.3,0,.59-.04,.89Z"/>
  <path class="cls-40" d="M63.3,29.21c2.16,.01,3.03,1.74,2.88,3.19-.67,6.48-2.43,12.3-9.55,12.72-1.09,.06-1.69,.83-2.12,1.74-.26,.05-.53,.1-.8,.13-.67-.68-1.33-1.35-2.07-2.1-.15-1.04-.26-2.17,.93-2.92l-.05-.04c3.36,1.61,4.37,1.43,5.94-1.05-.53-1.75,2.57-.97,1.98-2.76,3.27-1.51,2.44-3.67,.98-5.94l.03,.07c.62-1.01,1.23-2.02,1.85-3.04Z"/>
  <path class="cls-10" d="M66.46,65.41c-2.39,.19-3.99-.91-5.01-2.96,0-1.3,0-2.59,0-3.89,.87,.12,1.59,1.09,2.6,.45,.81-1.15,.17-2.36,.16-3.55,.18-.94,.22-1.98,1.64-1.9,1.32,.07,1.49,1.02,1.66,2,.19,1.17-.54,2.47,.42,3.5,.91,.46,1.56-.21,2.3-.34,1.04,3.49-1.4,5.08-3.79,6.7Z"/>
  <path class="cls-12" d="M18.76,19.46c-.16-2.03,2.5-3.36,1.05-5.49,2.03-1.38,3.74-2.54,5.4-3.66,1.42,.28,2.56,.8,3.47,2.09,.39,1.95-1.81,4.13,.06,6.2,0,0,.05-.01,.05-.01-.41,.04-.81,.08-1.22,.11-1.53,.09-1.73-1.59-2.84-2.07,.39-.89,1.79-1.69,.06-2.91-1.09,.99-1.51,1.87,.02,2.86-.07,1.84-2.3,2.69-2.31,4.7-.44-.77-.87-1.53-1.37-2.41-.79,.23-1.54,.45-2.29,.66l-.08-.07Z"/>
  <path class="cls-1" d="M48.57,66.37c2.94-1.17,5.14,.35,7.32,1.96,1.4,1.42,.31,2.62-.52,4.15-3.46,.82-7.14,1.7-10.82,2.58-.34-.34-.68-.68-1.02-1.01,.06-.31,.13-.62,.2-.93,1.81,.41,2.41-1.58,3.87-1.88,1.28,.99,1.89,.08,2.54-.89-.52-1.29-1.05-2.6-1.59-3.91l.03-.06Z"/>
  <path class="cls-14" d="M56.85,18.41c1.55-.99,1.98-2.24,1.09-3.92-.54-1.01-.71-2.06,.55-2.77-.04,1.33,.58,2.03,1.98,1.95,.28,1.08,.56,2.15,.87,3.33-.92,.85-1.84,1.68-2.73,2.51,1.64,2.12,2.1,4.52,2.87,6.78-.34,.34-.68,.68-1.03,1.02-.66-1.35-2.02-.9-3.1-1.17-.92-2.08-2.53-3.01-4.83-2.76,.44-.82,1.25-.88,2.05-.94,1.06-.36,1.72-1.07,1.96-2.15-.06-.17-.06-.34,0-.51-.05-.4-.1-.79-.14-1.19,.16-.07,.31-.12,.47-.18Z"/>
  <path class="cls-30" d="M18.9,56.72c1.57-1.29,2.28-.2,2.93,1.03,.66,1.25,.97,2.81,2.84,2.91-.69,2.61,1.31,4.47,1.94,6.71,.06,.78,.24,1.61-1.24,2.1-1.44-1.24-3.06-2.65-4.83-4.17,.61-3.11-.72-5.8-1.63-8.58Z"/>
  <path class="cls-40" d="M55.29,47.06c1.88-.52,3.19-.05,3.52,2.17,1.38-2.21,2.03-5.37,5.7-3.34,.34,0,.68,0,1.02,0-.03,.28-.07,.56-.12,.83,.36,1.44-.17,2.69-.86,3.9-2.6,2.08-5.43,.25-7.83,.69-1.66-1.31-.92-2.95-1.44-4.24Z"/>
  <path class="cls-12" d="M39.73,14.68c-.91-2.42-2.9-5.01,1.05-6.7,.41,1.37,.81,2.73,1.23,4.15h2.51c-.05-1.49,.2-2.9,.95-4.16,1.46,.03,2.17,1.01,2.85,2.21,.15,1.39-.49,2.52-1.53,3.51-2.43-.17-4.78,.18-7.07,1Z"/>
  <path class="cls-11" d="M17.83,19.41c.32-.08,.63-.06,.93,.05l.08,.07c.68,1.18,1.37,2.36,2.05,3.53-.68,2.06-1.36,4.13-2.04,6.19-2.03-.87-3.83-2.29-6.34-2.58-.2,.55-.41,1.12-.62,1.68l-.11-.06c-1.14-.26-1.25-1.27-1.8-2.04,.81-.73,1.47-1.32,2.13-1.92,.35,.02,.7,.04,1.05,.06,.73,.54,1.47,1.07,2.14,1.56,.57-.23,1-.41,1.44-.58,2-.88,.1-1.91,.12-2.87-.27-1.21,.75-2.03,.97-3.09Z"/>
  <path class="cls-22" d="M74.37,28.37c.04-2.63-1.91-1.3-3.21-1.46,.12-1.56,2.24-1.9,2.06-3.74-1.28-.83-2.16,.77-3.69,.64,.86-2.02,1.7-4.01,2.55-6,.13-1.24-1.52-1.15-1.67-2.18h2.62c.21,2.07,.67,4.05,2.01,5.25,.54,1.84-1.8,3.57,.78,5.01,.72,.4-.29,1.98-1.45,2.48Z"/>
  <path class="cls-43" d="M29.6,18.46c-1.34-3.36,2.36-4.66,2.79-8.43,1.8,3.29,3.03,5.54,4.26,7.79-2.24,1.38-4.71,.42-7.06,.64Z"/>
  <path class="cls-41" d="M29.6,18.46c2.35-.22,4.81,.73,7.06-.64,.71-.09,1.41-.19,2.12-.28,.24,.63,.47,1.26,.71,1.89h-7.99c.47,0,.94,0,1.41,0-3.65,3.39,2.86,3.26,.64,6.16-1.76-.92-2.95,1.78-4.73,.71,.63-1.26,1.27-2.52,1.83-3.64-.5-1.58-1.97-2.47-1.85-4.07h-.05c.28-.03,.57-.07,.85-.12Z"/>
  <path class="cls-4" d="M13.17,24.39c-.35-.02-.7-.04-1.05-.06q-1.09-3.57,1.55-4.55c-.26-1.84-1.45-3.97,1.09-5.23,1.39,.18,1.24,1.31,1.53,2.14-3.05,2.24-.64,3.97,.56,5.81-.01,.96,1.88,1.99-.12,2.87-.7-1.49-1.95-2.16-3.66-2.7,.04,.82,.06,1.27,.08,1.71Z"/>
  <path class="cls-39" d="M37.62,66.36c.86,2.55,.47,5.09-1.08,6.95-1.23-.39,.5-2.25-1.23-2.39-1.57,.07-.51,1.46-1.19,2.23-1.03-.77-3.03,.27-3.4-1.91,2.3-1.63,4.6-3.25,6.9-4.88Z"/>
  <path class="cls-43" d="M44.69,23.41c.06-1.17,1.66-.88,1.88-2.04,0-1.53-.67-2.92-1.56-4.01-1.44-1.16-2.95-.58-4.35-.74,1.61-2.5,4.25,.28,6.07-1.14,.62,.65,1.25,1.31,1.87,1.96,0,.71,0,1.42,0,2.12,1.36,1.24-.04,2.57,.12,3.84-1.34-.01-2.67,1.11-4.01,0Z"/>
  <path class="cls-43" d="M49.52,17.79c1.6-.58,.43-3.42,2.82-3.34,.39,.72,.11,2,1.57,1.82,.86-.72,.42-1.74,.6-2.61,.78,.51,1.55,1.02,1.74,1.14,1.5,1.51,.02,2.58,.6,3.59-.16,.05-.32,.11-.47,.18-2.27-.43-4.72,.69-6.86-.79Z"/>
  <path class="cls-4" d="M60.47,13.66c-1.4,.08-2.02-.61-1.98-1.95,3.83-1.49,7.28,.43,7.27,4.06-.18-.03-.33-.11-.45-.24-1.78-.21-2.65-2.68-4.83-1.86Z"/>
  <path class="cls-42" d="M202.29,3.46c2.33-1.39,2.55,1.31,4.05,1.3,1.79,.81,2.12-3.26,4.32-1.34-2.06,3.71-5.92,3.77-8.38,.04Z"/>
  <path class="cls-25" d="M45.48,7.97c-.75,1.27-1.01,2.67-.95,4.16h-2.51c-.42-1.41-.83-2.78-1.23-4.15,.87-.12,1.74-.24,2.6-.36,.43,.04,.87,.08,1.3,.12,.27,.07,.53,.14,.8,.22Z"/>
  <path class="cls-6" d="M75.32,39.01c-1.2-.26-1.79-1.22-2.47-1.87-.34-1.17,.92-1.31,1.13-2.8,.06-.73-1.74,.28-1.96-.75,.63-.7,1.42-1.18,2.39-1.38,.58,.5,1.16,1.01,1.98,1.72-.75,1.52-2.36,3.08-1.07,5.08Z"/>
  <path class="cls-24" d="M46.72,15.48c-1.82,1.41-4.46-1.36-6.07,1.14-.35,.08-.71,.15-1.06,.23,.05-.72,.09-1.44,.14-2.17,2.28-.82,4.64-1.17,7.07-1-.03,.6-.06,1.2-.08,1.8Z"/>
  <path class="cls-32" d="M65.76,15.77c-.42,1.65,2.62,1.84,1.63,3.73l.03-.07c-1.62-.85-3.14-1.38-3.62,1.42-.03-1.71-1.49-2.81-.97-4.35,1.09,.3,1.66-.64,2.49-.97,.12,.13,.27,.21,.45,.24Z"/>
  <path class="cls-47" d="M43.52,74.05c.34,.34,.68,.68,1.02,1.01-.97,1.02-1.92,.97-2.87-.02-1.07-2.18-1.85-4.37-.22-6.64,.25,2.04,.23,4.17,2.06,5.65Z"/>
  <path class="cls-44" d="M54.52,13.67c-.19,.87,.26,1.88-.6,2.61-1.46,.18-1.19-1.1-1.57-1.82,.2-.87,.4-1.73,.58-2.54,1.61-.16,1.5,.88,1.6,1.76Z"/>
  <path class="cls-23" d="M44.68,7.74l-1.3-.12c-.67-.84-2-1.3-1.55-2.78,.42-1.17,1.35-1.04,2.34-.79,.94,1.13,.29,2.47,.5,3.69Z"/>
  <path class="cls-20" d="M67.1,44.93c.44-.04,.89-.08,1.33-.13,.64,.35,1.28,.71,1.91,1.06-.07,.75-.14,1.51-.19,2.01-.84,1.14-1.84,.92-2.76,.96,.32-.67,.64-1.33,1.05-2.18-.44-.56-.89-1.15-1.35-1.74Z"/>
  <path class="cls-33" d="M49.52,17.79c2.14,1.48,4.59,.36,6.86,.79,.05,.4,.1,.79,.14,1.19-2.65-.07-5.29-.14-7.94-.21,0-.71,0-1.42,0-2.12,.31,.12,.62,.23,.93,.35Z"/>
  <path class="cls-8" d="M64.22,55.45c0,1.19,.65,2.4-.16,3.55-1.01,.64-1.73-.33-2.6-.45,.43-1.46,1.68-2.2,2.76-3.1Z"/>
  <path class="cls-21" d="M70.25,58.71c-.74,.14-1.4,.8-2.3,.34-.96-1.03-.23-2.33-.42-3.5,1.15,.85,2.45,1.58,2.72,3.16Z"/>
  <path class="cls-29" d="M74.36,32.26c-.08-1.05-.04-2.16-1.53-2.2,.28-1.03,.89-1.45,1.58-1.78,.09,1.17,1.66,.75,1.93,1.78-.14,1.15-.77,1.92-1.98,2.2Z"/>
  <path class="cls-26" d="M34.59,66.28c-1.9-.46-2.62,1.24-3.85,2.02l.06-3.89s-.09,.06-.09,.06c1.42-.47,2.52,1.58,4.01,.49-.04,.44-.09,.88-.13,1.31Z"/>
  <path class="cls-10" d="M72.37,42.97c.24-1.14-.51-2.11-.89-3.11,1.59-.47,1.86,.92,2.74,1.19,.35,1.54-.6,1.87-1.85,1.92Z"/>
  <path class="cls-50" d="M56.82,62.42c-1.54,.09-2.65-.52-3.27-1.94l-.03,.04c.69-.3,1.39-.61,2.11-.92,.2,.7,.34,1.23,.49,1.75,.23,.35,.47,.71,.7,1.06Z"/>
  <path class="cls-38" d="M65.41,46.71c1.34,.7,.96,2,1.13,3.12-.41,.87-1.16,.92-1.98,.79,.69-1.22,1.22-2.46,.86-3.9Z"/>
  <path class="cls-27" d="M45.6,63.39c-2.74-1.33-5.51,1.21-8.26-.06,.37-1.23,.8-2.42,2.32-2.68,1.76,0,3.58-.24,5.28,.09,1.42,.28,1.41,1.52,.66,2.65Z"/>
  <path class="cls-48" d="M42.61,53.72c-1.2-.82-2.65-1.02-4.76-1.37,3.1-.7,5.39-1.21,7.68-1.73,2.52,.56,2.68,.74,2.02,2.27l-4.93,.83Z"/>
  <path class="cls-50" d="M50.61,63.44c.21-1.56-.98-2.43-1.83-3.42,.47-.71,1.17-.47,1.75-.6,.5,1.69,2.54-.73,2.99,1.09l.03-.04c-1.28,.55-2.01,1.32-1.09,2.72-.64,.06-1.29,.11-1.93,.17l.07,.07Z"/>
  <path class="cls-37" d="M44.69,23.41c1.34,1.1,2.67-.02,4.01,0,.94,.32,1.87,.64,2.81,.97,.46,.89,1.33,1,2.19,1.16-2.36,1.04-4.77,2.05-3.72,5.61,1.27,.76,2.63,1.73,3.6,3.12-2.92,.02-5.78,1.53-8.42,.58-1.66-.98-1.41-2.43-1.86-4.55-.6,1.88-.93,2.94-1.21,3.8-1.41,1.36-2.89,1.05-4.54,.88-.66-2.15,1.39-4.72-.81-6.66-1.06-.91-2.12-1.81-3.19-2.72,2.22-2.9-4.29-2.77-.64-6.16-.47,0-.94,0-1.41,0h7.99c.43,2.98,3.01,5.08,3.05,8.44,1.83-1.37,2.08-2.88,2.16-4.45Z"/>
  <path class="cls-52" d="M21.78,50.63c.03-.29,.05-.59,.04-.89,.66-.32,1.32-.64,1.98-.96,.39,.69,.74,1.4,1.71,1.48,1.37-.97,1.52-1.94-.01-2.94-.59,.51-1.15,1-1.72,1.49l-.92-3.12c.55-1.73,2.5,.7,3.06-.99,1-1.02,2.43,.77,3.78-.78-2.3-.69-3.2-3.37-5.95-2.94l.04,.05c-.33-3.89-.66-7.79-.99-11.68-.26-1.34-2.09-2.71,.07-4.01,.98,.32,1.96,.64,2.94,.96,.7,1.9,2.52,2.87,3.73,4.35,1.18,1.44,2.23,2.89,.2,4.47-.14-.92,.25-1.98-.91-2.78-1.08,.36-2.28,.76-3,1-1.59,3.79,2.3,4.95,2.52,6.9,1.49,2.08,3.71-1.02,4.36,1.69,0,.35,0,.69-.01,1.04-.91,.41-1.69,.94-1.82,2.52,1-.2,2.21-.89,2.93,.27-.38,.38-.76,.76-1.13,1.13l-.45-.04-.44,.07c-1.33,.18-2.97-.63-3.83,1.05-.08,2.14,1.51,1.69,2.71,1.84-2.71,2.91-5.82,1.63-8.89,.81Z"/>
  <path class="cls-34" d="M46.56,49.65c-4.87-1.02-4.13-7.45-8.51-8.27-.92-2.22,2.28-3.31,.61-5.21,.69,.03,1.39,.05,2.08,.08,1.31,1.46,2.05,3.88,4.86,2.8,0,0-.01-.01-.01-.01,0,.97-.01,1.94-.02,2.91-1.29,1.71-.73,3.15,.65,4.91,1.68-2.18-.19-3.42-.59-4.87,2.89-1.17,2.53,3,4.81,2.84,0,1.85,.64,3.73-.23,5.52-1.43,.65-2.4-.74-3.66-.7Z"/>
  <path class="cls-46" d="M48.54,66.44c.53,1.31,1.06,2.62,1.59,3.91-.64,.97-1.26,1.88-2.54,.89-.33-1-.66-1.99-.99-2.99,.65-.6,1.29-1.21,1.94-1.81Z"/>
  <path class="cls-47" d="M46.59,68.24c.33,1,.66,1.99,.99,2.99-1.45,.3-2.06,2.29-3.87,1.88,.97-1.82,2.2-3.56,1.8-5.79,.36,.31,.72,.61,1.08,.92Z"/>
  <path class="cls-34" d="M30.67,49.82c-1.2-.15-2.79,.3-2.71-1.84,.86-1.68,2.5-.87,3.83-1.05-.65,.86-1.12,1.79-1.12,2.89Z"/>
  <path class="cls-36" d="M61.47,26.29c.33-.03,.66-.01,.98,.07,.11,1-.34,2.16,.85,2.85-.62,1.01-1.23,2.02-1.85,3.04-1.34-1-.31-3.18-2.04-3.98,.35-.32,.69-.64,1.04-.95,.34-.34,.68-.68,1.03-1.02Z"/>
  <path class="cls-52" d="M21.1,46.87c-2.01,.21-2.58-1.72-3.87-2.48-.42-.97,.3-1.56,.62-2.27,.1-1.1-.38-2.37,.96-3.09,2.43,1.68,2.64,4.31,3.01,6.87-.24,.32-.48,.65-.72,.97Z"/>
  <path class="cls-5" d="M18.81,39.03c-1.33,.73-.86,2-.96,3.09-2.48,.05-2.83-2.65-4.77-3.34,.55-.95,.99-1.73,1.44-2.51,1.02-.38,2.05-.76,3.07-1.15,.98,1.13,1.47,2.4,1.22,3.9Z"/>
  <path class="cls-36" d="M60.44,38.12c1.34-1.82,.3-4.02,.98-5.94,1.46,2.27,2.28,4.43-.98,5.94Z"/>
  <path class="cls-46" d="M52.51,41.93c2.11,.35,3.99-.55,5.94-1.05-1.58,2.48-2.58,2.66-5.94,1.05Z"/>
  <path class="cls-16" d="M25.77,26.37c-1.19-2.97,1.51-5.05,1.8-7.68,.41-.04,.81-.08,1.22-.11-.12,1.6,1.35,2.49,1.85,4.07-.56,1.12-1.2,2.38-1.83,3.64-1.01,.03-2.03,.05-3.04,.08Z"/>
  <path class="cls-6" d="M51.5,24.38c.34-.33,.67-.66,1.01-1,2.3-.25,3.9,.68,4.83,2.76-1.34,.49-2.37-.79-3.65-.61-.85-.16-1.73-.27-2.19-1.16Z"/>
  <path class="cls-6" d="M54.56,22.44c-.42-.56-.84-1.12-1.38-1.84,1.24-.12,2.29-.21,3.34-.31-.24,1.08-.9,1.79-1.96,2.15Z"/>
  <path class="cls-31" d="M20.9,23.06c1.06,.42,1.69,1.21,1.97,2.29-2.16,1.3-.33,2.67-.07,4.01-3.86,2.41-3.31,8.93,.99,11.68l-.04-.05c-.55,1.96,2.36,1.96,2.18,3.72-.56,1.69-2.51-.74-3.06,.99-.35,.07-.69,.14-1.04,.21-.36-2.56-.58-5.19-3.01-6.87,.25-1.5-.24-2.78-1.22-3.9,1.46-1.74-.48-4.19,1.27-5.87,.68-2.06,1.36-4.13,2.04-6.19Z"/>
  <path class="cls-34" d="M36.89,44.48c1.12,.94,1.96,1.72,2.02,3.24-2.51-.08-2.28-1.49-2.02-3.24Z"/>
  <path class="cls-21" d="M23.78,41.03c-4.3-2.74-4.85-9.27-.99-11.68,.33,3.89,.66,7.79,.99,11.68Z"/>
  <path class="cls-34" d="M45.6,39.04c.35-.51,.71-1.02,1.06-1.52,1.65,.27,2.38,1.2,2.85,2.81-1.65,.29-2.39-1.9-3.92-1.3h.01Z"/>
</svg>